<svg width="48" height="48" viewBox="0 0 48 48" fill="none" xmlns="http://www.w3.org/2000/svg">
<mask id="path-1-outside-1_929_54575" maskUnits="userSpaceOnUse" x="6.96875" y="12.3027" width="32" height="24" fill="black">
<rect fill="white" x="6.96875" y="12.3027" width="32" height="24"/>
<path d="M8.96875 16.727C8.96875 15.3881 10.0541 14.3027 11.393 14.3027H25.9384C27.2773 14.3027 28.3627 15.3881 28.3627 16.727V31.2724C28.3627 32.6113 27.2773 33.6967 25.9384 33.6967H11.393C10.0541 33.6967 8.96875 32.6113 8.96875 31.2724V16.727Z"/>
</mask>
<path d="M8.96875 16.727C8.96875 15.3881 10.0541 14.3027 11.393 14.3027H25.9384C27.2773 14.3027 28.3627 15.3881 28.3627 16.727V31.2724C28.3627 32.6113 27.2773 33.6967 25.9384 33.6967H11.393C10.0541 33.6967 8.96875 32.6113 8.96875 31.2724V16.727Z" fill="#E8EAF6"/>
<path d="M6.96875 16.727C6.96875 14.2835 8.94955 12.3027 11.393 12.3027H33.9384C36.3819 12.3027 38.3627 14.2835 38.3627 16.727H18.3627C18.3627 16.4927 18.3627 16.3027 18.3627 16.3027H11.393C11.1587 16.3027 10.9688 16.4927 10.9688 16.727H6.96875ZM38.3627 31.2724C38.3627 33.7159 36.3819 35.6967 33.9384 35.6967H11.393C8.94955 35.6967 6.96875 33.7159 6.96875 31.2724H10.9688C10.9688 31.5067 11.1587 31.6967 11.393 31.6967H18.3627C18.3627 31.6967 18.3627 31.5067 18.3627 31.2724H38.3627ZM11.393 35.6967C8.94955 35.6967 6.96875 33.7159 6.96875 31.2724V16.727C6.96875 14.2835 8.94955 12.3027 11.393 12.3027V16.3027C11.1587 16.3027 10.9688 16.4927 10.9688 16.727V31.2724C10.9688 31.5067 11.1587 31.6967 11.393 31.6967V35.6967ZM33.9384 12.3027C36.3819 12.3027 38.3627 14.2835 38.3627 16.727V31.2724C38.3627 33.7159 36.3819 35.6967 33.9384 35.6967L18.3627 31.6967C18.3627 31.6967 18.3627 31.5067 18.3627 31.2724V16.727C18.3627 16.4927 18.3627 16.3027 18.3627 16.3027L33.9384 12.3027Z" fill="#4054B2" mask="url(#path-1-outside-1_929_54575)"/>
<path d="M22.2852 23.4286C22.6007 23.4286 22.8566 23.6844 22.8566 24C22.8566 24.3156 22.6007 24.5714 22.2852 24.5714V24V23.4286ZM11.4738 24.4041C11.2506 24.1809 11.2506 23.8191 11.4738 23.5959L15.1103 19.9594C15.3335 19.7362 15.6953 19.7362 15.9184 19.9594C16.1416 20.1825 16.1416 20.5444 15.9184 20.7675L12.686 24L15.9184 27.2325C16.1416 27.4556 16.1416 27.8175 15.9184 28.0406C15.6953 28.2638 15.3335 28.2638 15.1103 28.0406L11.4738 24.4041ZM22.2852 24V24.5714H11.8778V24V23.4286H22.2852V24Z" fill="#4054B2"/>
<path d="M24.1028 23.6078C24.332 23.3909 24.6937 23.4007 24.9107 23.6299C25.1276 23.8591 25.1177 24.2208 24.8886 24.4377C24.6594 24.6547 24.2977 24.6448 24.0808 24.4156C23.8638 24.1865 23.8737 23.8248 24.1028 23.6078Z" fill="#4054B2"/>
</svg>
