<svg width="48" height="48" viewBox="0 0 48 48" fill="none" xmlns="http://www.w3.org/2000/svg">
<g clip-path="url(#clip0_782_22524)">
<rect x="17.3333" y="9.3335" width="13.3333" height="6.66667" fill="#E8EAF6"/>
<path d="M13.3333 16H34.6666V37.3333H13.3333V16Z" fill="#E8EAF6"/>
<path d="M32 14.6667H39.3333C39.7015 14.6667 40 14.9651 40 15.3333V16.6667C40 17.0349 39.7015 17.3333 39.3333 17.3333H36V28V38.3921C36 38.8164 35.8314 39.2234 35.5314 39.5234C35.2313 39.8235 34.8243 39.9921 34.4 39.9921H13.3333C12.909 39.9921 12.502 39.8235 12.202 39.5234C11.9019 39.2234 12 38.8243 12 38.4V17.3333H8.66667C8.29848 17.3333 8 17.0349 8 16.6667V15.3333C8 14.9651 8.29848 14.6667 8.66667 14.6667H16V9.6C16 9.17565 16.1686 8.76869 16.4686 8.46863C16.7687 8.16857 17.1757 8 17.6 8H30.4C30.8243 8 31.2313 8.16857 31.5314 8.46863C31.8314 8.76869 32 9.17565 32 9.6V14.6667ZM33.3333 17.3333H14.6667V37.3333H33.3333V17.3333ZM18.6667 10.6667V14.6667H29.3333V10.6667H18.6667Z" fill="#4054B2"/>
<path d="M22.6665 28.6665V23.3331C22.6665 22.9649 22.368 22.6664 21.9999 22.6665C21.6317 22.6665 21.3333 22.9649 21.3333 23.3331V28.6665C21.3333 29.0347 21.6318 29.3331 22 29.3331C22.3681 29.3331 22.6665 29.0347 22.6665 28.6665Z" fill="#4054B2"/>
<path d="M26.6666 31.3332V25.9999C26.6666 25.6317 26.3682 25.3333 26 25.3333C25.6318 25.3333 25.3333 25.6317 25.3333 25.9999V31.3332C25.3333 31.7014 25.6318 31.9998 26 31.9998C26.3682 31.9998 26.6666 31.7014 26.6666 31.3332Z" fill="#4054B2"/>
<path d="M25.5661 22.8608C25.8335 22.6077 26.2554 22.6192 26.5086 22.8866C26.7617 23.1539 26.7502 23.5759 26.4828 23.829C26.2154 24.0822 25.7935 24.0706 25.5404 23.8033C25.2872 23.5359 25.2987 23.114 25.5661 22.8608Z" fill="#4054B2"/>
<path d="M21.5317 30.823C21.7991 30.5698 22.221 30.5814 22.4741 30.8487C22.7273 31.1161 22.7157 31.5381 22.4484 31.7912C22.181 32.0443 21.7591 32.0328 21.5059 31.7654C21.2528 31.4981 21.2643 31.0761 21.5317 30.823Z" fill="#4054B2"/>
</g>
<defs>
<clipPath id="clip0_782_22524">
<rect width="32" height="32" fill="white" transform="translate(8 8)"/>
</clipPath>
</defs>
</svg>
