<svg width="32" height="30" viewBox="0 0 32 30" fill="none" xmlns="http://www.w3.org/2000/svg">
<path d="M31.3667 4.12179L28.6556 1.41068C27.8111 0.566233 26.4389 0.566233 25.5889 1.41068L23.6222 3.37734C23.4111 3.58845 23.4111 3.9329 23.6222 4.14401L28.6333 9.15512C28.8444 9.36623 29.1889 9.36623 29.4 9.15512L31.3667 7.18845C32.2111 6.33845 32.2111 4.96623 31.3667 4.12179Z" fill="#4054B2"/>
<path fill-rule="evenodd" clip-rule="evenodd" d="M22.3667 5.39401L27.3778 10.4051C27.5889 10.6162 27.5889 10.9607 27.3778 11.1718L15.2444 23.3051L14 20.9995L11.3333 18.3328L9.46667 17.5273L21.6 5.39401C21.8111 5.1829 22.1556 5.1829 22.3667 5.39401ZM22.6667 17.6662L22.5976 25.6777C22.5913 26.4095 21.9963 26.9995 21.2644 26.9995H4C3.26362 26.9995 2.66667 26.4026 2.66667 25.6662V8.32734C2.66667 7.59096 3.26362 6.99401 4 6.99401H17.6135C17.7912 6.99401 18.6667 6.99401 18.6667 6.99401L20.35 5.46623C20.7722 5.04401 20.4722 4.32734 19.8778 4.32734H2.66667C1.19444 4.32734 0 5.52179 0 6.99401V26.5496C0 28.0218 1.19444 29.6662 2.66667 29.6662H22.2222C23.6944 29.6662 25.3333 28.0218 25.3333 26.5496V16.4496C25.3333 15.8551 24.4222 15.2495 24 15.6662L22.8611 17.194C22.7389 17.3217 22.6667 17.4884 22.6667 17.6662Z" fill="#4054B2"/>
<path d="M11.3333 18.3328L9.46667 17.5273L8.96363 22.0595C10.2679 22.3742 10.8366 23.3382 10.9579 23.7809L15.2444 23.3051L14 20.9995L11.3333 18.3328Z" fill="white"/>
<path d="M8.66667 24.3328L10.9579 23.7809C10.8366 23.3382 10.2679 22.3742 8.96363 22.0595L8.66667 24.3328Z" fill="#4054B2"/>
</svg>
