<svg width="607" height="291" viewBox="0 0 607 291" fill="none" xmlns="http://www.w3.org/2000/svg">
<g opacity="0.8">
<g clip-path="url(#clip0_1157_17911)">
<path d="M43.5232 224.99C43.5232 224.99 40.2387 244.9 54.665 255.347C68.7126 265.52 76.9487 278.115 76.9487 290.709H174.8C174.8 290.709 183.035 271.334 166.081 255.833C149.127 240.33 152.033 224.99 152.033 224.99H43.5232Z" fill="#9FA8DA"/>
<path d="M152.033 224.99H43.5234C43.5234 224.99 42.3004 232.443 44.6486 240.619C52.8757 235.905 65.0225 233.285 78.4012 244.205C102.137 263.581 112.31 259.706 130.233 245.659C138.858 238.896 145.914 235.738 153.071 235.995C151.193 229.454 152.033 224.99 152.033 224.99Z" fill="#C5CAE9"/>
<path opacity="0.45" d="M79.3697 255.832C76.2459 255.832 76.2459 260.676 79.3697 260.676C82.4935 260.676 82.4935 255.832 79.3697 255.832Z" fill="#4054B2"/>
<path opacity="0.45" d="M116.186 278.114C113.062 278.114 113.062 282.959 116.186 282.959C119.309 282.959 119.309 278.114 116.186 278.114Z" fill="#4054B2"/>
<path opacity="0.45" d="M147.188 248.564C144.064 248.564 144.064 253.409 147.188 253.409C150.311 253.409 150.311 248.564 147.188 248.564Z" fill="#4054B2"/>
<path d="M147.672 277.63C144.549 277.63 144.549 282.475 147.672 282.475C150.796 282.474 150.796 277.63 147.672 277.63Z" fill="white"/>
<path d="M31.4717 215.556C31.4717 217.212 32.8138 218.554 34.4696 218.554C36.1253 218.554 37.4675 217.212 37.4675 215.556V166.506C37.4675 164.849 36.1253 163.508 34.4696 163.508C32.8138 163.508 31.4717 164.849 31.4717 166.506V215.556Z" fill="#A47C50"/>
<path d="M443.273 137.532V185.906C443.273 204.128 448.505 202.441 513.138 199.973V208.359C445.695 208.359 435.845 213.12 435.845 187.587V81.6035H443.441C443.333 82.6736 443.273 136.431 443.273 137.532Z" fill="#9FA8DA"/>
<path d="M512.578 208.624L514.012 202.314C509.077 202.314 505.215 201.794 502.538 199.911L502.461 199.973L495.717 208.545C495.717 208.545 507.417 208.529 512.578 208.624Z" fill="#5C6BC0"/>
<path d="M505.527 192.478H505.18C503.402 192.478 501.962 193.778 501.962 195.383V210.553C501.962 212.157 503.403 213.457 505.18 213.457H505.527V192.478Z" fill="#90A4AE"/>
<path d="M436.035 104.063L436.058 104.083L443.365 110.045C443.392 99.6105 443.428 90.8876 443.471 90.4639L436.036 90.5956V104.063H436.035Z" fill="#5C6BC0"/>
<path d="M599.508 215.05V176.373C599.143 176.293 598.776 176.219 598.408 176.147C598.202 176.618 597.976 176.943 597.739 176.943H555.942L531.043 143.923L506.878 173.696C506.103 173.883 505.525 174.576 505.525 175.408V215.05H599.508Z" fill="#9FA8DA"/>
<path d="M599.508 215.05V176.372C599.143 176.293 598.776 176.218 598.408 176.146C598.202 176.617 597.976 176.942 597.739 176.942H555.95L553.248 178.355V215.051L599.508 215.05Z" fill="#7986CB"/>
<path d="M594.07 206.001H582.454V215.05H594.07V206.001Z" fill="#C5CAE9"/>
<path d="M279.433 122.109V73.7357C279.433 64.8891 282.551 61.4236 288.325 60.2263C290.324 59.8117 371.7 59.8744 374.317 59.8744V51.4888C371.875 51.4888 290.493 51.3161 288.325 51.4891C278.593 52.2658 272.006 55.8718 272.006 72.0552V125.364H279.602C279.493 124.294 279.433 123.211 279.433 122.109Z" fill="#9FA8DA"/>
<path d="M140.567 247.734V199.362C140.567 187.451 146.218 186.883 156.392 186.883V176.908C142.989 176.908 133.139 177.892 133.139 197.679V250.989H140.735C140.627 249.92 140.567 248.835 140.567 247.734Z" fill="#9FA8DA"/>
<path d="M140.406 224.668L133.139 218.752V228.902C136.557 227.782 140.406 224.668 140.406 224.668Z" fill="#5C6BC0"/>
<path d="M154.471 186.894C154.595 186.892 154.722 186.891 154.848 186.89C155.145 186.486 155.702 185.718 156.392 184.731V176.908C154.122 176.908 151.957 176.939 149.92 177.081L154.471 186.894Z" fill="#5C6BC0"/>
<path d="M369.82 59.8278C370.4 59.7182 370.98 59.8734 371.613 59.8278L378.872 57.7818L379.662 51.8814C374.699 51.2168 370.645 51.4592 366.395 51.4592L369.82 59.8278Z" fill="#5C6BC0"/>
<path d="M272.004 124.618C272.091 124.853 272.182 125.1 272.282 125.364H279.601C279.493 124.295 279.432 123.21 279.432 122.109V117.194L272.004 121.792V124.618Z" fill="#5C6BC0"/>
<path d="M286.376 129.734C286.376 131.51 285.075 132.951 283.471 132.951H268.301C266.697 132.951 265.396 131.51 265.396 129.734V126.158C265.396 124.381 266.697 122.94 268.301 122.94H283.471C285.075 122.94 286.376 124.381 286.376 126.158V129.734Z" fill="#90A4AE"/>
<path d="M164.142 195.765C164.142 197.371 162.84 198.672 161.236 198.672H157.36C155.755 198.672 154.453 197.371 154.453 195.765V167.184C154.453 165.578 155.755 164.277 157.36 164.277H161.236C162.841 164.277 164.142 165.578 164.142 167.184V195.765Z" fill="#90A4AE"/>
<path d="M304.137 213.364V135.858C304.137 134.253 302.836 132.952 301.231 132.952H163.653C162.048 132.952 160.746 134.253 160.746 135.858V213.364H304.137Z" fill="#9FA8DA"/>
<path d="M301.23 132.952H292.026C293.632 132.952 294.933 134.253 294.933 135.858V222.084C294.933 223.69 293.632 224.991 292.026 224.991H301.23C302.835 224.991 304.137 223.69 304.137 222.084V135.858C304.137 134.253 302.837 132.952 301.23 132.952Z" fill="#7986CB"/>
<path d="M304.137 150.23V137.34L160.751 146.838L304.137 150.23Z" fill="#4054B2"/>
<path d="M308.658 143.931C308.658 145.537 307.356 146.838 305.752 146.838H157.193C155.588 146.838 154.287 145.537 154.287 143.931V131.013C154.287 129.408 155.588 128.107 157.193 128.107H305.752C307.357 128.107 308.658 129.408 308.658 131.013V143.931Z" fill="#5C6BC0"/>
<path d="M171.897 143.931V131.013C171.897 129.408 173.199 128.107 174.804 128.107H157.193C155.588 128.107 154.287 129.408 154.287 131.013V143.931C154.287 145.537 155.588 146.838 157.193 146.838H174.804C173.198 146.838 171.897 145.537 171.897 143.931Z" fill="#5C6BC0"/>
<path d="M305.753 128.107H287.345C288.95 128.107 290.25 129.408 290.25 131.013V143.931C290.25 145.537 288.949 146.838 287.345 146.838H305.753C307.358 146.838 308.658 145.537 308.658 143.931V131.013C308.658 129.408 307.358 128.107 305.753 128.107Z" fill="#4054B2"/>
<path d="M285.03 187.891C285.03 197.988 276.845 206.176 266.747 206.176C256.65 206.176 248.464 197.989 248.464 187.891C248.464 177.795 256.649 169.608 266.747 169.608C276.845 169.608 285.03 177.794 285.03 187.891Z" fill="white"/>
<path d="M275.512 191.178C275.512 196.02 271.587 199.945 266.747 199.945C261.907 199.945 257.981 196.02 257.981 191.178C257.981 186.336 266.747 175.838 266.747 175.838C266.747 175.838 275.512 186.337 275.512 191.178Z" fill="#7986CB"/>
<path d="M76.9295 290.261C76.7362 277.815 68.5462 265.399 54.6638 255.346C43.522 242.908 43.522 231.734 43.522 231.734V224.627C43.522 223.021 42.5418 224.627 40.9355 224.627H-21.8013C-23.4065 224.627 -24.707 225.928 -24.707 227.534V287.318C-24.707 288.289 -24.2259 289.145 -23.4942 289.672C-22.9658 290.395 -22.1172 290.868 -21.1538 290.868H76.6316C76.717 290.659 76.816 290.456 76.9295 290.261Z" fill="#DEB995"/>
<path d="M761.661 217.883H152.674C151.069 217.883 149.768 219.183 149.768 220.79V224.989H152.032C152.032 224.989 149.125 240.328 166.08 255.832C183.034 271.333 174.799 290.708 174.799 290.708H174.681C174.68 290.762 174.679 290.815 174.678 290.868H761.661C763.268 290.868 764.568 289.567 764.568 287.961V220.79C764.568 219.184 763.268 217.883 761.661 217.883Z" fill="#DEB995"/>
<path d="M768.124 222.083C768.124 223.689 766.823 224.99 765.217 224.99H152.497C150.892 224.99 149.59 223.689 149.59 222.083V216.27C149.59 214.664 150.892 213.363 152.497 213.363H765.217C766.823 213.363 768.124 214.664 768.124 216.27V222.083Z" fill="#49B97A"/>
<path d="M205.958 213.364V174.288C205.958 172.681 204.657 171.381 203.052 171.381H180.445C178.84 171.381 177.54 172.681 177.54 174.288V213.364H205.958Z" fill="#4054B2"/>
<path d="M46.0869 222.393C46.0869 225.485 43.0666 225.485 39.342 225.485H-23.6078C-27.3324 225.485 -30.3501 224.102 -30.3501 222.393V216.212C-30.3501 214.503 -27.3298 213.12 -23.6078 213.12H39.3394C43.064 213.12 46.0843 213.12 46.0843 216.212L46.0869 222.393Z" fill="#49B97A"/>
<path d="M764.568 247.594H158.751C160.646 250.276 163.038 253.05 166.08 255.831C168.434 257.982 170.287 260.21 171.76 262.45H764.568V247.594Z" fill="#D8AF82"/>
<path d="M-26.9551 262.45H63.5104C60.9936 259.983 57.6337 256.966 54.5178 254.711C51.7076 251.901 50.57 250.421 48.8974 247.596H-26.9551V262.45Z" fill="#D8AF82"/>
<path d="M207.255 160.08C207.255 161.686 205.953 162.987 204.349 162.987H179.805C178.199 162.987 176.899 161.686 176.899 160.08C176.899 158.473 178.201 157.173 179.805 157.173H204.349C205.954 157.173 207.255 158.473 207.255 160.08Z" fill="#4054B2"/>
<path d="M186.426 196.734C188.299 196.734 189.817 195.215 189.817 193.343C189.817 191.47 188.299 189.951 186.426 189.951C184.553 189.951 183.034 191.47 183.034 193.343C183.034 195.215 184.553 196.734 186.426 196.734Z" fill="white"/>
<path d="M230.501 213.363V275.045C230.501 276.65 231.803 277.951 233.408 277.951H360.33C361.935 277.951 363.237 276.65 363.237 275.045V213.363H230.501Z" fill="#90A4AE"/>
<path d="M230.501 213.363V275.045C230.501 276.65 231.803 277.951 233.408 277.951H360.33C361.935 277.951 363.237 276.65 363.237 275.045V213.363H230.501Z" fill="#8198A4"/>
<path d="M399.697 215.4V210.586H412.253C412.286 210.586 412.313 210.57 412.344 210.568V215.4H415.242V194.107V184.176V146.924V136.993V89.8101C415.242 89.003 414.595 88.3488 413.794 88.3488C412.993 88.3488 412.344 89.003 412.344 89.8101V97.6561C412.313 97.6539 412.286 97.6381 412.253 97.6381H399.697V89.809C399.697 89.0019 399.049 88.3477 398.247 88.3477C397.447 88.3477 396.798 89.0019 396.798 89.809V136.992V146.923V184.175V194.106V215.398H399.697V215.4ZM399.697 100.293H412.253C412.286 100.293 412.313 100.277 412.344 100.275V105.621C412.313 105.619 412.286 105.603 412.253 105.603H399.697V100.293ZM399.697 108.257H412.253C412.286 108.257 412.313 108.242 412.344 108.239V113.583C412.313 113.581 412.286 113.565 412.253 113.565H399.697V108.257ZM399.697 116.221H412.253C412.286 116.221 412.313 116.206 412.344 116.203V121.546C412.313 121.544 412.286 121.528 412.253 121.528H399.697V116.221ZM399.697 124.184H412.253C412.286 124.184 412.313 124.169 412.344 124.166V129.511C412.313 129.509 412.286 129.492 412.253 129.492H399.697V124.184ZM399.697 136.993V132.147H412.253C412.286 132.147 412.313 132.131 412.344 132.129V136.992V137.473C412.313 137.471 412.286 137.455 412.253 137.455H399.697V136.993ZM399.697 140.11H412.253C412.286 140.11 412.313 140.093 412.344 140.091V144.839C412.313 144.837 412.286 144.821 412.253 144.821H399.697V140.11ZM399.697 147.476H412.253C412.286 147.476 412.313 147.46 412.344 147.458V152.804C412.313 152.802 412.286 152.785 412.253 152.785H399.697V147.476ZM399.697 155.44H412.253C412.286 155.44 412.313 155.425 412.344 155.422V160.766C412.313 160.764 412.286 160.748 412.253 160.748H399.697V155.44ZM399.697 163.404H412.253C412.286 163.404 412.313 163.387 412.344 163.385V168.729C412.313 168.727 412.286 168.711 412.253 168.711H399.697V163.404ZM399.697 171.367H412.253C412.286 171.367 412.313 171.352 412.344 171.349V176.694C412.313 176.691 412.286 176.675 412.253 176.675H399.697V171.367ZM399.697 184.176V179.33H412.253C412.286 179.33 412.313 179.314 412.344 179.312V184.175V184.656C412.313 184.654 412.286 184.638 412.253 184.638H399.697V184.176ZM399.697 187.292H412.253C412.286 187.292 412.313 187.276 412.344 187.274V192.022C412.313 192.02 412.286 192.004 412.253 192.004H399.697V187.292ZM399.697 194.659H412.253C412.286 194.659 412.313 194.643 412.344 194.641V199.986C412.313 199.984 412.286 199.968 412.253 199.968H399.697V194.659ZM399.697 202.623H412.253C412.286 202.623 412.313 202.608 412.344 202.605V207.949C412.313 207.947 412.286 207.931 412.253 207.931H399.697V202.623Z" fill="#90A4AE"/>
<path d="M303.653 224.343V213.362H237.605V268.448C237.605 269.692 238.615 270.701 239.859 270.701H352.095C353.339 270.701 354.348 269.693 354.348 268.448V224.343H303.653Z" fill="#9FA8DA"/>
<path d="M354.348 224.343H303.653V213.362H237.605V234.761C247.25 232.122 258.213 231.654 267.323 237.906C292.028 254.861 304.138 255.345 317.701 249.047C330.717 243.005 337.931 233.778 354.348 235.731V224.343Z" fill="#C5CAE9"/>
<path d="M150 229.999C150 232.762 148.437 235 146.509 235H128.491C126.562 235 125 232.762 125 229.999C125 227.238 126.563 225 128.491 225H146.509C148.438 224.999 150 227.238 150 229.999Z" fill="#5C6BC0"/>
<path d="M237.18 213.12V224.101H303.227V213.12H237.18ZM240.361 222.445C239.61 222.445 239.002 221.837 239.002 221.088C239.002 220.337 239.61 219.729 240.361 219.729C241.112 219.729 241.72 220.337 241.72 221.088C241.72 221.837 241.112 222.445 240.361 222.445ZM240.361 217.281C239.61 217.281 239.002 216.673 239.002 215.921C239.002 215.17 239.61 214.562 240.361 214.562C241.112 214.562 241.72 215.17 241.72 215.921C241.72 216.673 241.112 217.281 240.361 217.281ZM244.167 219.999C243.417 219.999 242.809 219.39 242.809 218.64C242.809 217.89 243.417 217.281 244.167 217.281C244.919 217.281 245.527 217.89 245.527 218.64C245.526 219.39 244.918 219.999 244.167 219.999ZM247.837 222.445C247.087 222.445 246.478 221.837 246.478 221.088C246.478 220.337 247.087 219.729 247.837 219.729C248.588 219.729 249.196 220.337 249.196 221.088C249.196 221.837 248.588 222.445 247.837 222.445ZM247.837 217.281C247.087 217.281 246.478 216.673 246.478 215.921C246.478 215.17 247.087 214.562 247.837 214.562C248.588 214.562 249.196 215.17 249.196 215.921C249.196 216.673 248.588 217.281 247.837 217.281ZM251.643 219.999C250.891 219.999 250.283 219.39 250.283 218.64C250.283 217.89 250.891 217.281 251.643 217.281C252.394 217.281 253.003 217.89 253.003 218.64C253.003 219.39 252.394 219.999 251.643 219.999ZM255.313 222.445C254.562 222.445 253.954 221.837 253.954 221.088C253.954 220.337 254.562 219.729 255.313 219.729C256.065 219.729 256.673 220.337 256.673 221.088C256.672 221.837 256.064 222.445 255.313 222.445ZM255.313 217.281C254.562 217.281 253.954 216.673 253.954 215.921C253.954 215.17 254.562 214.562 255.313 214.562C256.065 214.562 256.673 215.17 256.673 215.921C256.672 216.673 256.064 217.281 255.313 217.281ZM259.118 219.999C258.368 219.999 257.759 219.39 257.759 218.64C257.759 217.89 258.368 217.281 259.118 217.281C259.869 217.281 260.478 217.89 260.478 218.64C260.478 219.39 259.869 219.999 259.118 219.999ZM262.789 222.445C262.039 222.445 261.43 221.837 261.43 221.088C261.43 220.337 262.039 219.729 262.789 219.729C263.54 219.729 264.15 220.337 264.15 221.088C264.148 221.837 263.54 222.445 262.789 222.445ZM262.789 217.281C262.039 217.281 261.43 216.673 261.43 215.921C261.43 215.17 262.039 214.562 262.789 214.562C263.54 214.562 264.15 215.17 264.15 215.921C264.148 216.673 263.54 217.281 262.789 217.281ZM266.594 219.999C265.844 219.999 265.235 219.39 265.235 218.64C265.235 217.89 265.844 217.281 266.594 217.281C267.345 217.281 267.953 217.89 267.953 218.64C267.955 219.39 267.346 219.999 266.594 219.999ZM270.266 222.445C269.515 222.445 268.906 221.837 268.906 221.088C268.906 220.337 269.515 219.729 270.266 219.729C271.017 219.729 271.626 220.337 271.626 221.088C271.625 221.837 271.015 222.445 270.266 222.445ZM270.266 217.281C269.515 217.281 268.906 216.673 268.906 215.921C268.906 215.17 269.515 214.562 270.266 214.562C271.017 214.562 271.626 215.17 271.626 215.921C271.625 216.673 271.015 217.281 270.266 217.281ZM274.072 219.999C273.321 219.999 272.713 219.39 272.713 218.64C272.713 217.89 273.321 217.281 274.072 217.281C274.822 217.281 275.43 217.89 275.43 218.64C275.43 219.39 274.822 219.999 274.072 219.999ZM277.741 222.445C276.99 222.445 276.382 221.837 276.382 221.088C276.382 220.337 276.99 219.729 277.741 219.729C278.492 219.729 279.1 220.337 279.1 221.088C279.1 221.837 278.492 222.445 277.741 222.445ZM277.741 217.281C276.99 217.281 276.382 216.673 276.382 215.921C276.382 215.17 276.99 214.562 277.741 214.562C278.492 214.562 279.1 215.17 279.1 215.921C279.1 216.673 278.492 217.281 277.741 217.281ZM281.547 219.999C280.796 219.999 280.187 219.39 280.187 218.64C280.187 217.89 280.796 217.281 281.547 217.281C282.298 217.281 282.907 217.89 282.907 218.64C282.907 219.39 282.298 219.999 281.547 219.999ZM285.217 222.445C284.466 222.445 283.857 221.837 283.857 221.088C283.857 220.337 284.465 219.729 285.217 219.729C285.968 219.729 286.576 220.337 286.576 221.088C286.576 221.837 285.968 222.445 285.217 222.445ZM285.217 217.281C284.466 217.281 283.857 216.673 283.857 215.921C283.857 215.17 284.465 214.562 285.217 214.562C285.968 214.562 286.576 215.17 286.576 215.921C286.576 216.673 285.968 217.281 285.217 217.281ZM289.023 219.999C288.272 219.999 287.663 219.39 287.663 218.64C287.663 217.89 288.272 217.281 289.023 217.281C289.774 217.281 290.382 217.89 290.382 218.64C290.382 219.39 289.774 219.999 289.023 219.999ZM292.693 222.445C291.942 222.445 291.334 221.837 291.334 221.088C291.334 220.337 291.943 219.729 292.693 219.729C293.443 219.729 294.052 220.337 294.052 221.088C294.052 221.837 293.444 222.445 292.693 222.445ZM292.693 217.281C291.942 217.281 291.334 216.673 291.334 215.921C291.334 215.17 291.943 214.562 292.693 214.562C293.443 214.562 294.052 215.17 294.052 215.921C294.052 216.673 293.444 217.281 292.693 217.281ZM296.499 219.999C295.748 219.999 295.14 219.39 295.14 218.64C295.14 217.89 295.748 217.281 296.499 217.281C297.25 217.281 297.858 217.89 297.858 218.64C297.858 219.39 297.25 219.999 296.499 219.999ZM300.168 222.445C299.417 222.445 298.809 221.837 298.809 221.088C298.809 220.337 299.419 219.729 300.168 219.729C300.919 219.729 301.528 220.337 301.528 221.088C301.528 221.837 300.919 222.445 300.168 222.445ZM300.168 217.281C299.417 217.281 298.809 216.673 298.809 215.921C298.809 215.17 299.419 214.562 300.168 214.562C300.919 214.562 301.528 215.17 301.528 215.921C301.528 216.673 300.919 217.281 300.168 217.281Z" fill="white"/>
<path d="M28.1359 216.211C28.1359 216.211 16.7299 206.407 20.3438 202.575C24.3556 198.32 33.3482 211.809 33.3482 211.809C33.3482 211.809 40.9166 199.519 43.8392 202.441C47.7656 206.368 39.3429 216.211 39.3429 216.211H28.1359Z" fill="#49B97A"/>
<path d="M531.044 140.29H576.66C576.66 140.29 581.747 140.532 584.169 144.65C587.763 150.761 599.913 175.006 599.913 175.006H556.558L531.044 140.29Z" fill="#C5CAE9"/>
<path d="M572.914 146.286C572.914 146.286 578.001 146.528 580.423 150.646C582.874 154.813 589.302 167.412 593.144 175.006H599.912C599.912 175.006 587.762 150.761 584.168 144.65C581.747 140.532 576.66 140.29 576.66 140.29H531.043L535.45 146.286H572.914Z" fill="#5C6BC0"/>
<path d="M542.995 213.926V195.674C542.995 189.966 537.645 185.341 531.045 185.341C524.445 185.341 519.096 189.966 519.096 195.674V213.926H542.995Z" fill="#4054B2"/>
<path d="M503.592 182.273C502.863 182.273 502.129 182.039 501.509 181.555C500.032 180.404 499.769 178.272 500.921 176.796L528.37 141.596C529.013 140.773 530 140.291 531.044 140.291C531.05 140.291 531.056 140.291 531.062 140.291C532.113 140.297 533.102 140.788 533.741 141.623L557.622 172.907H597.249C599.122 172.907 600.64 174.426 600.64 176.299C600.64 178.17 599.122 179.69 597.249 179.69H555.945C554.889 179.69 553.891 179.197 553.25 178.357L531.017 149.234L506.27 180.968C505.6 181.823 504.6 182.273 503.592 182.273Z" fill="#5C6BC0"/>
<path d="M527.816 202.132C527.816 203.739 526.515 205.039 524.91 205.039C523.304 205.039 522.003 203.739 522.003 202.132C522.003 200.527 523.304 199.227 524.91 199.227C526.514 199.227 527.816 200.527 527.816 202.132Z" fill="white"/>
<path d="M537.492 170.405C537.492 173.924 534.639 176.775 531.121 176.775C527.603 176.775 524.75 173.924 524.75 170.405C524.75 166.887 527.602 164.035 531.121 164.035C534.639 164.035 537.492 166.887 537.492 170.405Z" fill="white"/>
<path d="M594.07 206.001C594.07 209.21 591.469 211.81 588.262 211.81C585.055 211.81 582.454 209.208 582.454 206.001C582.454 202.794 585.055 200.193 588.262 200.193C591.47 200.193 594.07 202.794 594.07 206.001Z" fill="#4054B2"/>
<path d="M555.323 217.898C555.323 217.898 544.608 208.645 547.53 204.261C550.452 199.879 559.218 214.002 559.218 214.002C559.218 214.002 565.061 201.339 567.983 204.261C571.911 208.188 562.14 217.898 562.14 217.898H555.323Z" fill="#49B97A"/>
<path d="M52.0592 165.095C53.0181 163.53 53.5812 161.696 53.5812 159.727C53.5812 154.035 48.968 149.423 43.278 149.423C42.726 149.423 42.1887 149.479 41.6593 149.562C39.1998 145.124 34.472 142.117 29.0393 142.117C21.073 142.117 14.6141 148.575 14.6141 156.542C14.6141 159.644 15.6021 162.51 17.268 164.862C13.662 167.022 11.2407 170.955 11.2407 175.464C11.2407 182.293 16.7768 187.829 23.6055 187.829C28.2952 187.829 32.3756 185.218 34.4708 181.37C36.5661 185.218 40.6465 187.83 45.3373 187.83C52.166 187.83 57.7021 182.294 57.7021 175.465C57.7021 171.117 55.4528 167.3 52.0592 165.095Z" fill="#49B97A"/>
<path d="M254.418 248.152C254.418 249.808 253.076 251.15 251.42 251.15C249.765 251.15 248.422 249.808 248.422 248.152C248.422 246.496 249.765 245.154 251.42 245.154C253.077 245.154 254.418 246.496 254.418 248.152Z" fill="#C5CAE9"/>
<path d="M297.509 238.784C297.509 240.233 296.335 241.406 294.886 241.406C293.437 241.406 292.264 240.233 292.264 238.784C292.264 237.336 293.437 236.161 294.886 236.161C296.334 236.161 297.509 237.336 297.509 238.784Z" fill="#9FA8DA"/>
<path d="M336.101 254.895C336.101 256.966 334.423 258.643 332.355 258.643C330.287 258.643 328.608 256.966 328.608 254.895C328.608 252.826 330.287 251.148 332.355 251.148C334.423 251.148 336.101 252.826 336.101 254.895Z" fill="#C5CAE9"/>
<path d="M284.393 256.769C284.393 258.217 283.219 259.391 281.77 259.391C280.321 259.391 279.148 258.217 279.148 256.769C279.148 255.321 280.321 254.146 281.77 254.146C283.219 254.146 284.393 255.321 284.393 256.769Z" fill="#C5CAE9"/>
<path d="M364.126 215.965L388.373 75.3243H447.789L471.508 215.965H474.801L450.266 70.4795H385.91L360.828 215.965H364.126Z" fill="#90A4AE"/>
<path d="M446.335 92.9931C446.335 94.7692 445.035 96.2102 443.431 96.2102H428.26C426.656 96.2102 425.355 94.7692 425.355 92.9931V89.4163C425.355 87.6403 426.656 86.1992 428.26 86.1992H443.431C445.035 86.1992 446.335 87.6403 446.335 89.4163V92.9931Z" fill="#90A4AE"/>
<path d="M385.931 80.6523L383.993 90.6645H451.811L449.873 80.6523H385.931Z" fill="#90A4AE"/>
<path d="M374.943 68.6166C373.166 68.6166 371.726 67.316 371.726 65.712V50.5415C371.726 48.9374 373.167 47.6357 374.943 47.6357H378.519C380.296 47.6357 381.737 48.9363 381.737 50.5415V65.712C381.737 67.316 380.296 68.6166 378.519 68.6166H374.943Z" fill="#90A4AE"/>
<path d="M396.363 43.5962C396.363 45.0575 395.148 46.2422 393.651 46.2422H384.609C383.112 46.2422 381.896 45.0575 381.896 43.5962V22.4254C381.896 20.9641 383.112 19.7793 384.609 19.7793H393.651C395.148 19.7793 396.363 20.9641 396.363 22.4254V43.5962Z" fill="#5C6BC0"/>
<path d="M458.969 76.5165C458.969 77.6923 457.905 79.2559 456.563 79.9528C433.011 91.9815 403.116 91.9815 379.563 79.9528C378.222 79.2559 377.159 77.6923 377.159 76.5165C377.159 62.4813 377.159 48.4462 377.159 34.411C377.159 33.2363 378.221 31.6716 379.563 30.9747C403.116 18.9459 433.011 18.9459 456.563 30.9747C457.904 31.6716 458.969 33.2341 458.969 34.411C458.969 48.4462 458.969 62.4813 458.969 76.5165Z" fill="#C5CAE9"/>
<path opacity="0.55" d="M452.673 33.3379C431.501 22.6738 404.627 22.6738 383.455 33.3379C382.248 33.9539 381.294 35.341 381.293 36.383C381.293 48.8254 381.293 61.2667 381.293 73.7102C381.294 74.7522 382.248 76.1393 383.455 76.7553C404.627 87.4194 431.501 87.4194 452.673 76.7553C453.879 76.1393 454.834 74.7522 454.834 73.7102C454.834 61.2678 454.834 48.8254 454.834 36.383C454.834 35.3399 453.879 33.9539 452.673 33.3379ZM451.901 72.2196C451.901 73.1796 451.02 74.4543 449.911 75.0219C430.429 84.8351 405.699 84.8351 386.215 75.0219C385.106 74.4554 384.228 73.1785 384.227 72.2196C384.227 60.7698 384.227 49.3222 384.227 37.8724C384.227 36.9136 385.106 35.6366 386.215 35.0701C405.699 25.2569 430.429 25.2569 449.911 35.0701C451.02 35.6378 451.901 36.9136 451.901 37.8724C451.901 49.3222 451.901 60.7698 451.901 72.2196Z" fill="#4054B2"/>
<path d="M449.911 35.0698C430.429 25.2567 405.699 25.2567 386.216 35.0698C385.106 35.6364 384.228 36.9133 384.227 37.8721C384.227 49.322 384.227 60.7695 384.227 72.2194C384.227 73.1793 385.106 74.4551 386.216 75.0217C405.699 84.8348 430.429 84.8348 449.911 75.0217C451.021 74.454 451.901 73.1782 451.901 72.2194C451.901 60.7695 451.901 49.322 451.901 37.8721C451.901 36.9122 451.021 35.6375 449.911 35.0698Z" fill="#E8EAF6"/>
<path d="M420.475 55.8202C405.429 59.6386 398.104 49.3489 384.227 48.1787C384.227 56.1922 384.227 64.2057 384.227 72.2193C384.227 73.1792 385.106 74.4551 386.216 75.0216C405.699 84.8348 430.429 84.8348 449.911 75.0216C451.021 74.4539 451.901 73.1781 451.901 72.2193C451.901 65.4951 451.901 58.7686 451.901 52.0444C437.333 45.6979 430.983 53.1539 420.475 55.8202Z" fill="#9FA8DA"/>
<path d="M458.43 90.6242C458.43 91.5381 457.69 92.2777 456.775 92.2777H379.364C378.45 92.2777 377.709 91.537 377.709 90.6242C377.709 89.7115 378.45 88.9707 379.364 88.9707H456.775C457.69 88.9718 458.43 89.7115 458.43 90.6242Z" fill="#90A4AE"/>
<path d="M399.392 70.8996C400.633 70.8996 401.64 69.8931 401.64 68.6515C401.64 67.4099 400.633 66.4033 399.392 66.4033C398.15 66.4033 397.144 67.4099 397.144 68.6515C397.144 69.8931 398.15 70.8996 399.392 70.8996Z" fill="#C5CAE9"/>
<path d="M419.624 46.1703C419.624 47.6193 418.45 48.7939 417 48.7939C415.553 48.7939 414.378 47.6193 414.378 46.1703C414.378 44.7214 415.551 43.5479 417 43.5479C418.45 43.5479 419.624 44.7225 419.624 46.1703Z" fill="#9FA8DA"/>
<path d="M423.401 72.9839C425.677 72.9839 427.521 71.1389 427.521 68.863C427.521 66.5872 425.677 64.7422 423.401 64.7422C421.125 64.7422 419.28 66.5872 419.28 68.863C419.28 71.1389 421.125 72.9839 423.401 72.9839Z" fill="#C5CAE9"/>
<path d="M19.7981 167.033C19.7981 167.033 11.5774 171.506 15.8377 180.582C20.0979 189.657 31.8965 186.065 34.8461 180.82" stroke="#0A523A" stroke-opacity="0.28" stroke-width="1.79852" stroke-miterlimit="10" stroke-linecap="round" stroke-linejoin="round"/>
<path d="M27.6294 172.765C27.6294 172.765 30.6273 184.755 40.3685 177.261" stroke="#0A523A" stroke-opacity="0.28" stroke-width="1.79852" stroke-miterlimit="10" stroke-linecap="round" stroke-linejoin="round"/>
<path d="M104.936 85.8633C104.622 88.6836 103.517 89.1748 102.222 89.1748C100.926 89.1748 99.9304 88.6825 100.245 85.8633C100.558 83.043 103.358 78.9648 103.358 78.9648C103.358 78.9648 105.249 83.043 104.936 85.8633Z" fill="#C5CAE9"/>
<path d="M114.87 85.8633C114.556 88.6836 113.451 89.1748 112.156 89.1748C110.86 89.1748 109.864 88.6825 110.179 85.8633C110.492 83.043 113.292 78.9648 113.292 78.9648C113.292 78.9648 115.184 83.043 114.87 85.8633Z" fill="#C5CAE9"/>
<path d="M124.805 85.8633C124.491 88.6836 123.386 89.1748 122.091 89.1748C120.795 89.1748 119.799 88.6825 120.114 85.8633C120.427 83.043 123.226 78.9648 123.226 78.9648C123.226 78.9648 125.118 83.043 124.805 85.8633Z" fill="#C5CAE9"/>
<path d="M134.74 85.8633C134.426 88.6836 133.321 89.1748 132.026 89.1748C130.73 89.1748 129.734 88.6825 130.049 85.8633C130.362 83.043 133.161 78.9648 133.161 78.9648C133.161 78.9648 135.052 83.043 134.74 85.8633Z" fill="#C5CAE9"/>
<path d="M257.403 34.9733C257.502 34.5316 257.552 34.0752 257.552 33.6076C257.552 29.8543 254.274 26.8114 250.23 26.8114C249.548 26.8114 248.89 26.9047 248.263 27.0666C247.155 22.2611 242.557 18.6562 237.05 18.6562C231.351 18.6562 226.646 22.5197 225.752 27.5724C224.045 25.6143 221.443 24.3576 218.518 24.3576C213.793 24.3576 209.902 27.623 209.294 31.8518C208.54 31.5314 207.705 31.3493 206.823 31.3493C203.538 31.3493 200.875 33.82 200.875 36.8685C200.875 37.1619 200.907 37.4485 200.954 37.7284C198.49 38.5018 196.713 40.6634 196.713 43.2161C196.713 46.4175 199.503 49.0119 202.947 49.0119H217.877H233.495H255.49C259.728 49.0119 263.165 45.8172 263.165 41.8762C263.166 38.5501 260.715 35.7647 257.403 34.9733Z" fill="#E8EAF6"/>
<path d="M257.403 34.9725C257.502 34.5307 257.552 34.0743 257.552 33.6067C257.552 29.8534 254.274 26.8105 250.23 26.8105C249.548 26.8105 248.89 26.9038 248.263 27.0657C245.892 28.0998 244.453 30.2614 244.068 32.9412C243.141 32.5467 242.113 32.3219 241.025 32.3219C238.989 32.3219 237.15 33.093 235.823 34.3385C235.375 31.5227 232.955 29.3644 230.015 29.3644C226.756 29.3644 224.113 32.0071 224.113 35.2658C224.113 35.4985 224.155 35.72 224.182 35.9459C223.44 35.6357 222.617 35.4558 221.747 35.4558C218.464 35.4558 215.801 37.9265 215.801 40.975C215.801 41.2684 215.832 41.5539 215.88 41.8349C213.414 42.6083 211.638 44.771 211.638 47.3238C211.638 47.9105 211.733 48.476 211.908 49.011H228.911H233.496H255.491C259.729 49.011 263.166 45.8164 263.166 41.8754C263.166 38.5492 260.715 35.7638 257.403 34.9725Z" fill="#C5CAE9"/>
<path d="M148.368 54.0827C148.467 53.6409 148.517 53.1845 148.517 52.7169C148.517 48.9636 145.239 45.9208 141.195 45.9208C140.513 45.9208 139.855 46.0141 139.228 46.1759C138.119 41.3705 133.522 37.7656 128.015 37.7656C122.316 37.7656 117.611 41.6279 116.717 46.6818C115.01 44.7236 112.407 43.4669 109.483 43.4669C104.758 43.4669 100.866 46.7324 100.258 50.9611C99.5052 50.6408 98.67 50.4587 97.7877 50.4587C94.5031 50.4587 91.8402 52.9294 91.8402 55.9779C91.8402 56.2713 91.8717 56.5579 91.9189 56.8378C89.4549 57.6111 87.6777 59.7727 87.6777 62.3255C87.6777 65.5269 90.4677 68.1212 93.9118 68.1212H108.842H124.46H146.454C150.693 68.1212 154.13 64.9266 154.13 60.9856C154.131 57.6595 151.68 54.874 148.368 54.0827Z" fill="#E8EAF6"/>
<path d="M148.368 54.0818C148.467 53.6401 148.517 53.1837 148.517 52.7161C148.517 48.9628 145.24 45.9199 141.195 45.9199C140.513 45.9199 139.855 46.0132 139.228 46.1751C136.857 47.2092 135.419 49.3708 135.033 52.0506C134.107 51.6572 133.078 51.4313 131.99 51.4313C129.954 51.4313 128.115 52.2035 126.788 53.4479C126.341 50.632 123.92 48.4738 120.98 48.4738C117.721 48.4738 115.078 51.1165 115.078 54.3752C115.078 54.6079 115.12 54.8293 115.147 55.0553C114.405 54.745 113.582 54.5652 112.712 54.5652C109.429 54.5652 106.766 57.0359 106.766 60.0844C106.766 60.3778 106.797 60.6633 106.846 60.9443C104.38 61.7177 102.604 63.8804 102.604 66.4332C102.604 67.0199 102.698 67.5853 102.873 68.1193H119.876H124.461H146.456C150.695 68.1193 154.131 64.9246 154.131 60.9836C154.131 57.6586 151.681 54.8732 148.368 54.0818Z" fill="#C5CAE9"/>
</g>
</g>
<defs>
<clipPath id="clip0_1157_17911">
<rect width="607" height="291" rx="67.4444" fill="white"/>
</clipPath>
</defs>
</svg>
