<svg width="387" height="253" viewBox="0 0 387 253" fill="none" xmlns="http://www.w3.org/2000/svg">
<g clip-path="url(#clip0_1346_24255)">
<path d="M191.761 237.303H61.8896C61.2127 237.303 60.5423 237.17 59.9169 236.911C59.2916 236.652 58.7237 236.272 58.2457 235.792C57.7678 235.313 57.3893 234.744 57.132 234.118C56.8747 233.492 56.7436 232.821 56.7463 232.144C56.7463 229.296 59.0832 226.985 61.8896 226.985H85.2846C83.479 223.856 82.5322 220.306 82.5401 216.693V67.0378C82.5415 64.3279 83.077 61.6447 84.1161 59.1419C85.1552 56.6391 86.6774 54.3656 88.5958 52.4515C90.5142 50.5374 92.7911 49.0203 95.2963 47.9868C97.8015 46.9534 100.486 46.4239 103.196 46.4286H118.651V41.2441C118.653 38.5341 119.188 35.851 120.227 33.3481C121.266 30.8453 122.789 28.5718 124.707 26.6577C126.626 24.7436 128.902 23.2265 131.408 22.193C133.913 21.1596 136.597 20.6301 139.307 20.6348H263.076C265.786 20.6287 268.471 21.1573 270.977 22.1903C273.483 23.2232 275.76 24.7403 277.679 26.6547C279.598 28.569 281.12 30.843 282.158 33.3465C283.197 35.85 283.732 38.5337 283.732 41.2441V190.9C283.732 194.65 282.731 198.163 280.982 201.191H309.52C312.373 201.191 314.684 203.482 314.684 206.35C314.684 209.198 312.389 211.509 309.525 211.509H247.62V216.693C247.62 220.444 246.62 223.957 244.871 226.985H247.636C250.473 226.985 252.779 229.276 252.779 232.144C252.779 234.992 250.442 237.303 247.636 237.303H220.496C222.853 241.254 222.342 246.434 218.912 249.864C217.956 250.825 216.819 251.587 215.567 252.108C214.315 252.628 212.973 252.896 211.617 252.896C210.262 252.896 208.919 252.628 207.668 252.108C206.416 251.587 205.279 250.825 204.323 249.864L191.761 237.303ZM210.622 226.985H227.027C232.701 226.985 237.303 222.394 237.303 216.642V66.7954C237.303 61.2239 232.846 56.7461 227.346 56.7461H102.814C97.3148 56.7461 92.8576 61.2446 92.8576 66.7954V216.642C92.8576 222.353 97.5005 226.985 103.129 226.985H181.439L178.787 224.328C177.501 223.05 176.576 221.454 176.105 219.703C175.634 217.952 175.634 216.108 176.104 214.356L171.235 209.481C163.92 214.926 154.817 217.403 145.752 216.415C136.686 215.427 128.331 211.047 122.361 204.154C116.391 197.261 113.249 188.365 113.566 179.252C113.883 170.139 117.634 161.482 124.068 155.02C130.52 148.545 139.188 144.758 148.322 144.422C157.457 144.087 166.379 147.228 173.289 153.212C180.199 159.197 184.582 167.579 185.554 176.668C186.527 185.757 184.016 194.876 178.529 202.187L183.404 207.062C185.155 206.589 186.999 206.588 188.751 207.058C190.502 207.528 192.098 208.453 193.376 209.739L210.622 226.985ZM247.62 201.191H263.143C265.871 201.178 268.483 200.085 270.407 198.152C272.332 196.218 273.413 193.602 273.414 190.874V41.2698C273.414 35.5539 268.812 30.9523 263.143 30.9523H139.235C136.508 30.9673 133.898 32.0608 131.974 33.9939C130.051 35.9271 128.97 38.5428 128.969 41.2698V46.4286H226.965C229.675 46.4225 232.36 46.9511 234.866 47.984C237.372 49.017 239.649 50.5341 241.568 52.4485C243.486 54.3628 245.008 56.6368 246.047 59.1403C247.086 61.6438 247.62 64.3275 247.62 67.0378V201.191ZM5.15873 232.144C5.15873 229.296 7.49565 226.985 10.302 226.985H41.2855C44.1228 226.985 46.4288 229.276 46.4288 232.144C46.4288 234.992 44.0919 237.303 41.2855 237.303H10.302C9.62509 237.303 8.95471 237.17 8.32938 236.911C7.70404 236.652 7.1361 236.272 6.65816 235.792C6.18022 235.313 5.80172 234.744 5.5444 234.118C5.28708 233.492 5.15601 232.821 5.15873 232.144ZM167.845 198.798C170.241 196.402 172.141 193.558 173.437 190.428C174.734 187.299 175.401 183.944 175.401 180.556C175.401 177.169 174.734 173.814 173.437 170.684C172.141 167.554 170.241 164.71 167.845 162.315C165.45 159.919 162.606 158.019 159.476 156.723C156.346 155.426 152.992 154.759 149.604 154.759C146.216 154.759 142.862 155.426 139.732 156.723C136.602 158.019 133.758 159.919 131.363 162.315C126.525 167.153 123.807 173.714 123.807 180.556C123.807 187.398 126.525 193.96 131.363 198.798C136.201 203.636 142.762 206.354 149.604 206.354C156.446 206.354 163.007 203.636 167.845 198.798ZM113.493 77.3812C113.493 76.0139 114.035 74.7025 115.002 73.7352C115.968 72.7679 117.279 72.2238 118.646 72.2224H175.398C176.766 72.2224 178.078 72.7659 179.046 73.7334C180.013 74.7008 180.556 76.013 180.556 77.3812C180.556 78.7493 180.013 80.0615 179.046 81.0289C178.078 81.9964 176.766 82.5399 175.398 82.5399H118.651C117.973 82.542 117.302 82.4099 116.675 82.1514C116.048 81.8929 115.478 81.5129 114.999 81.0335C114.52 80.5541 114.14 79.9846 113.881 79.3577C113.623 78.7309 113.491 78.0592 113.493 77.3812ZM113.493 103.175C113.493 100.327 115.788 98.0162 118.615 98.0162H201.228C204.055 98.0162 206.35 100.307 206.35 103.175C206.35 106.023 204.055 108.334 201.228 108.334H118.615C117.94 108.333 117.271 108.199 116.647 107.939C116.024 107.679 115.458 107.298 114.982 106.819C114.506 106.34 114.129 105.771 113.874 105.146C113.618 104.52 113.489 103.851 113.493 103.175ZM113.493 128.969C113.493 126.121 115.793 123.81 118.641 123.81H154.773C157.615 123.81 159.921 126.1 159.921 128.969C159.921 131.816 157.621 134.127 154.773 134.127H118.641C117.964 134.129 117.293 133.996 116.667 133.737C116.041 133.478 115.472 133.098 114.994 132.619C114.515 132.139 114.136 131.57 113.879 130.944C113.621 130.317 113.49 129.646 113.493 128.969Z" fill="#7986CB"/>
<path fill-rule="evenodd" clip-rule="evenodd" d="M210.622 226.985H227.027C232.701 226.985 237.303 222.394 237.303 216.642V66.7954C237.303 61.2239 232.846 56.7461 227.346 56.7461H102.814C97.3148 56.7461 92.8576 61.2446 92.8576 66.7954V216.642C92.8576 222.353 97.5005 226.985 103.129 226.985H181.439L178.787 224.328C177.501 223.05 176.576 221.454 176.105 219.703C175.634 217.952 175.634 216.108 176.104 214.356L171.235 209.481C163.92 214.926 154.817 217.403 145.752 216.415C136.686 215.427 128.331 211.047 122.361 204.154C116.391 197.261 113.249 188.365 113.566 179.252C113.883 170.139 117.634 161.482 124.068 155.02C130.52 148.545 139.188 144.758 148.322 144.422C157.457 144.087 166.379 147.228 173.289 153.212C180.199 159.197 184.582 167.579 185.554 176.668C186.527 185.757 184.016 194.876 178.529 202.187L183.404 207.062C185.155 206.589 186.999 206.588 188.751 207.058C190.502 207.528 192.098 208.453 193.376 209.739L210.622 226.985ZM115.002 73.7352C114.035 74.7025 113.493 76.0139 113.493 77.3812C113.491 78.0592 113.623 78.7309 113.881 79.3577C114.14 79.9846 114.52 80.5541 114.999 81.0335C115.478 81.5129 116.048 81.8929 116.675 82.1514C117.302 82.4099 117.973 82.542 118.651 82.5399H175.398C176.766 82.5399 178.078 81.9964 179.046 81.0289C180.013 80.0615 180.556 78.7493 180.556 77.3812C180.556 76.013 180.013 74.7008 179.046 73.7334C178.078 72.7659 176.766 72.2224 175.398 72.2224H118.646C117.279 72.2238 115.968 72.7679 115.002 73.7352ZM118.615 98.0162C115.788 98.0162 113.493 100.327 113.493 103.175C113.489 103.851 113.618 104.52 113.874 105.146C114.129 105.771 114.506 106.34 114.982 106.819C115.458 107.298 116.024 107.679 116.647 107.939C117.271 108.199 117.94 108.333 118.615 108.334H201.228C204.055 108.334 206.35 106.023 206.35 103.175C206.35 100.307 204.055 98.0162 201.228 98.0162H118.615ZM118.641 123.81C115.793 123.81 113.493 126.121 113.493 128.969C113.49 129.646 113.621 130.317 113.879 130.944C114.136 131.57 114.515 132.139 114.994 132.619C115.472 133.098 116.041 133.478 116.667 133.737C117.293 133.996 117.964 134.129 118.641 134.127H154.773C157.621 134.127 159.921 131.816 159.921 128.969C159.921 126.1 157.615 123.81 154.773 123.81H118.641Z" fill="#E8EAF6"/>
<path d="M247.62 201.191H263.143C265.871 201.178 268.483 200.085 270.407 198.152C272.332 196.218 273.413 193.602 273.414 190.874V41.2698C273.414 35.5539 268.812 30.9523 263.143 30.9523H139.235C136.508 30.9673 133.898 32.0608 131.974 33.9939C130.051 35.9271 128.97 38.5428 128.969 41.2698V46.4286H226.965C229.675 46.4225 232.36 46.9511 234.866 47.984C237.372 49.017 239.649 50.5341 241.568 52.4485C243.486 54.3628 245.008 56.6368 246.047 59.1403C247.086 61.6438 247.62 64.3275 247.62 67.0378V201.191Z" fill="#C5CAE9"/>
<path d="M43.9012 172.818H38.6908V167.608C38.6908 166.189 37.5353 165.08 36.1115 165.08C35.4362 165.08 34.7878 165.345 34.3056 165.817C33.8233 166.29 33.5456 166.933 33.5321 167.608V172.818H28.3217C26.9031 172.818 25.7939 173.974 25.7939 175.398C25.7938 176.073 26.0585 176.721 26.5311 177.204C27.0037 177.686 27.6466 177.963 28.3217 177.977H33.5321V183.187C33.5334 183.523 33.6014 183.856 33.7321 184.165C33.8629 184.475 34.0537 184.755 34.2937 184.99C34.5336 185.225 34.8178 185.41 35.1299 185.535C35.4419 185.659 35.7756 185.721 36.1115 185.715C36.7867 185.715 37.4351 185.451 37.9174 184.978C38.3996 184.505 38.6773 183.862 38.6908 183.187V177.977H43.9012C45.3198 177.977 46.429 176.821 46.429 175.398C46.4291 174.722 46.1644 174.074 45.6918 173.592C45.2192 173.109 44.5763 172.832 43.9012 172.818Z" fill="#C5CAE9"/>
<path fill-rule="evenodd" clip-rule="evenodd" d="M42.4763 107.953C40.4439 107.953 38.4314 107.552 36.5538 106.774C34.6761 105.997 32.97 104.857 31.5329 103.42C30.0958 101.983 28.9558 100.276 28.1781 98.3988C27.4003 96.5211 27 94.5086 27 92.4763C27 90.4439 27.4003 88.4314 28.1781 86.5538C28.9558 84.6761 30.0958 82.97 31.5329 81.5329C32.97 80.0958 34.6761 78.9558 36.5538 78.1781C38.4314 77.4003 40.4439 77 42.4763 77C46.5808 77 50.5173 78.6305 53.4196 81.5329C56.322 84.4353 57.9525 88.3717 57.9525 92.4763C57.9525 96.5808 56.322 100.517 53.4196 103.42C50.5173 106.322 46.5808 107.953 42.4763 107.953ZM45.438 99.6258C44.499 100.015 43.4926 100.215 42.4763 100.214C40.4242 100.214 38.4564 99.3986 37.0055 97.9475C35.5546 96.4963 34.7395 94.5283 34.7395 92.4763C34.7395 90.4242 35.5546 88.4562 37.0055 87.0051C38.4564 85.5539 40.4242 84.7385 42.4763 84.7381C43.4926 84.738 44.499 84.938 45.438 85.3268C46.3769 85.7156 47.2302 86.2855 47.9489 87.0041C48.6676 87.7227 49.2377 88.5758 49.6266 89.5147C50.0156 90.4536 50.2158 91.46 50.2158 92.4763C50.2158 93.4926 50.0156 94.4989 49.6266 95.4379C49.2377 96.3768 48.6676 97.2299 47.9489 97.9485C47.2302 98.667 46.3769 99.237 45.438 99.6258Z" fill="#C5CAE9"/>
<path d="M73.4606 11.6072H65.774V3.92066C65.774 1.75398 64.0407 0 61.905 0C59.7538 0 58.0359 1.75398 58.0359 3.92066V11.6072H50.3494C48.1827 11.6072 46.4287 13.3405 46.4287 15.4763C46.4307 15.9881 46.5339 16.4946 46.7323 16.9664C46.9307 17.4383 47.2203 17.8663 47.5847 18.2259C47.949 18.5854 48.3808 18.8694 48.8553 19.0615C49.3298 19.2537 49.8375 19.3501 50.3494 19.3453H58.0359V27.0319C58.0325 27.5434 58.1299 28.0505 58.3225 28.5244C58.5151 28.9982 58.7992 29.4295 59.1584 29.7936C59.5177 30.1576 59.9452 30.4474 60.4164 30.6462C60.8877 30.8451 61.3935 30.9492 61.905 30.9525C64.0562 30.9525 65.774 29.1986 65.774 27.0319V19.3453H73.4606C75.6273 19.3453 77.3813 17.612 77.3813 15.4763C77.3813 13.3251 75.6273 11.6072 73.4606 11.6072Z" fill="#C5CAE9"/>
<path fill-rule="evenodd" clip-rule="evenodd" d="M335.319 67.0639C331.214 67.0639 327.278 65.4333 324.376 62.531C321.473 59.6286 319.843 55.6922 319.843 51.5876C319.843 47.483 321.473 43.5466 324.376 40.6442C327.278 37.7419 331.214 36.1113 335.319 36.1113C339.424 36.1113 343.36 37.7419 346.262 40.6442C349.165 43.5466 350.795 47.483 350.795 51.5876C350.795 55.6922 349.165 59.6286 346.262 62.531C343.36 65.4333 339.424 67.0639 335.319 67.0639ZM338.281 58.7371C337.342 59.1259 336.335 59.3259 335.319 59.3257C333.267 59.3254 331.299 58.5099 329.848 57.0588C328.397 55.6077 327.582 53.6396 327.582 51.5876C327.582 49.5356 328.397 47.5675 329.848 46.1164C331.299 44.6653 333.267 43.8498 335.319 43.8495C336.335 43.8493 337.342 44.0493 338.281 44.4381C339.22 44.8269 340.073 45.3968 340.792 46.1154C341.51 46.834 342.08 47.6871 342.469 48.626C342.858 49.5649 343.059 50.5713 343.059 51.5876C343.059 52.6039 342.858 53.6103 342.469 54.5492C342.08 55.4881 341.51 56.3412 340.792 57.0598C340.073 57.7784 339.22 58.3483 338.281 58.7371Z" fill="#C5CAE9"/>
<path d="M379.169 146.973V152.184H384.379C385.054 152.197 385.697 152.475 386.17 152.957C386.642 153.44 386.907 154.088 386.907 154.763C386.907 156.187 385.798 157.343 384.379 157.343H379.169V162.553C379.155 163.228 378.878 163.871 378.395 164.344C377.913 164.816 377.265 165.081 376.589 165.081C375.166 165.081 374.01 163.972 374.01 162.553V157.343H368.8C367.407 157.343 366.272 156.146 366.272 154.763C366.266 154.427 366.328 154.094 366.452 153.782C366.577 153.47 366.762 153.185 366.997 152.945C367.232 152.705 367.512 152.515 367.822 152.384C368.131 152.253 368.464 152.185 368.8 152.184H374.01V146.973C374.023 146.298 374.301 145.655 374.783 145.183C375.266 144.71 375.914 144.446 376.589 144.446C376.925 144.44 377.259 144.501 377.571 144.626C377.883 144.75 378.167 144.936 378.407 145.171C378.647 145.406 378.838 145.686 378.969 145.996C379.099 146.305 379.167 146.638 379.169 146.973Z" fill="#C5CAE9"/>
</g>
<defs>
<clipPath id="clip0_1346_24255">
<rect width="387" height="252.896" fill="white"/>
</clipPath>
</defs>
</svg>
