<svg width="400" height="256" viewBox="0 0 400 256" fill="none" xmlns="http://www.w3.org/2000/svg">
<g clip-path="url(#clip0_1720_27823)">
<path d="M219.674 31.0472L221.969 29.5773L227.816 29.7736L225.521 31.2435L219.674 31.0472Z" fill="#7986CB"/>
<path d="M239.664 169.1L242.026 166.847L248.231 167.44L245.869 169.693L239.664 169.1Z" fill="#7986CB"/>
<path d="M109.043 146.867L105.527 150.695L104.924 143.697L109.043 146.867Z" fill="#7986CB"/>
<path d="M113.213 218.75L108.263 220.829L107.981 217.549L113.213 218.75Z" fill="#7986CB"/>
<path d="M357.298 259.853C357.38 259.935 357.46 260.018 357.541 260.103" stroke="#7986CB" stroke-width="15.1481"/>
<path d="M88.1355 244.691C87.6582 247.38 87.0189 250.01 86.253 252.442" stroke="#7986CB" stroke-width="5.48849"/>
<path d="M43.4709 40.9005C42.592 40.1486 41.6901 39.3163 40.7637 38.3994" stroke="#7986CB" stroke-width="6.9397"/>
<path d="M356.843 205.646C355.693 205.646 354.758 203.569 354.758 201.01C354.758 198.45 355.693 196.373 356.843 196.373C357.994 196.373 358.928 198.45 358.928 201.01C358.928 203.569 357.994 205.646 356.843 205.646Z" fill="#5C6BC0"/>
<path d="M192.392 211.601L196.781 212.973L198.223 220.517L193.834 219.145L192.392 211.601Z" fill="#5C6BC0"/>
<path d="M136.033 59.1619L127.882 55.4412L138.446 50.5333L136.033 59.1619Z" fill="#5C6BC0"/>
<path d="M312.506 136.344L306.641 129.364L310.954 127.36L312.506 136.344Z" fill="#9FA8DA"/>
<path d="M306.924 65.5005L298.277 63.3826L310.882 57.526L306.924 65.5005Z" fill="#9FA8DA"/>
<g opacity="0.997034">
<path d="M147.757 211.902L139.974 208.506L150.182 203.764L147.757 211.902Z" fill="#9FA8DA"/>
</g>
<path d="M318.441 132.526C320.945 126.47 325.431 119.986 330.795 113.983" stroke="#E8EAF6" stroke-width="5.93473"/>
<path d="M368.292 39.2203C359.315 37.1907 352.643 40.6275 346.666 44.8477" stroke="#7986CB" stroke-width="6.51858"/>
<path d="M226.599 15.0222L224.691 22.3715L218.152 19.0317L220.06 11.6824L226.599 15.0222Z" fill="#7986CB"/>
<path d="M226.807 125.154L225.352 131.817L220.079 128.715L221.534 122.051L226.807 125.154Z" fill="#7986CB"/>
<g opacity="0.999992">
<path d="M93.7223 71.7466L98.3011 67.0781L99.0791 75.497L93.7223 71.7466Z" fill="#7986CB"/>
</g>
<path d="M120.435 188.589L127.89 184.208L128.567 191.53L120.435 188.589Z" fill="#7986CB"/>
<path d="M305.725 218.814C310.333 217.788 315.063 216.538 319.568 215.89" stroke="#7986CB" stroke-width="12.3863"/>
<path d="M276.581 150.445C274.583 150.445 272.961 148.477 272.961 146.053C272.961 143.628 274.583 141.66 276.581 141.66C278.579 141.66 280.201 143.628 280.201 146.053C280.201 148.477 278.579 150.445 276.581 150.445Z" fill="#7986CB"/>
<path d="M117.595 81.1194L126.884 84.2805L114.135 90.3015L117.595 81.1194Z" fill="#5C6BC0"/>
<g opacity="0.776802">
<path d="M198.937 139.628L194.121 136.271L190.337 124.498L195.153 127.854L198.937 139.628Z" fill="#5C6BC0"/>
</g>
<g opacity="0.968859">
<path d="M200.221 46.3993L206.823 48.442L197.604 52.7958L200.221 46.3993Z" fill="#9FA8DA"/>
</g>
<path d="M175.867 161.231L183.314 165.745L174.623 169.85L175.867 161.231Z" fill="#9FA8DA"/>
<g opacity="0.0987708">
<path d="M168.369 105.92C168.369 105.92 170.078 107.166 173.178 108.67" stroke="#9FA8DA" stroke-width="10.1502"/>
</g>
<g opacity="0.700525">
<path d="M194.047 61.5381C229.323 61.5381 257.964 90.1791 257.964 125.455C257.964 160.73 229.323 189.371 194.047 189.371C158.772 189.371 130.131 160.73 130.131 125.455C130.131 90.1791 158.772 61.5381 194.047 61.5381Z" fill="#7986CB"/>
</g>
<path d="M194.046 61.1016C229.557 61.1016 258.389 89.9336 258.389 125.444C258.389 160.955 229.557 189.787 194.046 189.787C158.535 189.787 129.703 160.955 129.703 125.444C129.703 89.9336 158.535 61.1016 194.046 61.1016Z" fill="#9FA8DA"/>
<path d="M164.617 128.344L183.214 146.58L220.77 107.761" stroke="white" stroke-width="10.8333" stroke-linecap="round" stroke-linejoin="round"/>
</g>
<defs>
<clipPath id="clip0_1720_27823">
<rect width="400" height="255.556" fill="white"/>
</clipPath>
</defs>
</svg>
