<svg width="48" height="49" viewBox="0 0 48 49" fill="none" xmlns="http://www.w3.org/2000/svg">
<g clip-path="url(#clip0_1346_54489)">
<path d="M15.8965 15.7318V12.3282C15.8965 11.1837 16.8243 10.2559 17.9689 10.2559H35.9294C37.0739 10.2559 38.0017 11.1837 38.0017 12.3282V30.2888C38.0017 31.4333 37.0739 32.3611 35.9294 32.3611H32.4874" stroke="#4054B2" stroke-width="2.66667" stroke-linecap="round" stroke-linejoin="round"/>
<path d="M30.0329 16.1504H12.0724C10.9278 16.1504 10 17.0782 10 18.2228V36.1833C10 37.3278 10.9278 38.2557 12.0724 38.2557H30.0329C31.1774 38.2557 32.1053 37.3278 32.1053 36.1833V18.2228C32.1053 17.0782 31.1774 16.1504 30.0329 16.1504Z" fill="#E8EAF6" stroke="#4054B2" stroke-width="2" stroke-linejoin="round"/>
</g>
<defs>
<clipPath id="clip0_1346_54489">
<rect width="32" height="32" fill="white" transform="translate(8 8.25586)"/>
</clipPath>
</defs>
</svg>
