<svg width="48" height="49" viewBox="0 0 48 49" fill="none" xmlns="http://www.w3.org/2000/svg">
<g clip-path="url(#clip0_1346_54487)">
<path d="M23.3154 9.25586C31.3101 9.25603 38.9619 15.8973 38.9619 23.9004V23.9316L38.9639 23.9629C39.2785 29.0042 37.5084 32.7945 34.7188 35.3389C31.907 37.9034 27.9973 39.2558 23.9814 39.2559C16.074 39.2559 9.00005 32.591 9 23.9004C9 15.7923 15.4294 9.25586 23.3154 9.25586Z" fill="#E8EAF6" stroke="#4054B2" stroke-width="2"/>
<path fill-rule="evenodd" clip-rule="evenodd" d="M15.7181 28.5915C15.5857 28.3429 15.6699 28.0381 15.9017 27.8783C16.2019 27.6714 16.6154 27.7926 16.7873 28.1141C17.096 28.6917 17.4743 29.2258 17.9256 29.7242C18.9701 30.8777 20.3951 31.7405 21.9112 32.1376C23.1443 32.4606 24.628 32.477 25.8751 32.1813C27.4242 31.8139 28.8241 31.0087 29.9423 29.8419C30.2507 29.52 30.7387 28.9242 30.7387 28.8695C30.7387 28.8587 30.5313 28.6935 30.2777 28.5025C30.024 28.3114 29.8244 28.1551 29.8341 28.1551C29.8438 28.1551 30.497 27.9995 31.2857 27.8093C32.0745 27.619 32.7263 27.4699 32.7342 27.4778C32.7484 27.4921 32.6368 30.3531 32.6215 30.3685C32.6172 30.3728 32.4137 30.2132 32.1693 30.0138C31.9249 29.8144 31.7121 29.652 31.6964 29.6529C31.6806 29.6538 31.5694 29.7869 31.4492 29.9488C30.7356 30.9092 29.543 31.9019 28.3707 32.5111C24.6705 34.434 20.2516 33.7437 17.3318 30.7866C16.687 30.1336 16.1444 29.3924 15.7181 28.5915Z" fill="#4054B2"/>
<path fill-rule="evenodd" clip-rule="evenodd" d="M20.8468 15.4188C21.5512 15.1765 22.0124 15.0718 22.9962 14.9307C23.0564 14.9221 23.54 14.9203 24.071 14.9267C25.1008 14.9392 25.4073 14.9755 26.2569 15.1858C27.4323 15.4767 28.7377 16.1199 29.7544 16.9088C30.4446 17.4445 31.2975 18.362 31.7874 19.0959C32.2158 19.7376 32.5669 20.4461 32.8262 21.181C32.93 21.4752 32.7608 21.79 32.4637 21.8854C32.1498 21.9862 31.8172 21.8031 31.7068 21.4924C30.9267 19.2966 29.1698 17.4762 26.9777 16.6312C25.1097 15.9112 23.0435 15.8851 21.2126 16.5584C19.769 17.0893 18.515 17.9947 17.593 19.1718C17.509 19.279 17.4404 19.3802 17.4404 19.3966C17.4404 19.4131 17.628 19.5881 17.8572 19.7856C18.1854 20.0684 18.2609 20.1502 18.2124 20.1707C18.137 20.2025 15.3914 20.7502 15.3774 20.7362C15.372 20.7307 15.4154 20.1355 15.474 19.4137C15.5327 18.6918 15.581 18.0478 15.5815 17.9826C15.5819 17.9174 15.5993 17.864 15.62 17.864C15.6407 17.864 15.8489 18.02 16.0827 18.2107C16.3164 18.4013 16.5172 18.5573 16.5288 18.5573C16.5405 18.5573 16.6725 18.4077 16.8221 18.225C17.1382 17.839 17.7504 17.2367 18.158 16.9108C18.904 16.3144 19.9818 15.7163 20.8468 15.4188Z" fill="#4054B2"/>
<path d="M32.6529 22.502C32.9968 22.3704 33.3822 22.5425 33.5138 22.8863C33.6454 23.2302 33.4733 23.6156 33.1295 23.7472C32.7856 23.8788 32.4002 23.7068 32.2686 23.3629C32.137 23.019 32.309 22.6336 32.6529 22.502Z" fill="#4054B2"/>
<path d="M15.2896 25.8272C15.6335 25.6956 16.0189 25.8677 16.1505 26.2115C16.2821 26.5554 16.1101 26.9408 15.7662 27.0724C15.4223 27.204 15.0369 27.032 14.9053 26.6881C14.7737 26.3442 14.9458 25.9588 15.2896 25.8272Z" fill="#4054B2"/>
</g>
<defs>
<clipPath id="clip0_1346_54487">
<rect width="32" height="32" fill="white" transform="translate(8 8.25586)"/>
</clipPath>
</defs>
</svg>
