<svg width="512" height="512" viewBox="0 0 512 512" fill="none" xmlns="http://www.w3.org/2000/svg">
<rect width="512" height="512" fill="white"/>
<path fill-rule="evenodd" clip-rule="evenodd" d="M28 160.3V182.58L94.3324 182.941L160.663 183.303L195.685 268.291L230.704 353.279L255.216 353.658L279.727 354.038L314.961 268.335L350.194 182.633L416.531 182.272L482.866 181.91L483.249 159.955L483.634 138L398.977 138.359L314.322 138.719L285.16 213.606C269.121 254.793 255.636 288.489 255.193 288.485C254.75 288.48 245.048 264.186 233.633 234.496C222.217 204.808 209.151 170.954 204.594 159.269L196.312 138.022H112.155H28V160.3ZM28.5642 161.011C28.5656 173.271 28.7788 178.1 29.0379 171.743C29.2956 165.384 29.2942 155.353 29.0337 149.451C28.7732 143.548 28.5628 148.75 28.5642 161.011ZM28 220.224V242.516H49.4017H70.8034L49.4017 297.844C37.6309 328.274 28 353.353 28 353.574C28 353.794 38.5309 353.975 51.4009 353.975H74.8018L78.9297 342.481L83.059 330.987L119.406 330.616L155.754 330.244L160.342 342.111L164.928 353.975H189.127H213.328L211.132 348.751C208.627 342.789 150.649 202.332 149.596 199.673C149.06 198.318 135.52 197.932 88.4533 197.932H28V220.224ZM331.282 274.948C313.893 317.307 299.666 352.416 299.666 352.97C299.666 353.523 310.486 353.975 323.71 353.975H347.756L359.399 326.111C367.844 305.897 371.666 298.254 373.317 298.278C374.678 298.296 383.435 309.488 395.097 326.111L414.601 353.913L442.116 353.943C457.25 353.962 469.631 353.622 469.631 353.19C469.631 352.756 458.604 337.974 445.128 320.338C431.652 302.703 420.837 288.111 421.096 287.913C421.355 287.715 424.388 286.463 427.836 285.131C442.633 279.414 460.435 263.506 467.385 249.789C470.9 242.854 471.329 242.516 476.621 242.516H482.17V220.224V197.932H460.187H438.206L436.648 207.821C433.328 228.908 419.867 247.402 403.336 253.586C396.768 256.044 388.828 257.38 388.828 256.027C388.828 255.796 393.843 242.898 399.973 227.363C406.103 211.828 411.118 198.851 411.118 198.525C411.118 198.199 400.269 197.932 387.008 197.932H362.9L331.282 274.948ZM117.14 236.943C117.081 237.326 112.783 249.238 107.591 263.414L98.1497 289.19L108.352 289.596C113.963 289.821 123.136 289.821 128.734 289.596L138.912 289.19L128.08 262.718C122.123 248.158 117.2 236.56 117.14 236.943Z" fill="#1A237E"/>
</svg>
