<svg width="75" height="31" viewBox="0 0 75 31" fill="none" xmlns="http://www.w3.org/2000/svg">
    <path d="M13.927 16.3847C13.927 17.1754 13.927 17.966 13.927 18.7548C13.927 18.9152 13.9009 18.9767 13.7238 18.9711C13.2259 18.9581 12.7261 18.9618 12.232 18.9711C12.0977 18.9711 12.0548 18.9431 12.0567 18.7996C12.0567 17.3245 12.0567 15.8495 12.0567 14.3745C12.0593 13.9972 12.1075 13.6215 12.2003 13.2557C12.2666 12.9531 12.3969 12.6682 12.5825 12.4202C12.7681 12.1722 13.0046 11.9669 13.2762 11.818C13.7727 11.5354 14.3235 11.3616 14.8921 11.3079C15.4608 11.2542 16.0344 11.3219 16.575 11.5065C16.8371 11.5931 17.0802 11.7292 17.291 11.9075C17.347 11.9522 17.3917 12.0063 17.4775 11.9336C18.0369 11.4693 18.697 11.3425 19.3889 11.2996C20.122 11.2646 20.8495 11.4434 21.483 11.8142C22.1822 12.2002 22.4582 12.8436 22.5906 13.582C22.6444 13.928 22.6675 14.2781 22.6596 14.6281C22.6596 16.0062 22.6596 17.3842 22.6596 18.7623C22.6596 18.9487 22.6018 18.9916 22.434 18.9786C22.2552 18.9646 22.0757 18.9646 21.8969 18.9786C21.2126 19.0326 20.8042 18.6224 20.8135 17.884C20.8266 16.6775 20.8135 15.4598 20.8135 14.2626C20.8202 14.0991 20.809 13.9352 20.7799 13.7741C20.7034 13.4838 20.5248 13.2308 20.2768 13.0616C20.0288 12.8924 19.7281 12.8183 19.4299 12.8529C18.7511 12.9219 18.2849 13.3806 18.2775 14.024C18.2663 15.126 18.2775 16.2299 18.2775 17.332C18.2775 17.8168 18.2775 18.2998 18.2775 18.7846C18.2775 18.9469 18.2271 18.9823 18.0761 18.9711C17.5987 18.9711 17.1213 18.9618 16.644 18.9711C16.478 18.9711 16.4332 18.9282 16.4351 18.7604C16.4351 17.2251 16.4351 15.6904 16.4351 14.1563C16.4351 13.5037 16.1703 13.1345 15.609 12.9181C14.9713 12.6757 13.9121 12.9983 13.9158 14.0612C13.9158 14.8351 13.9158 15.6109 13.9158 16.3847H13.927Z" fill="black"/>
    <path d="M0.700826 14.8555C0.664836 13.1622 0.958712 11.4782 1.56606 9.89716C2.2089 8.126 3.25678 6.52959 4.6261 5.2353C4.75291 5.11596 4.82749 5.09731 4.94311 5.2353C5.23401 5.59333 5.5305 5.94764 5.83632 6.29262C5.94447 6.41382 5.93701 6.47909 5.83632 6.61521C4.90396 7.85309 4.13554 9.20629 3.55015 10.6412C3.06283 11.8421 2.77437 13.1143 2.6961 14.408C2.59354 16.3324 3.03548 18.1374 3.81494 19.8847C4.39444 21.1591 5.09904 22.3728 5.91837 23.5079C6.02839 23.6627 6.02466 23.741 5.87175 23.8641C5.5361 24.1363 5.21536 24.4235 4.90581 24.7275C4.76969 24.858 4.69696 24.83 4.58694 24.7088C2.68135 22.6262 1.40109 20.0489 0.892894 17.2722C0.739509 16.4763 0.67509 15.6657 0.700826 14.8555V14.8555Z" fill="#8DC47A"/>
    <path d="M15.888 30.0026C14.811 29.9818 13.7397 29.8417 12.6937 29.5849C11.2636 29.2665 9.87951 28.7684 8.57446 28.1025C7.6999 27.6419 6.87941 27.1104 6.23981 26.3366C6.12233 26.1948 6.09063 26.1184 6.26218 25.9897C6.59411 25.7398 6.90925 25.4657 7.22439 25.1916C7.26379 25.1478 7.31866 25.121 7.37744 25.1168C7.43622 25.1126 7.49433 25.1314 7.53953 25.1692C8.16235 25.5608 8.78518 25.9562 9.41359 26.3384C10.8164 27.1754 12.3699 27.7285 13.9859 27.9663C14.9797 28.1178 15.9871 28.1597 16.99 28.0913C18.4843 28.0034 19.9511 27.6504 21.3218 27.0489C22.4177 26.5792 23.4476 25.9686 24.3856 25.2326C24.4109 25.2069 24.4411 25.1865 24.4744 25.1726C24.5077 25.1586 24.5434 25.1515 24.5795 25.1515C24.6156 25.1515 24.6513 25.1586 24.6846 25.1726C24.7179 25.1865 24.7481 25.2069 24.7735 25.2326C25.1016 25.4639 25.4187 25.71 25.7357 25.9561C26.0098 26.1687 26.0116 26.1762 25.786 26.4261C25.2807 26.975 24.6939 27.443 24.0462 27.8134C22.4781 28.6995 20.7784 29.329 19.0114 29.6782C17.9845 29.8951 16.9376 30.0039 15.888 30.0026V30.0026Z" fill="#F9D476"/>
    <path d="M16.5528 0.0197509C18.6224 0.127715 20.6559 0.605144 22.5573 1.42949C23.5658 1.83959 24.5035 2.40595 25.3358 3.10775C25.5428 3.29423 25.7311 3.49189 25.9269 3.68582C26.0071 3.766 26.0201 3.82754 25.9157 3.91891C25.4905 4.29186 25.071 4.67167 24.657 5.05829C24.5694 5.14034 24.5209 5.13288 24.4426 5.05829C22.7512 3.33527 20.659 2.40661 18.3113 2.01128C17.1247 1.83174 15.921 1.79356 14.7254 1.89754C13.2892 1.98168 11.8791 2.31811 10.5596 2.89144C9.43693 3.39708 8.40306 4.08027 7.49767 4.9147C7.36154 5.03778 7.28882 5.04523 7.16575 4.9147C6.85993 4.56786 6.54479 4.23033 6.23338 3.8984C6.13455 3.79957 6.1476 3.74363 6.23338 3.64667C6.8792 2.94185 7.64747 2.35997 8.5009 1.92925C10.0175 1.14693 11.6421 0.594509 13.3213 0.29013C14.2278 0.11818 15.1473 0.0239769 16.0699 0.0085515C16.2302 -0.00636645 16.3906 0.0122919 16.5528 0.0197509Z" fill="#549BDA"/>
    <path d="M65.3489 12.3749C65.3675 12.3749 65.3899 12.3749 65.3936 12.3749C66.0743 11.0417 68.2877 10.8123 69.483 12.3022C69.9087 12.8177 70.1455 13.4631 70.1543 14.1315C70.1842 15.6942 70.1692 17.2587 70.1804 18.8232C70.1804 18.9687 70.1152 18.9761 70.0051 18.9742C69.5278 18.9742 69.0504 18.9742 68.5749 18.9742C68.4201 18.9742 68.3884 18.922 68.3884 18.7878C68.3884 17.5508 68.3884 16.3145 68.3884 15.0788C68.4168 14.5934 68.311 14.1095 68.0826 13.6803C67.9698 13.4604 67.7973 13.2767 67.5849 13.1504C67.3725 13.0241 67.1288 12.9602 66.8817 12.9661C66.6232 12.9577 66.3676 13.0235 66.1452 13.1556C65.9229 13.2878 65.743 13.4808 65.6267 13.7119C65.4111 14.1389 65.3077 14.6139 65.3265 15.0919C65.3191 16.3139 65.3191 17.5353 65.3265 18.7561C65.3265 18.9295 65.2874 18.9854 65.1065 18.9798C64.6459 18.9668 64.1834 18.9705 63.721 18.9798C63.5737 18.9798 63.5177 18.9556 63.5196 18.7934C63.5196 15.6855 63.5196 12.572 63.5196 9.45288C63.5196 9.28878 63.555 9.22911 63.7266 9.24217C63.9336 9.25895 64.1424 9.24217 64.3513 9.24217C64.4801 9.23377 64.6093 9.25284 64.7303 9.29812C64.8512 9.3434 64.9612 9.41386 65.0529 9.50483C65.1445 9.5958 65.2158 9.70521 65.262 9.82581C65.3083 9.94641 65.3283 10.0754 65.3209 10.2044C65.3209 10.8682 65.3209 11.5302 65.3209 12.194C65.3321 12.2481 65.3079 12.3153 65.3489 12.3749Z" fill="black"/>
    <path d="M6.97444 7.51172C7.00987 7.53596 7.04158 7.55276 7.06955 7.57514C7.46824 7.87479 7.8487 8.19795 8.2089 8.54293C8.23212 8.56008 8.25156 8.58182 8.26603 8.6068C8.28049 8.63178 8.28967 8.65948 8.29299 8.68815C8.29631 8.71683 8.29371 8.74587 8.28534 8.77349C8.27697 8.80112 8.26301 8.82674 8.24433 8.84875C7.51765 10.0096 6.91454 11.2433 6.44486 12.5297C6.08196 13.5343 5.94321 14.6061 6.03835 15.67C6.16018 16.6832 6.44876 17.6693 6.8924 18.5883C7.28856 19.4463 7.7363 20.2795 8.23314 21.0833C8.25409 21.1055 8.26973 21.1321 8.27889 21.1612C8.28804 21.1903 8.29046 21.2211 8.28597 21.2513C8.28148 21.2815 8.2702 21.3102 8.25297 21.3354C8.23574 21.3606 8.21302 21.3815 8.18652 21.3966C7.78747 21.7453 7.45368 22.1612 7.08819 22.5416C6.97817 22.6553 6.92223 22.6833 6.80662 22.5416C5.42112 20.7607 4.44586 18.786 4.11207 16.5445C3.65335 13.4584 4.48502 10.6967 6.34976 8.2278C6.50826 8.02081 6.68355 7.82873 6.85324 7.6292C6.8924 7.58444 6.93156 7.55274 6.97444 7.51172Z" fill="#4E9E3E"/>
    <path d="M16.1542 3.32671C17.9601 3.30973 19.7474 3.69178 21.3886 4.44556C22.1955 4.81845 22.9299 5.33178 23.5572 5.9616C23.6635 6.06975 23.699 6.13315 23.5572 6.25622C23.2048 6.57695 22.8654 6.9126 22.5279 7.25012C22.5143 7.2688 22.4969 7.28443 22.4768 7.29599C22.4568 7.30754 22.4345 7.31479 22.4115 7.31725C22.3885 7.3197 22.3653 7.31732 22.3433 7.31026C22.3212 7.3032 22.3009 7.2916 22.2836 7.27623C21.8156 7.00211 21.3345 6.74478 20.8702 6.4632C19.6226 5.71731 18.2987 5.20265 16.8218 5.14484C15.3449 5.08703 13.8382 5.18772 12.449 5.80868C11.5619 6.23139 10.7057 6.71619 9.88684 7.25945C9.70037 7.37134 9.58848 7.3788 9.43557 7.22217C9.09805 6.87532 8.75121 6.53779 8.39878 6.20587C8.27943 6.09212 8.37454 6.04364 8.4398 5.97837C9.19174 5.24163 10.0839 4.66332 11.0635 4.27773C12.2916 3.77673 13.5912 3.47339 14.9142 3.37893C15.3095 3.33977 15.6955 3.33977 16.1542 3.32671Z" fill="#006DC5"/>
    <path d="M15.2986 26.5845C13.7655 26.6002 12.2472 26.282 10.8494 25.6521C10.0033 25.2604 9.2167 24.7513 8.51284 24.1398C8.44011 24.0801 8.38045 24.0372 8.48114 23.931C8.81555 23.5804 9.14064 23.2217 9.4564 22.855C9.47533 22.8248 9.50032 22.7988 9.52981 22.7787C9.5593 22.7587 9.59264 22.745 9.6277 22.7385C9.66277 22.732 9.69881 22.7329 9.73352 22.7411C9.76823 22.7492 9.80086 22.7645 9.82935 22.786C10.4615 23.1366 11.075 23.517 11.7258 23.8321C12.7792 24.3563 13.9143 24.6968 15.0823 24.8391C16.7117 25.0102 18.3577 24.7611 19.8635 24.1156C20.7718 23.7579 21.6348 23.2947 22.435 22.7356C22.5282 22.6704 22.5655 22.6872 22.6215 22.7655C22.8937 23.1011 23.1678 23.4349 23.4494 23.7613C23.5445 23.8713 23.5109 23.9291 23.4214 24.013C22.8699 24.5269 22.2405 24.9505 21.5567 25.268C20.1105 25.941 18.5583 26.3574 16.9694 26.4987C16.4148 26.5622 15.8568 26.5908 15.2986 26.5845V26.5845Z" fill="#FAB636"/>
    <path d="M62.0511 13.7189C61.4507 13.7189 60.8633 13.7189 60.2777 13.7189C60.1789 13.7189 60.1584 13.6518 60.1211 13.5884C59.9687 13.3081 59.722 13.0909 59.4247 12.9751C59.1274 12.8594 58.7987 12.8527 58.4969 12.9563C58.3178 13.0085 58.1532 13.1015 58.016 13.228C57.8788 13.3545 57.7728 13.511 57.7063 13.6854C57.4284 14.3436 57.4228 15.0336 57.4806 15.7366C57.4954 16.1935 57.6474 16.6354 57.917 17.0046C58.4149 17.633 59.53 17.6741 60.0484 17.0606C60.1485 16.9268 60.2809 16.8206 60.4332 16.7518C60.5855 16.683 60.7527 16.6539 60.9192 16.6671C61.2679 16.6839 61.6185 16.6671 61.9691 16.6671C62.0754 16.6671 62.1033 16.6671 62.0716 16.8014C61.92 17.4014 61.5888 17.9407 61.1222 18.3473C60.6557 18.7538 60.0761 19.0082 59.461 19.0763C58.9584 19.1454 58.4473 19.1195 57.9543 18.9999C57.5207 18.8953 57.1192 18.6862 56.7851 18.3907C56.4509 18.0952 56.1942 17.7224 56.0373 17.3048C55.4785 15.9621 55.4718 14.4531 56.0187 13.1054C56.4793 11.953 57.3799 11.3582 58.6293 11.2948C59.173 11.2527 59.7195 11.3258 60.233 11.5092C61.2474 11.8952 61.7639 12.6971 62.0511 13.7189Z" fill="black"/>
    <path d="M43.7578 13.57C43.7578 12.1919 43.7578 10.8139 43.7578 9.43585C43.7578 9.26988 43.7951 9.21581 43.9648 9.227C44.1867 9.24378 44.4123 9.227 44.6361 9.227C44.7628 9.2234 44.8889 9.24566 45.0067 9.29244C45.1245 9.33922 45.2315 9.40953 45.3212 9.49906C45.4109 9.58859 45.4814 9.69547 45.5284 9.81317C45.5754 9.93086 45.5979 10.0569 45.5946 10.1836C45.5946 10.5566 45.5946 10.9295 45.5946 11.3025C45.5946 11.4423 45.6375 11.4889 45.7717 11.4759C46.0253 11.4759 46.2789 11.4759 46.5325 11.4759C46.6612 11.4759 46.7022 11.515 46.6948 11.6418C46.7142 11.8643 46.6849 12.0883 46.609 12.2982C46.5393 12.4565 46.4236 12.5902 46.2769 12.682C46.1303 12.7738 45.9595 12.8194 45.7866 12.8129C45.6226 12.8129 45.6002 12.867 45.6002 13.0161C45.6002 14.3438 45.6002 15.6697 45.6002 16.9955C45.5902 17.0627 45.5955 17.1312 45.6156 17.1961C45.6357 17.2609 45.6701 17.3204 45.7163 17.3702C45.7625 17.42 45.8192 17.4587 45.8824 17.4836C45.9456 17.5085 46.0136 17.5188 46.0813 17.5139C46.154 17.5139 46.2305 17.5139 46.305 17.5139C46.6948 17.5139 46.6948 17.5139 46.6948 17.9148C46.6948 18.2039 46.6948 18.4948 46.6948 18.7857C46.6948 18.9143 46.6743 18.9721 46.5288 18.9721C45.9848 18.9927 45.4401 18.9833 44.8972 18.9442C44.1513 18.8826 43.7783 18.4836 43.7671 17.7246C43.7671 16.3391 43.7671 14.9536 43.7671 13.5662L43.7578 13.57Z" fill="black"/>
    <path d="M15.9926 23.5547C14.402 23.5267 12.7424 23.1276 11.2916 22.0517C11.148 21.9454 11.0157 21.8223 10.8777 21.7104C10.8031 21.6508 10.7993 21.6023 10.8777 21.5333C11.2631 21.1792 11.6303 20.8058 11.9779 20.4145C12.0692 20.3138 12.1401 20.3529 12.2296 20.4014C12.7575 20.7071 13.305 20.9775 13.8687 21.2107C14.8011 21.5501 15.767 21.537 16.7367 21.4997C17.5486 21.4443 18.3398 21.2181 19.0583 20.8359C19.3305 20.7016 19.6177 20.5991 19.8937 20.4629C19.9502 20.4297 20.0166 20.4176 20.0812 20.4289C20.1458 20.4401 20.2042 20.474 20.2461 20.5245C20.6414 20.8788 20.992 21.2704 21.365 21.6433C21.4862 21.7608 21.3929 21.8 21.3183 21.8615C20.4358 22.5644 19.4035 23.055 18.3012 23.2955C17.5448 23.4739 16.7698 23.5609 15.9926 23.5547V23.5547Z" fill="#F7A404"/>
    <path d="M15.9916 6.5469C17.655 6.58792 19.3295 6.91984 20.8567 7.82424C21.0562 7.93986 21.2297 8.08902 21.4311 8.20837C21.5653 8.29042 21.5355 8.34636 21.4441 8.43959C21.129 8.75846 20.784 9.04191 20.4465 9.33281C20.3029 9.45775 20.2003 9.70577 20.0232 9.69272C19.846 9.67967 19.7118 9.50624 19.5533 9.40927C18.7015 8.8469 17.7451 8.46193 16.7412 8.27736C15.7298 8.11719 14.6935 8.25321 13.7577 8.66898C13.166 8.9323 12.5972 9.24416 12.057 9.60135C11.919 9.68899 11.8482 9.67221 11.7456 9.55286C11.4547 9.21534 11.1545 8.88154 10.8449 8.56081C10.733 8.44146 10.7573 8.37433 10.8617 8.28109C11.6654 7.49977 12.6444 7.0597 13.7166 6.8005C14.463 6.63037 15.2261 6.5453 15.9916 6.5469Z" fill="#004DB1"/>
    <path d="M7.51172 14.9177C7.5341 12.9486 8.20913 11.2908 9.36154 9.80836C9.43613 9.71325 9.47715 9.71139 9.56293 9.80836C9.88926 10.1552 10.223 10.4964 10.5606 10.8321C10.5805 10.847 10.5974 10.8657 10.61 10.8871C10.6226 10.9086 10.6308 10.9323 10.6341 10.957C10.6374 10.9817 10.6358 11.0068 10.6292 11.0308C10.6227 11.0548 10.6114 11.0773 10.596 11.0969C10.1964 11.8116 9.8613 12.5604 9.59463 13.3346C9.18066 14.6026 9.32611 15.8445 9.75686 17.0641C9.99235 17.73 10.2631 18.383 10.568 19.0202C10.6128 19.1115 10.637 19.1787 10.5326 19.2645C10.1951 19.5442 9.86502 19.8351 9.53869 20.1278C9.44172 20.2136 9.39324 20.2136 9.31679 20.1036C8.15878 18.4458 7.53037 16.7004 7.51172 14.9177Z" fill="#1B850F"/>
    <path d="M40.4719 15.186C40.4719 14.0112 40.4719 12.8345 40.4719 11.6579C40.4719 11.4714 40.5241 11.4304 40.6956 11.4397C40.925 11.4546 41.1562 11.4397 41.3874 11.4397C41.5105 11.4374 41.6328 11.46 41.7469 11.506C41.8611 11.5521 41.9648 11.6207 42.0518 11.7077C42.1388 11.7948 42.2074 11.8984 42.2535 12.0126C42.2995 12.1267 42.3221 12.249 42.3198 12.3721C42.3198 14.5165 42.3198 16.661 42.3198 18.8036C42.3198 18.9509 42.2676 18.9751 42.1333 18.9733C41.6355 18.9733 41.1357 18.9733 40.6416 18.9733C40.4924 18.9733 40.4551 18.9341 40.4551 18.7868C40.4719 17.584 40.4719 16.385 40.4719 15.186Z" fill="black"/>
    <path d="M41.3898 10.7682C41.1437 10.7682 40.8994 10.7682 40.6533 10.7682C40.5227 10.7682 40.4668 10.744 40.4668 10.5986C40.478 10.1976 40.4668 9.79485 40.4668 9.39394C40.4668 9.27086 40.4985 9.22238 40.629 9.22797C40.8957 9.22797 41.1642 9.22797 41.4327 9.22797C41.6691 9.23562 41.8934 9.33407 42.0591 9.50286C42.2247 9.67164 42.319 9.89776 42.3222 10.1342C42.3222 10.3338 42.3893 10.5911 42.2905 10.7179C42.1917 10.8447 41.9176 10.7496 41.718 10.7608C41.6136 10.7738 41.5017 10.7682 41.3898 10.7682Z" fill="black"/>
    <path fill-rule="evenodd" clip-rule="evenodd" d="M34.6089 11.6799C34.3883 11.8725 34.1848 12.084 34.001 12.312L34.0029 12.1087V10.0986C34.0127 9.96972 33.9945 9.84026 33.9496 9.71909C33.9047 9.59792 33.8341 9.48787 33.7427 9.39649C33.6514 9.30512 33.5413 9.23457 33.4202 9.18967C33.299 9.14477 33.1695 9.12658 33.0407 9.13636C32.9711 9.13636 32.9015 9.13822 32.8318 9.14009C32.6926 9.14382 32.5534 9.14755 32.4141 9.13636C32.237 9.1233 32.1978 9.18483 32.1978 9.35638V15.6126C32.1925 15.988 32.2262 16.363 32.2985 16.7315C32.3559 17.108 32.5018 17.4655 32.7242 17.7748C32.9465 18.084 33.2391 18.3361 33.5777 18.5104C34.4145 18.9655 35.3766 19.1363 36.3189 18.9971C37.4172 18.8293 38.193 18.2568 38.5864 17.1958C38.8998 16.3091 39.002 15.3616 38.8848 14.4285C38.8168 13.5553 38.4785 12.725 37.917 12.0528C37.0331 11.0123 35.4313 10.9974 34.6089 11.6799ZM36.8859 16.4097C37.0286 15.9943 37.0956 15.5566 37.0835 15.1174C37.0995 14.6997 37.031 14.283 36.8821 13.8923C36.6807 13.4019 36.3731 13.0084 35.8136 12.9208C35.0099 12.7977 34.4132 13.1613 34.1615 13.9427C33.9176 14.7221 33.9131 15.5568 34.1484 16.3389C34.3368 17.0008 34.8179 17.3943 35.3941 17.4092C36.1586 17.426 36.6267 17.1146 36.8859 16.4097Z" fill="black"/>
    <path fill-rule="evenodd" clip-rule="evenodd" d="M49.9601 15.6397H52.1045C52.2476 15.6397 52.3907 15.6396 52.5337 15.6395C53.1066 15.6392 53.679 15.6389 54.249 15.6434C54.387 15.6434 54.4504 15.6136 54.4504 15.457C54.4647 14.9429 54.4266 14.4286 54.3366 13.9222C54.1688 13.0943 53.8536 12.3466 53.1469 11.8188C52.4756 11.3172 51.7036 11.1848 50.8887 11.2202C49.5852 11.278 48.6864 11.9177 48.2072 13.1223C47.8044 14.1348 47.8082 15.1847 47.9685 16.2439C48.2426 18.0639 49.5386 19.1305 51.3698 19.041C52.8057 18.9701 53.8853 18.1347 54.2844 16.7884C54.3236 16.6616 54.3273 16.6019 54.1501 16.6019H53.0108C52.8731 16.5968 52.7364 16.6264 52.6133 16.6879C52.4901 16.7495 52.3844 16.8411 52.3059 16.9543C51.8546 17.5473 50.7805 17.5902 50.2547 17.055C49.9209 16.7156 49.8258 16.2867 49.7736 15.8373C49.7493 15.6695 49.8053 15.6397 49.9601 15.6397ZM49.931 14.399H51.1375L52.3663 14.4009L52.3702 14.4009C52.4577 14.4009 52.5211 14.4009 52.5211 14.2759C52.5344 14.0517 52.4921 13.8276 52.3979 13.6236C52.3037 13.4196 52.1605 13.2421 51.9811 13.1068C51.8017 12.9715 51.5917 12.8827 51.3697 12.8482C51.1477 12.8137 50.9206 12.8346 50.7086 12.9091C50.4271 13.0115 50.1847 13.1994 50.0155 13.4466C49.8463 13.6937 49.7587 13.9877 49.765 14.2871C49.7683 14.4045 49.8328 14.4022 49.9013 14.3997C49.9112 14.3994 49.9211 14.399 49.931 14.399Z" fill="black"/>
    <path fill-rule="evenodd" clip-rule="evenodd" d="M30.3763 17.2198C30.6578 16.5463 30.7901 15.8198 30.7642 15.0902C30.7734 14.8002 30.7559 14.51 30.712 14.2232C30.6881 14.0612 30.6557 13.9006 30.615 13.742C30.2327 12.1496 29.2239 11.2918 27.6408 11.2172C25.9811 11.137 24.8119 11.9724 24.3961 13.5481C24.0981 14.6851 24.1292 15.8834 24.4856 17.0035C24.6067 17.4278 24.8307 17.8157 25.1378 18.1325C25.4449 18.4494 25.8256 18.6855 26.2459 18.8197C26.8002 19.022 27.3955 19.086 27.9801 19.0062C29.112 18.8496 29.9195 18.2771 30.3763 17.2198ZM26.2941 13.5658C26.086 14.0273 25.9895 14.5314 26.0125 15.0371C26.0044 15.4769 26.0578 15.9156 26.171 16.3406C26.3389 17.0361 26.8311 17.4594 27.4763 17.4594C28.0544 17.4632 28.5654 17.0473 28.7817 16.3946C28.8966 16.0251 28.9557 15.6404 28.957 15.2534C28.9719 14.6119 28.9308 13.9779 28.5467 13.4185C27.9034 12.475 26.6223 12.8423 26.2941 13.5658Z" fill="black"/>
    <path d="M70.9629 9.16992V7.04118H71.6821C71.8484 7.04118 71.985 7.06959 72.0917 7.12641C72.1984 7.18254 72.2774 7.25981 72.3287 7.3582C72.3799 7.4566 72.4056 7.56851 72.4056 7.69394C72.4056 7.81936 72.3799 7.93058 72.3287 8.02759C72.2774 8.12461 72.1987 8.20083 72.0927 8.25627C71.9867 8.31101 71.8512 8.33838 71.6863 8.33838H71.1042V8.10555H71.678C71.7916 8.10555 71.8831 8.08892 71.9524 8.05566C72.0224 8.0224 72.073 7.97528 72.1041 7.9143C72.136 7.85262 72.152 7.77917 72.152 7.69394C72.152 7.60871 72.136 7.53421 72.1041 7.47046C72.0723 7.40671 72.0213 7.35751 71.9513 7.32286C71.8814 7.28752 71.7889 7.26985 71.6738 7.26985H71.2206V9.16992H70.9629ZM71.9649 8.21365L72.4887 9.16992H72.1894L71.6738 8.21365H71.9649Z" fill="black"/>
    <path d="M71.6818 10.1926C72.8269 10.1926 73.7551 9.26437 73.7551 8.11932C73.7551 6.97426 72.8269 6.04601 71.6818 6.04601C70.5368 6.04601 69.6085 6.97426 69.6085 8.11932C69.6085 9.26437 70.5368 10.1926 71.6818 10.1926Z" stroke="black" stroke-width="0.243918"/>
</svg>