<svg width="121" height="121" viewBox="0 0 121 121" fill="none" xmlns="http://www.w3.org/2000/svg">
<g clip-path="url(#clip0_819_37904)">
<rect x="12.1665" y="12.166" width="96.6667" height="96.6667" rx="48.3333" fill="#303F9F"/>
<path d="M51.6036 72.6824C11.8746 91.612 -30.0596 66.0845 -36.5246 54.8414L47.5549 -56.5897L162.395 27.0977L115.679 84.7384C100.487 47.7606 65.66 67.5362 51.6036 72.6824Z" fill="#4054B2"/>
<path d="M55.034 74.9232C41.2461 108.116 3.94214 106.475 -7.79447 100.956L-2.63226 -38.5414L114.218 -46.9043L108.904 27.1001C89.3656 21.2521 68.8219 41.7303 55.034 74.9232Z" fill="#5C6BC0"/>
<path d="M62.4099 82.3483C78.8346 114.319 53.4787 141.73 41.6833 147.121L-61.449 53.0469L7.66952 -41.5396L60.7176 10.3332C43.6298 21.4668 45.9852 50.3779 62.4099 82.3483Z" fill="#7986CB"/>
<path fill-rule="evenodd" clip-rule="evenodd" d="M68.1351 63.8926H53.0165C45.5025 63.8926 39.4102 70.4064 39.4102 78.4389V85.0411C39.4064 86.8513 40.3513 88.5162 41.8518 89.3486L41.8556 89.3526C55.2848 97.136 68.1351 96.0021 79.248 89.3647H79.2518C80.7787 88.5404 81.7425 86.8675 81.7425 85.0411C81.7539 83.2348 81.7425 81.4937 81.7425 78.4389C81.7425 70.4058 75.6497 63.8926 68.1362 63.8926L68.1351 63.8926Z" fill="white"/>
<path d="M47.0303 46.8061C47.0303 39.3295 53.0995 33.2598 60.5766 33.2598C68.0532 33.2598 74.123 39.3295 74.123 46.8061C74.123 54.2827 68.0532 60.3525 60.5766 60.3525C53.1 60.3525 47.0303 54.2827 47.0303 46.8061Z" fill="white"/>
</g>
<rect x="6.1665" y="6.16602" width="108.667" height="108.667" rx="54.3333" stroke="white" stroke-width="12"/>
<defs>
<clipPath id="clip0_819_37904">
<rect x="12.1665" y="12.166" width="96.6667" height="96.6667" rx="48.3333" fill="white"/>
</clipPath>
</defs>
</svg>
