<svg width="32" height="32" viewBox="0 0 32 32" fill="none" xmlns="http://www.w3.org/2000/svg">
<rect width="32" height="32" rx="12" fill="#C5CAE9"/>
<g clip-path="url(#clip0_270_20313)">
<path fill-rule="evenodd" clip-rule="evenodd" d="M8.77659 8.08846C8.29059 8.25827 7.94724 8.64038 7.84076 9.13C7.80431 9.2975 7.79193 10.0655 7.80242 11.5045C7.81741 13.5615 7.82137 13.6388 7.92182 13.8561C8.0546 14.1434 8.36938 14.4581 8.65666 14.5909C8.8765 14.6925 8.93074 14.6948 11.1533 14.6948H13.4252L13.6628 14.5779C13.9556 14.4338 14.2246 14.1626 14.3748 13.8603L14.4886 13.6314V11.3836C14.4886 9.6347 14.4743 9.09554 14.4242 8.95395C14.3146 8.64406 14.0149 8.31366 13.7059 8.16193L13.4252 8.02412L11.2258 8.01266C9.21187 8.00217 9.00532 8.00855 8.77659 8.08846ZM17.6225 8.08846C17.1404 8.25696 16.7887 8.65092 16.6881 9.13537C16.6527 9.30586 16.6398 10.1013 16.6494 11.5115L16.6639 13.6314L16.7827 13.871C16.9339 14.176 17.1865 14.4287 17.4893 14.5777L17.7273 14.6948H19.9992C22.2218 14.6948 22.276 14.6925 22.4958 14.5909C22.7831 14.4581 23.0979 14.1434 23.2307 13.8561C23.3323 13.6363 23.3346 13.582 23.3346 11.3595V9.08756L23.1997 8.8129C23.0469 8.50175 22.8127 8.2747 22.4911 8.12592C22.2789 8.02774 22.1932 8.02373 20.0717 8.01266C18.0578 8.00217 17.8512 8.00855 17.6225 8.08846ZM19.7755 17.0723C19.4869 17.2514 19.4689 17.3388 19.4524 18.6434L19.4372 19.8368L18.2439 19.8523C16.9335 19.8693 16.8564 19.8845 16.6868 20.159C16.4826 20.4894 16.6236 20.928 16.9799 21.0706C17.138 21.1338 17.3802 21.148 18.3053 21.148H19.4372L19.4527 22.3444C19.4698 23.6581 19.4849 23.7348 19.7595 23.9045C20.048 24.0828 20.4451 24.001 20.6325 23.7245C20.7155 23.6021 20.7258 23.4721 20.74 22.3716L20.7557 21.1541L21.9485 21.1389C23.265 21.1223 23.3784 21.0987 23.5271 20.8112C23.6859 20.5042 23.5796 20.1066 23.2975 19.9524C23.1625 19.8786 22.9788 19.8649 21.9479 19.8519L20.7545 19.8368L20.7394 18.6434C20.7227 17.3262 20.6992 17.2129 20.4117 17.0642C20.2276 16.969 19.9359 16.9727 19.7755 17.0723ZM8.84136 17.1073C8.3513 17.2415 7.94662 17.6719 7.84351 18.1685C7.80764 18.3412 7.79454 19.1292 7.80392 20.5487C7.81741 22.5886 7.82185 22.6792 7.91974 22.8906C8.06853 23.2122 8.29557 23.4464 8.60672 23.5992L8.88138 23.7341H11.1533C13.3758 23.7341 13.4301 23.7318 13.6499 23.6302C13.9366 23.4977 14.2221 23.2122 14.3715 22.9086L14.4886 22.6706V20.3987V18.1268L14.3698 17.8872C14.2186 17.5822 13.966 17.3295 13.6632 17.1805L13.4252 17.0634L11.25 17.0534C9.57132 17.0457 9.02147 17.058 8.84136 17.1073Z" fill="#283593"/>
</g>
<defs>
<clipPath id="clip0_270_20313">
<rect width="15.8066" height="16" fill="white" transform="translate(7.79395 8)"/>
</clipPath>
</defs>
</svg>
