<svg width="116" height="56" viewBox="0 0 116 56" fill="none" xmlns="http://www.w3.org/2000/svg">
<path fill-rule="evenodd" clip-rule="evenodd" d="M0 20.9355V26.6129H5.45068H10.9014L5.45068 40.7044C2.45284 48.4544 0 54.8415 0 54.8979C0 54.954 2.68205 55.0001 5.95984 55.0001H11.9197L12.971 52.0727L14.0227 49.1453L23.2798 49.0509L32.537 48.9561L33.7054 51.9783L34.8735 55.0001H41.0366H47.2001L46.641 53.6695C46.003 52.1511 31.237 16.3786 30.9688 15.7016C30.8321 15.3563 27.3837 15.258 15.3965 15.258H0V20.9355ZM77.2415 34.8729C72.8126 45.6611 69.1893 54.6031 69.1893 54.7439C69.1893 54.8848 71.9451 55.0001 75.313 55.0001H81.4372L84.4024 47.9033C86.5533 42.7553 87.5266 40.8087 87.947 40.8147C88.2937 40.8193 90.524 43.6698 93.4942 47.9033L98.4616 54.9841L105.469 54.992C109.324 54.9966 112.477 54.91 112.477 54.8C112.477 54.6896 109.669 50.9248 106.236 46.4332C102.804 41.9417 100.05 38.2255 100.116 38.1751C100.182 38.1247 100.954 37.8057 101.832 37.4665C105.601 36.0106 110.135 31.9589 111.905 28.4651C112.8 26.6991 112.909 26.6129 114.257 26.6129H115.67V20.9355V15.258H110.072H104.473L104.077 17.7767C103.231 23.1472 99.8028 27.8573 95.5926 29.4324C93.9196 30.0584 91.8975 30.3987 91.8975 30.0541C91.8975 29.9952 93.1749 26.7101 94.7361 22.7537C96.2973 18.7972 97.5746 15.4922 97.5746 15.4092C97.5746 15.3262 94.8113 15.258 91.4341 15.258H85.2941L77.2415 34.8729ZM22.7026 25.1935C22.6877 25.2911 21.593 28.3251 20.2706 31.9356L17.8661 38.5001L20.4644 38.6037C21.8936 38.6609 24.2297 38.6609 25.6553 38.6037L28.2476 38.5001L25.4889 31.7581C23.9717 28.0501 22.7178 25.0959 22.7026 25.1935Z" fill="#283593"/>
<path d="M33.7874 11.5322L42.7068 33.1775L51.6258 54.8227L57.8684 54.9192L64.1111 55.0161L73.0848 33.1889L82.0581 11.3616L86.5 0H73L65.4949 19.25C61.4099 29.7397 57.9756 38.3216 57.8628 38.3206C57.75 38.3195 55.2789 32.132 52.3716 24.5704C49.4642 17.0092 46.1364 8.38732 44.9758 5.41129L42.8665 0H29.5L33.7874 11.5322Z" fill="#283593"/>
<path d="M65.4949 19.25L73 0H42.8665L44.9758 5.41129C46.1364 8.38732 49.4642 17.0092 52.3716 24.5704C55.2789 32.132 57.75 38.3195 57.8628 38.3206C57.9756 38.3216 61.4099 29.7397 65.4949 19.25Z" fill="#E8EAF6"/>
</svg>
