<svg width="100" height="48" viewBox="0 0 100 48" fill="none" xmlns="http://www.w3.org/2000/svg">
<path fill-rule="evenodd" clip-rule="evenodd" d="M0 5.30546V10.1806L14.5583 10.2595L29.1163 10.3388L36.8025 28.9356L44.4885 47.5324L49.8681 47.6153L55.2477 47.6985L62.9807 28.9453L70.7134 10.1921L85.2726 10.1132L99.8315 10.0339L99.9156 5.22985L100 0.425781L81.42 0.504437L62.8404 0.583092L56.4401 16.9696C52.9199 25.982 49.9604 33.3552 49.8632 33.3543C49.7659 33.3534 47.6366 28.0374 45.1312 21.5408C42.6258 15.0444 39.758 7.63676 38.7579 5.07986L36.9401 0.430659H18.4699H0V5.30546ZM0.123834 5.46094C0.12414 8.14375 0.170921 9.20042 0.227793 7.80932C0.284359 6.41791 0.284054 4.22288 0.226876 2.93147C0.169698 1.63976 0.123528 2.77812 0.123834 5.46094ZM0 18.4177V23.2956H4.69713H9.39425L4.69713 35.4024C2.11374 42.0609 0 47.5485 0 47.597C0 47.6452 2.31126 47.6848 5.1359 47.6848H10.2718L11.1778 45.1697L12.084 42.6545L20.0614 42.5734L28.0387 42.492L29.0456 45.0886L30.0522 47.6848H35.3633H40.6747L40.1928 46.5415C39.6431 45.237 26.9184 14.5026 26.6873 13.921C26.5696 13.6243 23.5978 13.5399 13.268 13.5399H0V18.4177ZM66.5627 30.3922C62.7462 39.661 59.6237 47.3436 59.6237 47.4647C59.6237 47.5857 61.9986 47.6848 64.9009 47.6848H70.1784L72.7336 41.5875C74.5871 37.1645 75.4258 35.492 75.7882 35.4972C76.0869 35.5012 78.0089 37.9501 80.5685 41.5875L84.8492 47.6711L90.888 47.6778C94.2095 47.6817 96.9268 47.6074 96.9268 47.5128C96.9268 47.418 94.5067 44.1834 91.549 40.3244C88.5914 36.4654 86.2177 33.2726 86.2746 33.2293C86.3315 33.186 86.9971 32.9119 87.7539 32.6205C91.0014 31.3696 94.9084 27.8887 96.4339 24.887C97.2053 23.3696 97.2995 23.2956 98.4608 23.2956H99.6786V18.4177V13.5399H94.854H90.0297L89.6879 15.7038C88.9592 20.3179 86.0049 24.3647 82.3768 25.718C80.9351 26.2558 79.1925 26.5482 79.1925 26.2521C79.1925 26.2015 80.2933 23.3791 81.6386 19.9798C82.984 16.5806 84.0847 13.7411 84.0847 13.6697C84.0847 13.5984 81.7035 13.5399 78.7932 13.5399H73.502L66.5627 30.3922ZM19.5639 22.0761C19.5511 22.1599 18.6078 24.7665 17.4682 27.8685L15.3961 33.5085L17.6352 33.5976C18.8668 33.6467 20.8799 33.6467 22.1085 33.5976L24.3424 33.5085L21.9651 27.7161C20.6576 24.5303 19.5771 21.9923 19.5639 22.0761Z" fill="#283593"/>
</svg>
