<svg width="205" height="98" viewBox="0 0 205 98" fill="none" xmlns="http://www.w3.org/2000/svg">
<path fill-rule="evenodd" clip-rule="evenodd" d="M0 10.0167V20.0239L29.7946 20.186L59.5886 20.3487L75.3192 58.5229L91.0491 96.6971L102.059 96.8673L113.069 97.0382L128.895 58.5429L144.72 20.0477L174.517 19.8856L204.313 19.7229L204.485 9.86146L204.658 0L166.632 0.161458L128.608 0.322916L115.509 33.96C108.305 52.4601 102.248 67.5952 102.049 67.5934C101.85 67.5915 97.492 56.6793 92.3644 43.3434C87.2369 30.008 81.3678 14.8022 79.321 9.55356L75.6008 0.0100129H37.8001H0V10.0167ZM0.253436 10.3358C0.254061 15.8429 0.349804 18.012 0.466196 15.1564C0.581963 12.3002 0.581337 7.79442 0.464319 5.1435C0.347301 2.49196 0.25281 4.82872 0.253436 10.3358ZM0 36.9326V46.9455H9.61303H19.2261L9.61303 71.7975C4.32593 85.4658 0 96.7303 0 96.8298C0 96.9287 4.73017 97.01 10.511 97.01H21.022L22.8762 91.8471L24.7309 86.6842L41.0572 86.5178L57.3834 86.3507L59.4441 91.6807L61.5041 97.01H72.3737H83.2439L82.2577 94.6633C81.1326 91.9854 55.0906 28.896 54.6176 27.702C54.3766 27.093 48.2948 26.9197 27.1539 26.9197H0V36.9326ZM136.226 61.513C128.415 80.5394 122.025 96.3097 122.025 96.5582C122.025 96.8066 126.885 97.01 132.825 97.01H143.625L148.855 84.4939C152.648 75.4147 154.365 71.9815 155.106 71.9922C155.718 72.0003 159.651 77.0274 164.89 84.4939L173.65 96.9819L186.009 96.9956C192.807 97.0038 198.368 96.8511 198.368 96.6571C198.368 96.4624 193.415 89.8226 187.362 81.9012C181.309 73.9797 176.451 67.4256 176.568 67.3368C176.684 67.2479 178.046 66.6853 179.595 66.087C186.241 63.5194 194.237 56.3739 197.359 50.2122C198.938 47.0976 199.131 46.9455 201.508 46.9455H204V36.9326V26.9197H194.126H184.253L183.553 31.3617C182.062 40.8332 176.016 49.1402 168.59 51.9182C165.64 53.0221 162.074 53.6222 162.074 53.0146C162.074 52.9107 164.326 47.117 167.08 40.1392C169.833 33.1615 172.086 27.3327 172.086 27.1863C172.086 27.0398 167.212 26.9197 161.256 26.9197H150.427L136.226 61.513ZM40.0391 44.4423C40.0128 44.6144 38.0823 49.965 35.7501 56.3326L31.5092 67.91L36.0917 68.0928C38.6123 68.1935 42.7324 68.1935 45.2467 68.0928L49.8186 67.91L44.9532 56.0197C42.2774 49.48 40.066 44.2702 40.0391 44.4423Z" fill="white"/>
</svg>
