<svg width="200" height="200" viewBox="0 0 200 200" fill="none" xmlns="http://www.w3.org/2000/svg">
<path d="M183.331 51.9856C181.437 53.0833 179.709 54.0454 179.49 54.1235C179.271 54.2017 180.043 56.1755 181.206 58.5097C191.603 79.3751 193.818 102.074 187.648 124.53C179.703 153.445 157.454 176.856 128.946 186.3C118.516 189.755 110.828 190.969 99.5071 190.95C81.4065 190.92 65.4861 186.197 50.2609 176.339C46.0041 173.582 40.493 169.305 40.493 168.757C40.493 168.565 42.4161 168.408 44.7664 168.408H49.0399V163.937V159.466L36.8179 159.56L24.5954 159.654L24.5063 171.971L24.4168 184.287H28.7919H33.1671V179.605C33.1671 177.029 33.3279 174.922 33.5245 174.922C33.7206 174.922 34.1236 175.214 34.4194 175.571C35.3885 176.739 44.2825 183.251 47.8189 185.381C70.5743 199.091 97.3822 203.356 122.954 197.335C134.555 194.604 147.463 188.896 156.893 182.328C167.206 175.145 176.961 165.101 183.857 154.565C196.742 134.876 202.476 108.675 199.003 85.3504C197.326 74.0867 193.377 62.0332 188.375 52.9111L186.773 49.9894L183.331 51.9856Z" fill="#7986CB"/>
<path fill-rule="evenodd" clip-rule="evenodd" d="M91.7742 27.0781C77.6694 30.1565 66.3334 40.2163 61.651 53.8092C60.0039 58.5911 59.6217 62.4309 59.6217 74.2072V85.3504H58.647C56.8224 85.3504 52.5046 86.9786 50.5999 88.3852C48.197 90.1596 46.2792 92.9355 45.3151 96.0339C44.6248 98.2524 44.5633 100.152 44.5678 119.078C44.5727 140.387 44.6716 141.874 46.2902 144.997C47.5743 147.475 50.2759 150.043 53.0211 151.395L55.7382 152.733H100.109H144.48L146.43 151.824C149.133 150.564 152.455 147.293 153.872 144.496L155.062 142.147V119.143V96.1397L153.871 93.7872C151.732 89.5623 147.727 86.5677 142.897 85.5837L140.41 85.0764L140.182 72.0831C139.961 59.451 139.924 58.9897 138.856 55.5115C135.382 44.1843 127.988 35.4107 117.674 30.378C111.717 27.471 108.274 26.6583 101.135 26.4747C96.4713 26.355 94.508 26.4816 91.7742 27.0781ZM94.5121 41.1612C85.8097 42.9816 78.472 49.59 75.3374 58.4307L74.0932 61.9395L73.9426 73.6449L73.7924 85.3504H99.8771H125.962V74.4226C125.962 64.8791 125.86 63.097 125.159 60.3553C122.913 51.5679 116.395 44.6631 107.647 41.8017C104.203 40.6751 98.2291 40.384 94.5121 41.1612ZM64.4767 106.42C64.4613 106.588 64.4727 108.146 64.5028 109.881C64.5406 112.069 64.4096 113.036 64.0759 113.036C63.8113 113.036 62.5635 112.41 61.303 111.645C60.0425 110.879 58.789 110.192 58.5179 110.118C58.1052 110.005 54.4989 115.442 54.831 115.676C54.8916 115.719 56.0402 116.362 57.3832 117.106C57.5447 117.195 57.6992 117.28 57.847 117.362C59.4966 118.272 60.2988 118.715 60.2989 119.158C60.2989 119.577 59.5801 119.996 58.181 120.812C58.0483 120.89 57.9095 120.971 57.7646 121.055C54.8058 122.788 54.7028 122.898 55.2518 123.751C55.5664 124.24 56.3295 125.51 56.9478 126.574C57.5656 127.637 58.1248 128.508 58.1907 128.508C58.2567 128.508 59.5639 127.775 61.0962 126.879C62.6286 125.983 64.0067 125.251 64.1589 125.251C64.3111 125.251 64.3909 126.808 64.3359 128.711L64.2366 132.172H67.6269H71.0175V128.711C71.0175 126.808 71.1148 125.251 71.2337 125.251C71.3525 125.251 72.7513 125.989 74.3423 126.891C75.9336 127.792 77.2665 128.48 77.3044 128.417C78.6552 126.196 80.3759 123.087 80.369 122.88C80.3637 122.728 79.0817 121.885 77.5201 121.007C75.9584 120.128 74.6805 119.3 74.6805 119.167C74.6805 119.033 75.7334 118.336 77.0207 117.616C77.2434 117.492 77.4521 117.376 77.6475 117.267C79.4952 116.238 80.1524 115.872 80.2168 115.422C80.2524 115.173 80.1074 114.898 79.8823 114.472C79.8393 114.391 79.7933 114.304 79.7451 114.21C79.3544 113.452 78.6072 112.153 78.0842 111.323L77.1334 109.812L74.0753 111.621L71.0175 113.43V109.772V106.115H67.7616C65.9708 106.115 64.4926 106.252 64.4767 106.42ZM96.6581 109.576C96.6581 111.479 96.5177 113.036 96.3464 113.036C96.175 113.036 94.7746 112.3 93.2345 111.399C91.6945 110.499 90.4047 109.812 90.3685 109.872C88.6684 112.716 87.2973 115.201 87.2973 115.437C87.2973 115.606 88.5752 116.463 90.1369 117.342C91.6985 118.221 92.9805 119.043 92.9858 119.17C92.9911 119.296 91.7136 120.12 90.1471 121.002C88.581 121.883 87.2989 122.732 87.2981 122.888C87.2973 123.116 89.968 127.93 90.379 128.442C90.4401 128.518 91.7726 127.831 93.3399 126.915C94.9072 126 96.2951 125.251 96.4237 125.251C96.5527 125.251 96.6581 126.808 96.6581 128.711V132.172H99.9141H103.17V128.711C103.17 126.631 103.336 125.251 103.585 125.251C103.813 125.251 104.683 125.681 105.518 126.207C106.353 126.733 107.617 127.463 108.327 127.83L109.618 128.496L111.075 125.891C111.876 124.458 112.531 123.121 112.531 122.919C112.531 122.717 111.249 121.831 109.683 120.95C108.117 120.068 106.837 119.255 106.841 119.143C106.844 119.031 108.126 118.249 109.689 117.405C111.252 116.562 112.531 115.662 112.531 115.406C112.531 115.15 111.854 113.782 111.026 112.367L109.521 109.793L108.279 110.525C107.596 110.928 106.167 111.766 105.103 112.389L103.17 113.521V109.818V106.115H99.9141H96.6581V109.576ZM129.098 106.37C128.94 106.528 128.811 108.182 128.811 110.046V113.434L126.063 111.762C124.553 110.842 123.195 110.019 123.047 109.933C122.791 109.783 119.303 115.497 119.54 115.679C119.602 115.727 121.004 116.548 122.655 117.503L125.657 119.239L122.949 120.75C121.459 121.581 120.077 122.43 119.876 122.636C119.659 122.859 120.17 124.131 121.136 125.773L122.762 128.536L125.074 127.239C126.346 126.526 127.56 125.787 127.773 125.597C128.744 124.727 129.014 125.382 129.014 128.609V131.969L132.372 132.087L135.73 132.205V128.728C135.73 126.815 135.867 125.258 136.035 125.266C136.203 125.275 137.529 125.99 138.983 126.857C140.437 127.724 141.75 128.356 141.901 128.263C142.281 128.029 145.197 122.773 145.026 122.633C144.95 122.571 143.65 121.836 142.14 121C140.629 120.165 139.393 119.352 139.393 119.195C139.393 119.038 140.629 118.205 142.14 117.343C143.65 116.482 144.957 115.716 145.043 115.641C145.129 115.567 144.438 114.224 143.506 112.656L141.814 109.805L138.787 111.595L135.76 113.385L135.643 109.852L135.526 106.318L132.455 106.201C130.766 106.136 129.256 106.213 129.098 106.37Z" fill="#4054B2"/>
<path d="M90.9037 0.248006C70.5291 2.22755 50.897 10.4401 35.5313 23.4117C4.25835 49.8123 -7.75 92.475 5.05687 131.68C6.83829 137.134 11.5623 147.714 13.0714 149.629C13.1377 149.714 14.9289 148.821 17.0518 147.644L20.9109 145.506L18.7351 141.18C11.9054 127.6 9.01407 115.415 9.01407 100.211C9.01407 92.6407 9.35432 88.8632 10.6282 82.2968C16.0807 54.1875 34.9445 29.9224 60.9522 17.5639C91.2728 3.15584 127.682 6.7546 154.248 26.7849C156.262 28.304 158.369 29.9147 158.928 30.3641L159.946 31.1821L155.367 31.1911L150.788 31.2V35.6786V40.1572H163.202H175.615V27.7393V15.3213H171.138H166.661V20.2218V25.1221L163.507 22.5539C149.284 10.9747 133.12 3.77266 115.176 1.02118C109.193 0.10347 96.5393 -0.299198 90.9037 0.248006Z" fill="#5C6BC0"/>
<path d="M96.6581 109.576C96.6581 111.479 96.5177 113.036 96.3464 113.036C96.175 113.036 94.7746 112.3 93.2345 111.399C91.6945 110.499 90.4047 109.812 90.3685 109.872C88.6684 112.716 87.2973 115.201 87.2973 115.437C87.2973 115.606 88.5752 116.463 90.1369 117.342C91.6985 118.221 92.9805 119.043 92.9858 119.17C92.9911 119.296 91.7136 120.12 90.1471 121.002C88.581 121.883 87.2989 122.732 87.2981 122.888C87.2973 123.116 89.968 127.93 90.379 128.442C90.4401 128.518 91.7726 127.831 93.3399 126.915C94.9072 126 96.2951 125.251 96.4237 125.251C96.5527 125.251 96.6581 126.808 96.6581 128.711V132.172H99.9141H103.17V128.711C103.17 126.631 103.336 125.251 103.585 125.251C103.813 125.251 104.683 125.681 105.518 126.207C106.353 126.733 107.617 127.463 108.327 127.83L109.618 128.496L111.075 125.891C111.876 124.458 112.531 123.121 112.531 122.919C112.531 122.717 111.249 121.831 109.683 120.95C108.117 120.068 106.837 119.255 106.841 119.143C106.844 119.031 108.126 118.249 109.689 117.405C111.252 116.562 112.531 115.662 112.531 115.406C112.531 115.15 111.854 113.782 111.026 112.367L109.521 109.793L108.279 110.525C107.596 110.928 106.167 111.766 105.103 112.389L103.17 113.521V109.818V106.115H99.9141H96.6581V109.576Z" fill="#9FA8DA"/>
<path d="M129.098 106.37C128.94 106.528 128.811 108.182 128.811 110.046V113.434L126.063 111.762C124.553 110.842 123.195 110.019 123.047 109.933C122.791 109.783 119.303 115.497 119.54 115.679C119.602 115.727 121.004 116.548 122.655 117.503L125.657 119.239L122.949 120.75C121.459 121.581 120.077 122.43 119.876 122.636C119.659 122.859 120.17 124.131 121.136 125.773L122.762 128.536L125.074 127.239C126.346 126.526 127.56 125.787 127.773 125.597C128.744 124.727 129.014 125.382 129.014 128.609V131.969L132.372 132.087L135.73 132.205V128.728C135.73 126.815 135.867 125.258 136.035 125.266C136.203 125.275 137.529 125.99 138.983 126.857C140.437 127.724 141.75 128.356 141.901 128.263C142.281 128.029 145.197 122.773 145.026 122.633C144.95 122.571 143.65 121.836 142.14 121C140.629 120.165 139.393 119.352 139.393 119.195C139.393 119.038 140.629 118.205 142.14 117.343C143.65 116.482 144.957 115.716 145.043 115.641C145.129 115.567 144.438 114.224 143.506 112.656L141.814 109.805L138.787 111.595L135.76 113.385L135.643 109.852L135.526 106.318L132.455 106.201C130.766 106.136 129.256 106.213 129.098 106.37Z" fill="#9FA8DA"/>
<path d="M64.4767 106.42C64.4613 106.588 64.4727 108.146 64.5028 109.881C64.5406 112.069 64.4096 113.036 64.0759 113.036C63.8113 113.036 62.5635 112.41 61.303 111.645C60.0425 110.879 58.789 110.192 58.5179 110.118C58.1052 110.005 54.4989 115.442 54.831 115.676C54.8916 115.719 56.0402 116.362 57.3832 117.106C57.5447 117.195 57.6992 117.28 57.847 117.362C59.4966 118.272 60.2988 118.715 60.2989 119.158C60.2989 119.577 59.5801 119.996 58.181 120.812C58.0483 120.89 57.9095 120.971 57.7646 121.055C54.8058 122.788 54.7028 122.898 55.2518 123.751C55.5664 124.24 56.3295 125.51 56.9478 126.574C57.5656 127.637 58.1248 128.508 58.1907 128.508C58.2567 128.508 59.5639 127.775 61.0962 126.879C62.6286 125.983 64.0067 125.251 64.1589 125.251C64.3111 125.251 64.3909 126.808 64.3359 128.711L64.2366 132.172H67.6269H71.0175V128.711C71.0175 126.808 71.1148 125.251 71.2337 125.251C71.3525 125.251 72.7513 125.989 74.3423 126.891C75.9336 127.792 77.2665 128.48 77.3044 128.417C78.6552 126.196 80.3759 123.087 80.369 122.88C80.3637 122.728 79.0817 121.885 77.5201 121.007C75.9584 120.128 74.6805 119.3 74.6805 119.167C74.6805 119.033 75.7334 118.336 77.0207 117.616C77.2434 117.492 77.4521 117.376 77.6475 117.267C79.4952 116.238 80.1524 115.872 80.2168 115.422C80.2524 115.173 80.1074 114.898 79.8823 114.472C79.8393 114.391 79.7933 114.304 79.7451 114.21C79.3544 113.452 78.6072 112.153 78.0842 111.323L77.1334 109.812L74.0753 111.621L71.0175 113.43V109.772V106.115H67.7616C65.9708 106.115 64.4926 106.252 64.4767 106.42Z" fill="#9FA8DA"/>
</svg>
