<svg width="150" height="150" viewBox="0 0 150 150" fill="none" xmlns="http://www.w3.org/2000/svg">
<g clip-path="url(#clip0_529_15491)">
<rect width="150" height="150" rx="75" fill="#C5CAE9"/>
<path opacity="0.22" d="M134.558 61.7297C143.248 94.7552 123.52 128.584 90.4864 137.276C71.185 142.354 51.6066 137.72 36.9348 126.397C51.9824 141.605 74.5124 148.581 96.6856 142.747C129.719 134.055 149.449 100.234 140.759 67.2089C137.148 53.4848 129.196 42.0583 118.764 34.0131C126.13 41.4592 131.703 50.8773 134.558 61.7297Z" fill="#E8EAF6"/>
<path d="M48.4086 82.4879C46.6972 80.8234 43.9464 82.6677 44.8373 84.887C49.7605 97.1872 61.7793 105.869 75.8377 105.869C89.6539 105.869 101.509 97.4762 106.58 85.5043C107.502 83.3162 104.736 81.4251 103.032 83.074C93.2798 92.5297 72.5868 105.977 48.4086 82.4879Z" fill="#5C6BC0"/>
<path d="M92.9153 61.0546C94.7986 65.7668 99.292 68.8145 104.371 68.8145C109.334 68.8145 113.796 65.8527 115.734 61.2812C116.101 60.4059 115.812 59.4135 115.023 58.8743C114.241 58.3351 113.21 58.4211 112.53 59.0853C108.834 62.6722 102.988 65.548 96.1349 58.8899C95.752 58.5148 95.2519 58.3273 94.7517 58.3273C94.3688 58.3273 93.9859 58.4367 93.6498 58.6633C92.8606 59.1947 92.5558 60.1716 92.9153 61.0546Z" fill="#5C6BC0"/>
<path d="M35.6799 61.0546C37.5711 65.7668 42.0645 68.8145 47.1439 68.8145C52.1062 68.8145 56.5683 65.8527 58.5063 61.2812C58.8736 60.4059 58.5845 59.4213 57.803 58.8743C57.0138 58.3351 55.9822 58.4211 55.2945 59.0853C51.606 62.6722 45.7607 65.548 38.9073 58.8899C38.5244 58.5148 38.0244 58.3273 37.5242 58.3273C37.1413 58.3273 36.7583 58.4367 36.4223 58.6633C35.6331 59.1947 35.3283 60.1716 35.6799 61.0546Z" fill="#5C6BC0"/>
</g>
<defs>
<clipPath id="clip0_529_15491">
<rect width="150" height="150" rx="75" fill="white"/>
</clipPath>
</defs>
</svg>
