<svg width="20" height="20" viewBox="0 0 20 20" fill="none" xmlns="http://www.w3.org/2000/svg">
<path d="M0 14.8135V4.18848C0.0156237 4.14687 0.0286692 4.10434 0.0390625 4.06113C0.245313 2.88457 1.26953 2.00449 2.46563 2.00332C7.48854 1.99889 12.5113 1.99889 17.534 2.00332C18.6727 2.00332 19.659 2.80332 19.927 3.90996C19.9496 4.00332 19.977 4.0959 20 4.18887V14.8135C19.9858 14.8416 19.9744 14.871 19.966 14.9014C19.7805 15.9389 19.059 16.7373 18.0344 16.9295C17.5547 17.0201 17.0508 16.9975 16.5582 16.9979C11.8806 17.0023 7.20273 17.0023 2.52461 16.9979C1.37461 16.9979 0.408594 16.2705 0.0960938 15.185C0.0605469 15.0646 0.0320312 14.9389 0 14.8135ZM6.80508 9.31855C6.49258 9.62715 6.19727 9.91855 5.90664 10.2135L2.72383 13.3873C2.53164 13.5783 2.44297 13.7947 2.52383 14.0576C2.66836 14.535 3.22695 14.6498 3.60234 14.2775C4.92474 12.9601 6.24557 11.6393 7.56484 10.315C7.61355 10.2576 7.65769 10.1965 7.69687 10.1322C7.80625 10.2322 7.87852 10.2947 7.95 10.3592L9.54063 11.8045C9.84297 12.0779 10.1586 12.0748 10.4625 11.8006C11.0128 11.3027 11.5628 10.804 12.1125 10.3045C12.1625 10.2576 12.218 10.2115 12.2801 10.1545C12.7773 10.6529 13.2637 11.1416 13.75 11.6291L16.4 14.2791C16.5797 14.4592 16.7855 14.5439 17.0363 14.4768C17.5219 14.3451 17.6613 13.7799 17.2934 13.4092C16.4079 12.5175 15.5198 11.6288 14.6289 10.7432C14.1555 10.2701 13.6789 9.79824 13.1973 9.31621C13.2602 9.25684 13.3113 9.20762 13.3637 9.15996L15.2988 7.40215L17.2785 5.60215C17.4691 5.4291 17.5449 5.21621 17.482 4.96855C17.4579 4.85912 17.4033 4.75875 17.3245 4.6791C17.2457 4.59945 17.1459 4.54378 17.0367 4.51855C16.7867 4.45215 16.5844 4.54355 16.3977 4.71387C14.3201 6.60632 12.2396 8.49746 10.1562 10.3873C10.1062 10.4338 10.0523 10.4783 9.99687 10.5268L7.01953 7.82129C5.8737 6.78275 4.72721 5.74264 3.58008 4.70098C3.39922 4.53613 3.19727 4.45684 2.95508 4.5248C2.84672 4.5509 2.74788 4.60692 2.66983 4.68649C2.59178 4.76606 2.53767 4.86596 2.51367 4.9748C2.45352 5.2248 2.5332 5.43496 2.72383 5.60723C3.54362 6.35046 4.36263 7.0946 5.18086 7.83965L6.80508 9.31855Z" fill="#4054B2"/>
</svg>
