<svg width="20" height="20" viewBox="0 0 20 20" fill="none" xmlns="http://www.w3.org/2000/svg">
<g clip-path="url(#clip0_1150_17320)">
<path fill-rule="evenodd" clip-rule="evenodd" d="M6.46721 6.73485L6.659 6.5679C6.54672 6.434 6.42581 6.27758 6.29627 6.09863C5.20367 4.59318 4.27743 2.97376 3.53374 1.26874L3.32132 0.715477C3.67551 0.601483 4.04411 0.538396 4.41606 0.528108C4.63224 0.520355 4.84645 0.571691 5.03563 0.676595C5.22481 0.7815 5.38181 0.936001 5.48974 1.12348L7.49163 4.54285C7.63599 4.78413 7.69024 5.06873 7.64476 5.34619C7.59929 5.62366 7.45703 5.87605 7.24321 6.05863L6.46721 6.73442V6.73485ZM18.8771 14.5106L15.4565 12.5079C15.2152 12.3635 14.9306 12.3092 14.6532 12.3547C14.3757 12.4001 14.1233 12.5423 13.9407 12.7561L12.8371 14.0237C12.6488 14.2407 12.3897 14.3839 12.1058 14.428C11.8219 14.472 11.5316 14.414 11.2864 14.2643C9.02604 12.8752 7.12444 10.9735 5.73542 8.71316C5.58557 8.46805 5.52749 8.17774 5.57151 7.89384C5.61553 7.60995 5.7588 7.35086 5.97584 7.16263L6.21037 6.95842C6.11002 6.83211 5.98925 6.67569 5.84806 6.48916C4.71477 4.93366 3.75516 3.25877 2.98637 1.49442L2.77121 0.938214C2.20775 1.21815 1.71899 1.62817 1.34534 2.13437C0.971688 2.64058 0.723872 3.22844 0.622371 3.84937C0.340477 5.44937 0.685529 7.33653 1.61795 9.30874C2.57948 11.2671 3.86623 13.0481 5.42342 14.5761C6.95151 16.1332 8.73254 17.4199 10.6908 18.3816C12.2158 19.1035 13.6906 19.4734 15.0207 19.4734C15.3993 19.4745 15.7773 19.4425 16.1504 19.3776C16.7696 19.2762 17.3559 19.0293 17.8611 18.6573C18.3664 18.2853 18.7762 17.7987 19.0569 17.2376C18.8904 17.1711 18.7067 17.0962 18.5057 17.0132C16.7412 16.2445 15.0661 15.285 13.5104 14.1517L13.055 13.7727L13.4215 13.3517C13.5491 13.444 13.7088 13.5611 13.9007 13.7028C15.4062 14.7954 17.0257 15.7215 18.7308 16.4649L19.2826 16.686C19.3979 16.3292 19.4617 15.9578 19.4721 15.5831C19.4798 15.3671 19.4284 15.1531 19.3236 14.9642C19.2188 14.7752 19.0644 14.6184 18.8771 14.5106Z" fill="#4054B2"/>
</g>
<defs>
<clipPath id="clip0_1150_17320">
<rect width="20" height="20" fill="white"/>
</clipPath>
</defs>
</svg>
