<svg width="20" height="20" viewBox="0 0 20 20" fill="none" xmlns="http://www.w3.org/2000/svg">
<path d="M2.25597 10.3336L8.26904 11.1998V10.1816C8.26904 10.037 8.32983 9.89824 8.43802 9.79595C8.54621 9.69365 8.69296 9.63619 8.84597 9.63619H11.1537C11.3067 9.63619 11.4534 9.69365 11.5616 9.79595C11.6698 9.89824 11.7306 10.037 11.7306 10.1816V11.1998L17.7437 10.3329C18.0353 10.2986 18.3168 10.21 18.572 10.0723C18.8273 9.93453 19.0511 9.75035 19.2306 9.53037V7.27255C19.23 6.69407 18.9866 6.13945 18.554 5.73041C18.1214 5.32136 17.5347 5.09131 16.9229 5.09073H14.6152V4.36346C14.6146 3.78498 14.3713 3.23036 13.9386 2.82132C13.506 2.41227 12.9194 2.18222 12.3075 2.18164H7.69212C7.08027 2.18222 6.49365 2.41227 6.06101 2.82132C5.62837 3.23036 5.38504 3.78498 5.38443 4.36346V5.09073H3.07674C2.46488 5.09131 1.87827 5.32136 1.44563 5.73041C1.01298 6.13945 0.769654 6.69407 0.769043 7.27255V9.53037C0.948482 9.75048 1.17227 9.9348 1.42749 10.0727C1.6827 10.2105 1.96429 10.2992 2.25597 10.3336ZM6.92289 4.36346C6.92289 4.17057 7.00393 3.98559 7.14819 3.8492C7.29245 3.71281 7.48811 3.63619 7.69212 3.63619H12.3075C12.5115 3.63619 12.7072 3.71281 12.8514 3.8492C12.9957 3.98559 13.0767 4.17057 13.0767 4.36346V5.09073H6.92289V4.36346Z" fill="#4054B2"/>
<path d="M17.9175 11.4118L11.7306 12.3038V13.818C11.7306 13.9626 11.6698 14.1014 11.5616 14.2037C11.4534 14.306 11.3067 14.3634 11.1537 14.3634H8.84597C8.69296 14.3634 8.54621 14.306 8.43802 14.2037C8.32983 14.1014 8.26904 13.9626 8.26904 13.818V12.3038L2.08212 11.4118C1.61839 11.3464 1.17247 11.1966 0.769043 10.9707V15.9998C0.769654 16.5783 1.01298 17.1329 1.44563 17.5419C1.87827 17.951 2.46488 18.181 3.07674 18.1816H16.9229C17.5347 18.181 18.1214 17.951 18.554 17.5419C18.9866 17.1329 19.23 16.5783 19.2306 15.9998V10.9707C18.8272 11.1966 18.3812 11.3464 17.9175 11.4118Z" fill="#4054B2"/>
<path d="M10.5772 10.7266H9.42334V13.272H10.5772V10.7266Z" fill="#4054B2"/>
</svg>
