<svg width="20" height="20" viewBox="0 0 20 20" fill="none" xmlns="http://www.w3.org/2000/svg">
<g clip-path="url(#clip0_1150_17312)">
<path d="M17.6667 17.3327H16.95V2.33272C16.95 2.22605 16.9 2.12605 16.8133 2.06272C16.7267 2.00272 16.6167 1.98272 16.5167 2.01607L8.01666 4.77272C7.87667 4.81939 7.78333 4.94606 7.78333 5.08939V17.3327H7.11666V9.82606L3.15999 13.4194C3.08999 13.4827 3.04999 13.5727 3.04999 13.666V17.3327H2.33333C2.15 17.3327 2 17.4827 2 17.666C2 17.8527 2.15 17.9994 2.33333 17.9994H3.38332H7.17666H8.11666H16.6167H17.6667C17.85 17.9994 18 17.8527 18 17.666C18 17.4827 17.85 17.3327 17.6667 17.3327ZM14.0733 6.9494C14.0733 6.8694 14.14 6.80606 14.22 6.80606H15.31C15.39 6.80606 15.4533 6.8694 15.4533 6.9494V8.03938C15.4533 8.1194 15.39 8.18605 15.31 8.18605H14.22C14.14 8.18605 14.0733 8.1194 14.0733 8.03938V6.9494ZM14.0733 9.67606C14.0733 9.59606 14.14 9.52939 14.22 9.52939H15.31C15.39 9.52939 15.4533 9.59606 15.4533 9.67606V10.7627C15.4533 10.8427 15.39 10.9094 15.31 10.9094H14.22C14.14 10.9094 14.0733 10.8427 14.0733 10.7627V9.67606ZM14.0733 12.3994C14.0733 12.3194 14.14 12.2527 14.22 12.2527H15.31C15.39 12.2527 15.4533 12.3194 15.4533 12.3994V13.4894C15.4533 13.5694 15.39 13.6327 15.31 13.6327H14.22C14.14 13.6327 14.0733 13.5694 14.0733 13.4894V12.3994ZM14.0733 15.1227C14.0733 15.0427 14.14 14.9794 14.22 14.9794H15.31C15.39 14.9794 15.4533 15.0427 15.4533 15.1227V16.2127C15.4533 16.2927 15.39 16.3594 15.31 16.3594H14.22C14.14 16.3594 14.0733 16.2927 14.0733 16.2127V15.1227ZM11.6767 6.9494C11.6767 6.8694 11.7433 6.80606 11.8233 6.80606H12.9133C12.9933 6.80606 13.0567 6.8694 13.0567 6.9494V8.03938C13.0567 8.1194 12.9933 8.18605 12.9133 8.18605H11.8233C11.7433 8.18605 11.6767 8.1194 11.6767 8.03938V6.9494ZM11.6767 9.67606C11.6767 9.59606 11.7433 9.52939 11.8233 9.52939H12.9133C12.9933 9.52939 13.0567 9.59606 13.0567 9.67606V10.7627C13.0567 10.8427 12.9933 10.9094 12.9133 10.9094H11.8233C11.7433 10.9094 11.6767 10.8427 11.6767 10.7627V9.67606ZM11.6767 12.3994C11.6767 12.3194 11.7433 12.2527 11.8233 12.2527H12.9133C12.9933 12.2527 13.0567 12.3194 13.0567 12.3994V13.4894C13.0567 13.5694 12.9933 13.6327 12.9133 13.6327H11.8233C11.7433 13.6327 11.6767 13.5694 11.6767 13.4894V12.3994ZM11.6767 15.1227C11.6767 15.0427 11.7433 14.9794 11.8233 14.9794H12.9133C12.9933 14.9794 13.0567 15.0427 13.0567 15.1227V16.2127C13.0567 16.2927 12.9933 16.3594 12.9133 16.3594H11.8233C11.7433 16.3594 11.6767 16.2927 11.6767 16.2127V15.1227ZM9.27999 6.9494C9.27999 6.8694 9.34666 6.80606 9.42666 6.80606H10.5167C10.5967 6.80606 10.66 6.8694 10.66 6.9494V8.03938C10.66 8.1194 10.5967 8.18605 10.5167 8.18605H9.42666C9.34666 8.18605 9.27999 8.1194 9.27999 8.03938V6.9494ZM9.27999 9.67606C9.27999 9.59606 9.34666 9.52939 9.42666 9.52939H10.5167C10.5967 9.52939 10.66 9.59606 10.66 9.67606V10.7627C10.66 10.8427 10.5967 10.9094 10.5167 10.9094H9.42666C9.34666 10.9094 9.27999 10.8427 9.27999 10.7627V9.67606ZM9.27999 12.3994C9.27999 12.3194 9.34666 12.2527 9.42666 12.2527H10.5167C10.5967 12.2527 10.66 12.3194 10.66 12.3994V13.4894C10.66 13.5694 10.5967 13.6327 10.5167 13.6327H9.42666C9.34666 13.6327 9.27999 13.5694 9.27999 13.4894V12.3994ZM9.27999 15.1227C9.27999 15.0427 9.34666 14.9794 9.42666 14.9794H10.5167C10.5967 14.9794 10.66 15.0427 10.66 15.1227V16.2127C10.66 16.2927 10.5967 16.3594 10.5167 16.3594H9.42666C9.34666 16.3594 9.27999 16.2927 9.27999 16.2127V15.1227Z" fill="#4054B2"/>
</g>
<defs>
<clipPath id="clip0_1150_17312">
<rect width="20" height="20" fill="white"/>
</clipPath>
</defs>
</svg>
