<svg width="200" height="200" viewBox="0 0 200 200" fill="none" xmlns="http://www.w3.org/2000/svg">
<path d="M194.769 92.1567L194.773 92.153L169.549 72.6836V33.1739H118.362L113.418 29.3582C105.144 22.9717 93.6035 22.9717 85.3292 29.3582L80.4451 33.1739H33.2877H30.1768L30.1767 72.4467L4.95294 92.153L4.95772 92.1567C1.96207 94.2712 0 97.7527 0 101.698V104.201V187.452C0 193.902 5.22923 199.131 11.6797 199.131H112.082H188.046C194.497 199.131 199.726 193.902 199.726 187.452V101.698C199.726 97.7527 197.764 94.2712 194.769 92.1567Z" fill="#F6A654"/>
<path d="M113.418 29.3523C105.144 22.9659 93.6027 22.9659 85.3285 29.3523L80.4443 33.168H118.361L113.418 29.3523Z" fill="#CB6739"/>
<path d="M169.55 72.6777V102.125V105.678V111.853L194.769 92.1508L194.774 92.1471L169.55 72.6777Z" fill="#CB6739"/>
<path d="M30.177 93.0397V72.4434L4.95312 92.1497L4.95791 92.1534L30.2882 111.705C30.2193 111.652 30.177 111.619 30.177 111.619V93.0397Z" fill="#CB6739"/>
<path d="M113.067 159.729L192.432 194.937L158.142 173.92L113.067 159.729Z" fill="#CB6739"/>
<path d="M55.3343 173.631C54.2416 172.844 81.1392 162.224 80.0666 161.41L84.1026 159.732L79.4572 161.228C74.6675 160.658 47.7234 167.828 45.7785 166.193C36.512 158.403 28.1448 149.568 20.9594 139.805C12.7725 128.68 6.13717 116.549 0.00195312 104.195V187.446C0.00195312 193.896 5.23119 199.126 11.6817 199.126H112.084C91.816 194.029 72.3701 185.898 55.3343 173.631Z" fill="#F38F30"/>
<path d="M141.274 142.672L192.432 96.4473L118.755 155.116L141.274 142.672Z" fill="#FFE179"/>
<path d="M58.0814 142.672L80.6004 155.116L6.92285 96.4473L58.0814 142.672Z" fill="#FFE179"/>
<path d="M118.363 33.166H80.4461H33.2886H30.1777V111.615C30.1777 111.615 35.6897 115.87 43.117 121.604C43.1793 121.652 43.2435 121.701 43.306 121.749C45.7809 123.66 48.4628 125.73 51.2215 127.86C54.0962 130.079 57.0521 132.361 59.9439 134.593C60.7272 135.198 61.5058 135.799 62.2765 136.394C64.5888 138.178 66.8309 139.909 68.9232 141.524C69.9694 142.332 70.9781 143.11 71.9394 143.852C72.2598 144.099 72.5751 144.343 72.8846 144.582C73.5035 145.059 74.1001 145.52 74.671 145.96C75.2419 146.401 75.7874 146.822 76.3044 147.221C76.8214 147.62 77.3099 147.997 77.7671 148.35C80.0364 150.101 81.529 151.252 81.8879 151.528C81.8904 151.53 81.8951 151.533 81.8975 151.535L81.902 151.539C82.055 151.656 82.207 151.774 82.3581 151.893C82.6632 152.132 82.9647 152.374 83.2646 152.615C83.5643 152.857 83.8624 153.099 84.1604 153.341C88.0337 156.48 91.8918 159.498 99.4631 159.717C99.7542 159.726 100.051 159.73 100.353 159.73C100.788 159.73 101.223 159.713 101.658 159.689C105.173 159.517 107.989 158.67 110.362 157.497C111.122 157.121 111.838 156.712 112.518 156.282C112.859 156.068 113.19 155.848 113.514 155.625C114 155.289 114.468 154.946 114.923 154.599C116.287 153.56 117.53 152.493 118.756 151.535C119.289 151.119 120.464 150.201 122.094 148.927C122.662 148.484 123.285 147.997 123.959 147.47C124.774 146.833 125.661 146.141 126.609 145.4C128.146 144.199 129.84 142.876 131.644 141.466C132.378 140.893 133.127 140.308 133.894 139.709C134.472 139.257 135.056 138.801 135.65 138.337C136.012 138.054 136.376 137.769 136.743 137.483C138.21 136.337 139.711 135.164 141.226 133.98C141.605 133.685 141.984 133.388 142.364 133.091C143.124 132.498 143.886 131.902 144.647 131.308C145.408 130.713 146.168 130.119 146.925 129.528C147.057 129.425 147.188 129.323 147.319 129.22C148.175 128.551 149.026 127.887 149.868 127.229L151.168 126.213C151.864 125.669 152.553 125.131 153.232 124.601C153.344 124.513 153.458 124.424 153.57 124.337C154.34 123.735 155.091 123.148 155.831 122.57C156.072 122.382 156.316 122.191 156.553 122.006C156.597 121.972 156.642 121.937 156.684 121.903C156.708 121.885 156.731 121.867 156.755 121.849C157.736 121.082 158.684 120.342 159.588 119.635C159.911 119.382 160.228 119.135 160.54 118.891C160.825 118.669 161.105 118.45 161.38 118.235C161.598 118.065 161.809 117.9 162.02 117.735C163.393 116.662 164.622 115.702 165.672 114.882L166.149 114.509C167.757 113.253 168.869 112.384 169.32 112.032L169.46 111.922C169.515 111.88 169.55 111.852 169.55 111.852V105.677V102.123V72.6758V33.166H118.363Z" fill="#E2F3FE"/>
<path d="M164.78 88.1996V36.3496H110.026L157.314 43.4012L164.78 88.1996Z" fill="white"/>
<path d="M43.117 121.604C43.1793 121.652 43.2435 121.701 43.306 121.749C45.7809 123.66 48.4628 125.73 51.2215 127.86C54.0962 130.079 57.0521 132.361 59.9439 134.593C60.7272 135.198 61.5058 135.799 62.2765 136.394C64.5888 138.178 66.8309 139.909 68.9232 141.524C69.9694 142.332 70.9781 143.11 71.9394 143.852C72.2598 144.099 72.5751 144.343 72.8846 144.582C73.5035 145.059 74.1001 145.52 74.671 145.96C75.2419 146.401 75.7874 146.822 76.3044 147.221C76.8214 147.62 77.3099 147.997 77.7671 148.349C80.0364 150.101 81.529 151.252 81.8879 151.528C81.8904 151.53 81.8951 151.533 81.8975 151.535L81.902 151.538C82.055 151.656 82.207 151.774 82.3581 151.893C82.6632 152.132 82.9647 152.374 83.2646 152.615C83.5643 152.857 83.8624 153.099 84.1604 153.341C88.0337 156.48 91.8918 159.498 99.4631 159.717C99.7542 159.726 100.051 159.73 100.353 159.73C100.788 159.73 101.223 159.713 101.658 159.688C105.173 159.517 107.989 158.67 110.362 157.497C111.122 157.12 111.838 156.712 112.518 156.282C112.859 156.068 113.19 155.848 113.514 155.624C114 155.289 114.468 154.946 114.923 154.599C116.287 153.56 117.53 152.493 118.756 151.535C119.289 151.119 120.464 150.201 122.094 148.927C122.662 148.483 123.285 147.997 123.959 147.47C124.774 146.833 125.661 146.141 126.609 145.4C128.146 144.199 129.84 142.876 131.644 141.466C132.378 140.893 133.127 140.308 133.894 139.709C134.472 139.257 135.056 138.8 135.65 138.337C136.012 138.054 136.376 137.769 136.743 137.483C138.21 136.337 139.711 135.164 141.226 133.98C141.605 133.685 141.984 133.388 142.364 133.091C143.124 132.497 143.886 131.902 144.647 131.308C145.408 130.713 146.168 130.119 146.925 129.528C147.057 129.425 147.188 129.323 147.319 129.22C148.175 128.551 149.026 127.887 149.868 127.229L151.168 126.213C151.864 125.669 152.553 125.131 153.232 124.601C153.344 124.513 153.458 124.424 153.57 124.337C154.34 123.735 155.091 123.148 155.831 122.57C156.072 122.382 156.316 122.191 156.553 122.006C156.597 121.972 156.642 121.937 156.684 121.903C156.708 121.885 156.731 121.867 156.755 121.849C157.736 121.082 158.684 120.342 159.588 119.635C159.911 119.382 160.228 119.135 160.54 118.891C160.825 118.669 161.105 118.449 161.38 118.235C161.598 118.065 161.809 117.9 162.02 117.735C163.393 116.662 164.622 115.702 165.672 114.882L166.149 114.509C167.757 113.253 168.869 112.384 169.32 112.032L169.46 111.922C169.515 111.88 169.55 111.852 169.55 111.852V98.6764C159.077 106.859 125.539 133.061 121.867 135.93C117.509 139.335 112.93 144.124 103.464 144.124C93.7876 144.124 89.9525 139.729 85.0085 135.93C82.7997 134.232 37 101.5 37 101.5V43L62.2765 33.166H30.1777V111.615C30.1777 111.615 35.6897 115.87 43.117 121.604Z" fill="#A1DAF8"/>
<path d="M169.55 98.8126V105.68V111.855L194.769 92.152L194.774 92.1483L186 85.5L169.55 98.8126Z" fill="#A13827"/>
<path d="M30.177 111.618V93.0386L16.9158 82.8027L4.95312 92.1486L4.95791 92.1523L30.2882 111.704C30.2193 111.651 30.177 111.618 30.177 111.618Z" fill="#A13827"/>
<path d="M3.42285 193.277L80.0655 161.407L84.1015 159.729L79.4561 161.225L40.8931 173.643L3.42285 193.277Z" fill="#CB6739"/>
<path d="M58.8293 48.6958C58.1463 48.6958 57.5533 48.8335 57.0501 49.1091C56.5588 49.3847 56.1575 49.7561 55.846 50.2234C55.5344 50.6786 55.3008 51.1998 55.1451 51.7869C55.0013 52.374 54.9294 52.973 54.9294 53.5841C54.9294 54.1951 55.0013 54.7942 55.1451 55.3813C55.3008 55.9683 55.5344 56.4955 55.846 56.9628C56.1575 57.4181 56.5588 57.7835 57.0501 58.059C57.5533 58.3346 58.1463 58.4724 58.8293 58.4724C59.5122 58.4724 60.0993 58.3346 60.5905 58.059C61.0937 57.7835 61.5011 57.4181 61.8126 56.9628C62.1241 56.4955 62.3517 55.9683 62.4955 55.3813C62.6513 54.7942 62.7291 54.1951 62.7291 53.5841C62.7291 52.973 62.6513 52.374 62.4955 51.7869C62.3517 51.1998 62.1241 50.6786 61.8126 50.2234C61.5011 49.7561 61.0937 49.3847 60.5905 49.1091C60.0993 48.8335 59.5122 48.6958 58.8293 48.6958ZM58.8293 46.8626C59.7878 46.8626 60.6444 47.0424 61.3992 47.4018C62.166 47.7612 62.813 48.2465 63.3402 48.8575C63.8674 49.4685 64.2687 50.1814 64.5443 50.9961C64.8318 51.8109 64.9756 52.6735 64.9756 53.5841C64.9756 54.5066 64.8318 55.3753 64.5443 56.19C64.2687 57.0047 63.8674 57.7176 63.3402 58.3286C62.813 58.9397 62.166 59.4249 61.3992 59.7843C60.6444 60.1318 59.7878 60.3055 58.8293 60.3055C57.8708 60.3055 57.0081 60.1318 56.2413 59.7843C55.4865 59.4249 54.8455 58.9397 54.3184 58.3286C53.7912 57.7176 53.3838 57.0047 53.0963 56.19C52.8207 55.3753 52.6829 54.5066 52.6829 53.5841C52.6829 52.6735 52.8207 51.8109 53.0963 50.9961C53.3838 50.1814 53.7912 49.4685 54.3184 48.8575C54.8455 48.2465 55.4865 47.7612 56.2413 47.4018C57.0081 47.0424 57.8708 46.8626 58.8293 46.8626ZM65.7981 47.1682H76.1858V49.1091H72.1062V60H69.8597V49.1091H65.7981V47.1682ZM77.6734 47.1682H83.3345C84.245 47.1682 84.9879 47.3 85.563 47.5635C86.1381 47.8271 86.5814 48.1566 86.8929 48.552C87.2044 48.9474 87.4141 49.3787 87.5219 49.846C87.6417 50.3132 87.7016 50.7445 87.7016 51.1399C87.7016 51.5353 87.6417 51.9666 87.5219 52.4339C87.4141 52.8892 87.2044 53.3145 86.8929 53.7099C86.5814 54.1053 86.1381 54.4347 85.563 54.6983C84.9879 54.9499 84.245 55.0757 83.3345 55.0757H79.9198V60H77.6734V47.1682ZM79.9198 53.2426H83.2087C83.4603 53.2426 83.7179 53.2067 83.9814 53.1348C84.245 53.0629 84.4847 52.9491 84.7003 52.7933C84.928 52.6256 85.1077 52.4099 85.2395 52.1463C85.3832 51.8708 85.4551 51.5293 85.4551 51.122C85.4551 50.7026 85.3952 50.3552 85.2754 50.0796C85.1556 49.804 84.9939 49.5884 84.7902 49.4326C84.5865 49.2649 84.3529 49.151 84.0893 49.0911C83.8257 49.0312 83.5441 49.0013 83.2446 49.0013H79.9198V53.2426Z" fill="#263238"/>
<path d="M59.8947 70V78.5074M59.8947 86V78.5074M59.8947 78.5074H67.7895M59.8947 78.5074H52M59.8947 78.5074L66.0351 71.9285L59.8947 78.0688M53.7544 84.2092L59.8947 78.0688M59.8947 78.0688L54.2373 71.9285L66.0351 84.2092" stroke="#1A237E" stroke-width="1.75439"/>
<path d="M86.6838 70V78.5074M86.6838 86V78.5074M86.6838 78.5074H94.5785M86.6838 78.5074H78.7891M86.6838 78.5074L92.8242 71.9285L86.6838 78.0688M80.5434 84.2092L86.6838 78.0688M86.6838 78.0688L81.0264 71.9285L92.8242 84.2092" stroke="#1A237E" stroke-width="1.75439"/>
<path d="M113.474 70V78.5074M113.474 86V78.5074M113.474 78.5074H121.369M113.474 78.5074H105.579M113.474 78.5074L119.614 71.9285L113.474 78.0688M107.333 84.2092L113.474 78.0688M113.474 78.0688L107.816 71.9285L119.614 84.2092" stroke="#1A237E" stroke-width="1.75439"/>
<path d="M140.263 70V78.5074M140.263 86V78.5074M140.263 78.5074H148.158M140.263 78.5074H132.368M140.263 78.5074L146.403 71.9285L140.263 78.0688M134.123 84.2092L140.263 78.0688M140.263 78.0688L134.605 71.9285L146.403 84.2092" stroke="#1A237E" stroke-width="1.75439"/>
<path d="M113.928 101.098C107.424 94.8806 96.8239 94.2734 89.6436 99.6991C82.4615 105.126 78.5777 115.34 81.0021 124.118C82.1831 128.393 84.98 132.101 88.7328 134.457C92.6993 136.948 97.5975 137.676 102.145 136.623C103.322 136.35 104.446 135.929 105.546 135.433C106.262 135.111 106.435 134.07 106.068 133.443C105.637 132.706 104.796 132.597 104.077 132.921C100.442 134.56 96.1138 134.62 92.4265 133.11C89.1263 131.758 86.3921 129.149 84.799 125.972C81.3045 119.003 83.7594 109.832 88.8601 104.304C91.4063 101.545 94.6449 99.703 98.3566 99.0713C101.93 98.4632 105.792 99.1541 108.931 100.956C114.849 104.354 118.532 112.066 116.305 118.723C115.777 120.302 114.847 121.839 113.495 122.843C112.76 123.388 111.779 123.926 110.84 123.894C110.125 123.87 109.685 123.543 109.346 123.024C108.428 121.622 108.429 119.748 108.436 118.09C108.437 117.91 108.444 117.73 108.446 117.551C108.873 115.502 108.917 113.346 108.772 111.237C108.802 110.905 108.828 110.572 108.862 110.24C108.943 109.457 108.136 108.785 107.408 108.785C107.047 108.785 106.75 108.91 106.516 109.107C103.906 107.393 100.501 107.205 97.6316 108.524C94.4966 109.965 92.3245 113.228 91.7821 116.585C91.2002 120.185 92.3451 124.324 95.9422 125.886C99.3268 127.355 103.257 126.162 105.632 123.439C105.799 123.248 105.955 123.051 106.106 122.852C106.218 123.198 106.342 123.541 106.499 123.876C107.375 125.756 109.247 126.989 111.354 126.773C113.479 126.555 115.482 125.277 116.83 123.652C122.357 116.989 119.748 106.661 113.928 101.098ZM105.539 117.37C105.315 118.288 104.988 119.178 104.513 120.019C103.254 122.245 100.946 123.988 98.2672 123.577C95.629 123.171 94.4703 120.699 94.5245 118.245C94.5796 115.753 95.8303 113.117 97.9222 111.698C100.202 110.152 103.478 110.083 105.568 112.017C105.636 112.08 105.706 112.13 105.777 112.175C105.64 113.904 105.563 115.636 105.539 117.37Z" fill="#383B4E"/>
</svg>
