<svg width="198" height="110" viewBox="0 0 198 110" fill="none" xmlns="http://www.w3.org/2000/svg">
<path d="M109.374 18.282C109.374 18.282 50.6259 69.5812 49.2217 75.9151C49.2217 75.9151 51.4158 77.2382 53.6286 80.5697C56.1904 84.4267 59.6184 86.2083 61.5429 85.4559C64.3153 84.3734 64.3375 82.4028 64.3375 82.4028L102.231 101.801C102.231 101.801 116.811 99.1737 148.993 73.1189L157.923 63.2653L109.374 18.282Z" fill="#FCAC76"/>
<path d="M49.3583 19.1877C49.3583 19.1877 55.1174 24.5296 63.2264 21.2035L88.7546 10.5459C88.7546 10.5459 97.6134 5.58746 105.222 12.3935C105.222 12.3935 95.3273 29.8308 110.531 34.9485C110.531 34.9485 124.875 43.848 132.027 52.0286C135.623 56.1433 143.514 63.349 147.198 67.3209C148.186 68.3853 150.274 70.0538 151.246 71.5848C152.596 73.7118 155.111 78.2941 149.711 81.7504C149.711 81.7504 145.972 85.1643 139.956 80.3152C134.366 75.8071 124.89 65.7944 118.992 60.948C118.672 60.6858 117.125 60.1622 119.067 62.6021C121.463 65.6099 133.033 76.6536 133.033 76.6536C133.033 76.6536 137.387 80.5694 138.308 82.3952C139.118 83.9968 140.242 87.4305 136.944 90.5885C136.944 90.5885 132.216 95.4194 125.802 90.2973L111.253 77.1446C111.253 77.1446 108.136 74.5257 110.461 78.0671C110.461 78.0671 125.217 91.4883 125.636 93.3006C126.828 98.4634 122.514 104.368 115.01 100.307L97.9905 88.0048C97.9905 88.0048 96.351 87.549 97.5501 89.0547C97.5501 89.0547 113.407 99.9492 114.461 101.059C115.838 102.511 111.358 107.968 103.927 104.617C93.3251 99.8398 71.8027 90.9303 61.5427 85.4564C57.9328 83.5311 50.63 78.6811 47.8569 76.4854C47.8569 76.4854 36.7693 67.3851 20.3154 64.9877L38.5921 15.839L49.3583 19.1877Z" fill="#FFBF94"/>
<path d="M60.7395 87.9707C60.7395 87.9707 64.8038 83.809 67.1674 82.4172C71.9614 79.593 79.4303 83.8597 79.29 88.0431C79.29 88.0431 80.4763 92.3215 72.6729 97.4265C71.2313 98.3697 66.7601 100.479 61.3359 94.7406C61.3359 94.7406 58.1442 90.965 60.7395 87.9707Z" fill="#FCAC76"/>
<path d="M74.6119 98.8651C74.8726 95.7976 79.8581 90.7397 81.9779 89.0007C84.4776 86.9505 93.4472 85.821 93.2899 95.1954C93.2899 95.1954 91.9307 101.609 86.6395 104.694C84.1257 106.161 74.0576 105.367 74.6119 98.8651Z" fill="#FCAC76"/>
<path d="M94.6654 96.7084C96.4416 94.5434 103.911 94.3463 103.221 101.119C102.961 103.685 101.096 107.73 97.0882 108.922C94.1753 109.788 87.1384 106.891 88.8976 104.107C90.1067 102.19 90.6538 101.599 94.6654 96.7084Z" fill="#FCAC76"/>
<path d="M59.3076 88.6425C59.3076 88.6425 63.3714 84.4808 65.7344 83.089C70.5284 80.2648 77.9966 84.5305 77.857 88.7149C77.857 88.7149 79.0432 92.9942 71.2409 98.0982C69.7982 99.0415 65.327 101.15 59.9028 95.4133C59.9028 95.4133 56.7112 91.6368 59.3076 88.6425Z" fill="#FFC9A5"/>
<path d="M71.4502 48.6252C71.4502 48.6252 80.5334 57.8919 93.9822 35.4337C93.9822 35.4337 99.2961 38.0726 108.565 34.155L110.718 31.584C110.718 31.584 92.9422 31.2367 92.9757 31.5912C93.0119 31.9457 71.4502 48.6252 71.4502 48.6252Z" fill="#FCAC76"/>
<path d="M73.1792 99.5327C73.4403 96.4661 78.4247 91.4073 80.5464 89.6682C83.046 87.6181 92.0141 86.4895 91.8558 95.8638C91.8558 95.8638 90.4993 102.276 85.2072 105.362C82.6914 106.83 72.6253 106.035 73.1792 99.5327Z" fill="#FFC9A5"/>
<path d="M93.2325 97.3763C95.0077 95.2113 102.478 95.0151 101.788 101.788C101.527 104.352 99.6623 108.399 95.6552 109.59C92.7415 110.456 85.7055 107.56 87.4638 104.774C88.6729 102.858 89.2191 102.267 93.2325 97.3763Z" fill="#FFC9A5"/>
<path d="M48.5343 81.0162C49.3485 79.6967 50.5704 78.4877 52.886 77.0597C54.2863 76.1979 57.9079 76.2513 59.8865 77.8637C61.3076 79.0212 64.0612 81.6628 63.1254 83.5854C61.3497 87.238 58.4996 92.1304 53.9327 90.036C53.9327 90.036 44.9074 86.898 48.5343 81.0162Z" fill="#FCAC76"/>
<path d="M47.1204 80.9771C47.9335 79.6577 49.1555 78.4486 51.47 77.0207C52.8707 76.1588 56.4929 76.2113 58.4715 77.8237C59.8919 78.983 62.6462 81.6237 61.7116 83.5463C59.934 87.1989 57.0846 92.0914 52.5167 89.9969C52.5167 89.9969 43.4935 86.8589 47.1204 80.9771Z" fill="#FFC9A5"/>
<path d="M48.0883 13.9629L30.4139 75.8438L0 65.9096L21.9304 3.36686L48.0883 13.9629Z" fill="#5C6BC0"/>
<path d="M50.8212 79.2852C50.8212 79.2852 48.7511 83.4171 51.2278 85.5757C51.2278 85.5757 54.1824 90.1932 59.3643 83.8349C60.2276 82.7759 58.8782 80.5422 56.1292 79.4244C56.1292 79.4244 53.5649 78.0463 50.8212 79.2852Z" fill="#FFE4CB"/>
<path d="M63.6336 88.8036C63.6336 88.8036 65.9089 85.056 67.4926 84.6364C69.1239 84.2042 73.7989 84.6916 75.1798 89.518C75.4175 90.3473 73.9928 91.8385 73.3351 92.6416C72.1224 94.1238 69.2112 96.2037 66.3897 94.1663C66.3897 94.1663 62.6898 92.2781 63.6336 88.8036Z" fill="#FFE4CB"/>
<path d="M79.0692 94.2014C79.6359 93.1008 81.535 91.2053 83.0409 91.2442C85.5176 91.3093 90.9372 93.8369 88.9883 97.2653C88.9883 97.2653 87.3189 100.17 84.479 100.537C84.479 100.537 79.4936 101.646 78.29 96.984C78.1084 96.285 78.7403 94.8444 79.0692 94.2014Z" fill="#FFE4CB"/>
<path d="M91.1441 102.773C91.627 104.619 94.4178 106.815 96.4724 105.374C97.3053 104.791 99.1321 102.718 99.3428 101.724C99.6982 100.042 96.807 96.0316 93.4556 99.0032C92.6643 99.705 90.8773 101.751 91.1441 102.773Z" fill="#FFE4CB"/>
<path d="M117.143 12.2328C117.143 12.2328 107.35 7.72829 98.5586 14.5768L84.4707 20.9325C84.4707 20.9325 78.6596 22.0773 75.9918 29.3219L68.4915 40.9236C68.4915 40.9236 62.6225 48.7922 76.7647 49.399C76.7647 49.399 85.2025 47.0243 93.186 34.965L93.3488 33.3173C93.3488 33.3173 93.9999 35.4569 98.725 35.2272C98.725 35.2272 103.708 34.1773 110.586 32.8244C110.586 32.8244 111.492 34.2641 117.397 38.5479C117.397 38.5479 131.88 48.6195 134.939 53.4007L151.733 69.8867C151.733 69.8867 154.761 69.0982 163.347 58.8448L180.078 55.1741L169.066 7.22274C169.066 7.22274 142.225 14.0107 134.621 13.8108L117.143 12.2328Z" fill="#FFC9A5"/>
<path d="M157.748 6.9255L173.299 61.8086L198 55.6437L181.525 -0.00170898L157.748 6.9255Z" fill="#5C6BC0"/>
<path d="M72.2174 35.1616C72.2174 35.1616 78.1069 33.7436 79.2734 37.8439C79.2734 37.8439 76.6897 44.5658 74.574 45.8617C72.9388 46.8646 67.9463 46.729 67.2966 44.0684C67.2966 44.0684 67.0169 41.3753 72.2174 35.1616Z" fill="#FFE4CB"/>
<path d="M122.785 42.4737C122.785 42.4737 132.699 48.0887 144.331 40.9607C144.331 40.9607 135.84 49.8232 126.484 45.3386L122.785 42.4737Z" fill="#FCAC76"/>
<path d="M21.371 63.145C21.3202 65.0776 19.7126 66.6041 17.7792 66.5535C15.8462 66.5028 14.3211 64.8949 14.3713 62.9615C14.4222 61.0289 16.0291 59.5033 17.9632 59.553C19.8955 59.6046 21.4212 61.2116 21.371 63.145Z" fill="#263238"/>
<path d="M21.3915 62.356C21.3407 64.2894 19.7326 65.815 17.7996 65.7644C15.8666 65.7129 14.342 64.1049 14.3918 62.1724C14.4426 60.2398 16.0496 58.7142 17.9836 58.7648C19.916 58.8155 21.4417 60.4234 21.3915 62.356Z" fill="#283593"/>
<path d="M187.22 49.9194C187.17 51.8519 185.561 53.3775 183.629 53.3269C181.697 53.2763 180.17 51.6684 180.221 49.7358C180.272 47.8023 181.879 46.2767 183.812 46.3273C185.746 46.378 187.271 47.9859 187.22 49.9194Z" fill="#263238"/>
<path d="M187.24 49.1342C187.19 51.0668 185.582 52.5924 183.649 52.5417C181.717 52.4911 180.191 50.8832 180.241 48.9497C180.292 47.0172 181.9 45.4925 183.833 45.5422C185.765 45.5929 187.291 47.2008 187.24 49.1342Z" fill="#283593"/>
</svg>
