<svg width="32" height="32" viewBox="0 0 32 32" fill="none" xmlns="http://www.w3.org/2000/svg">
<rect width="32" height="32" rx="12" fill="#C5CAE9"/>
<path d="M9.33333 21H8.66667C8.3 21 8 21.45 8 22C8 22.55 8.3 23 8.66667 23H9.33333C9.7 23 10 22.55 10 22C10 21.45 9.7 21 9.33333 21Z" fill="#283593"/>
<path d="M15.3333 19H14.6666C14.2999 19 13.9999 19.6 13.9999 20.3333V21.6667C13.9999 22.4 14.2999 23 14.6666 23H15.3333C15.6999 23 15.9999 22.4 15.9999 21.6667V20.3333C15.9999 19.6 15.6999 19 15.3333 19Z" fill="#283593"/>
<path d="M12.3333 20H11.6667C11.3 20 11 20.6 11 21.3333V21.6667C11 22.4 11.3 23 11.6667 23H12.3333C12.7 23 13 22.4 13 21.6667V21.3333C13 20.6 12.7 20 12.3333 20Z" fill="#283593"/>
<path d="M18.3333 18H17.6667C17.3 18 17 18.75 17 19.6667V21.3333C17 22.25 17.3 23 17.6667 23H18.3333C18.7 23 19 22.25 19 21.3333V19.6667C19 18.75 18.7 18 18.3333 18Z" fill="#283593"/>
<path d="M20.9993 17.166H20.3327C19.966 17.166 19.666 17.916 19.666 18.8327V21.3327C19.666 22.2494 19.966 22.9994 20.3327 22.9994H20.9993C21.366 22.9994 21.666 22.2494 21.666 21.3327V18.8327C21.666 17.916 21.366 17.166 20.9993 17.166Z" fill="#283593"/>
<path d="M24 15H23.5C22.95 15 22.5 15.63 22.5 16.4V21.6C22.5 22.37 22.95 23 23.5 23H24C24.55 23 25 22.37 25 21.6V16.4C25 15.63 24.55 15 24 15Z" fill="#283593"/>
<path d="M19.1924 7.83301H24.417C24.6 7.83301 24.7259 7.89323 24.7979 7.9707C24.8668 8.04491 24.9115 8.16212 24.8828 8.33398L24.8799 8.35352V13.5205C24.8799 13.9943 24.2888 14.2263 23.96 13.8975L22.3535 12.291L22.1768 12.4785C21.0792 13.6421 19.8874 14.7077 18.2354 15.5459C16.5825 16.3845 14.4545 17.003 11.4795 17.251C10.5692 17.3268 9.53898 17.2201 8.69629 17.0869C9.63416 16.9516 10.9417 16.705 12.5684 16.2402L12.5811 16.2363L12.5928 16.2314C15.0895 15.2328 16.3012 14.6608 17.2529 13.9092C18.1956 13.1646 18.8831 12.24 20.3291 10.5986L20.4844 10.4219L18.8145 8.75195C18.4858 8.42306 18.7186 7.83301 19.1924 7.83301Z" fill="#283593" stroke="#C5CAE9" stroke-width="0.5"/>
</svg>
