<svg width="48" height="48" viewBox="0 0 48 48" fill="none" xmlns="http://www.w3.org/2000/svg">
<path d="M12.4011 16.2852C12.4011 14.076 14.1919 12.2852 16.4011 12.2852H31.9987C34.2079 12.2852 35.9987 14.076 35.9987 16.2852V32.3594C35.9987 34.5686 34.2079 36.3594 31.9987 36.3594H16.4011C14.1919 36.3594 12.4011 34.5686 12.4011 32.3594V16.2852Z" fill="#E8EAF6"/>
<path d="M20.4261 10.0839C20.4142 8.99466 19.5293 8.11962 18.44 8.11962C17.3527 8.11962 16.4677 8.99466 16.4558 10.0839V12.8638H20.4281L20.4261 10.0839Z" fill="#4054B2"/>
<path d="M25.9879 10.0839C25.976 8.99664 25.0891 8.11962 24.0018 8.11962C22.9144 8.11962 22.0276 8.99664 22.0156 10.0839V12.8638H25.9879L25.9879 10.0839Z" fill="#4054B2"/>
<path d="M31.5484 10.1753C31.5365 9.08597 30.6516 8.21094 29.5643 8.21094C28.475 8.21094 27.5901 9.08597 27.5781 10.1753V12.9551H31.5504L31.5484 10.1753Z" fill="#4054B2"/>
<path d="M16.5938 38.212C16.6057 39.3012 17.4906 40.1763 18.5779 40.1763C19.6672 40.1763 20.5521 39.3012 20.564 38.212V35.4321H16.5938V38.212Z" fill="#4054B2"/>
<path d="M22.1536 38.212C22.1655 39.2993 23.0524 40.1763 24.1398 40.1763C25.2271 40.1763 26.114 39.2993 26.1259 38.212V35.4321H22.1537L22.1536 38.212Z" fill="#4054B2"/>
<path d="M27.7161 38.212C27.728 39.3012 28.6129 40.1763 29.7023 40.1763C30.7896 40.1763 31.6745 39.3012 31.6864 38.212V35.4321H27.7161V38.212Z" fill="#4054B2"/>
<path d="M31.9561 12.0723C33.0626 12.0723 34.1265 12.5132 34.9092 13.2959C35.6919 14.0786 36.1328 15.1425 36.1328 16.249V32.1377C36.1328 33.2443 35.6919 34.3081 34.9092 35.0908C34.1265 35.8735 33.0626 36.3145 31.9561 36.3145H16.0674C14.9623 36.3145 13.8975 35.8766 13.1133 35.0898V35.0889C12.3315 34.3063 11.8906 33.2436 11.8906 32.1377V16.249C11.8906 15.1424 12.3315 14.0786 13.1143 13.2959C13.897 12.5132 14.9608 12.0723 16.0674 12.0723H31.9561Z" stroke="#4054B2" stroke-width="2"/>
<path d="M26.1152 16.4565C26.2737 16.4565 26.4079 16.5689 26.4395 16.7202L26.4463 16.7876V18.8354L26.9072 18.8374C27.8538 18.8426 28.4521 18.8151 28.9209 18.8286C29.4032 18.8426 29.5029 18.9062 29.5273 18.9302C29.5502 18.9528 29.6164 19.0493 29.6318 19.5327C29.6467 19.9975 29.6194 20.6054 29.623 21.5532L29.625 22.0142H31.6689C31.8509 22.0167 31.9961 22.1646 31.9961 22.3452C31.9959 22.5272 31.8494 22.6748 31.6689 22.6772H29.625V25.1938L30.0889 25.1929L31.6689 25.1909C31.8494 25.1934 31.9961 25.3418 31.9961 25.5239C31.9959 25.7044 31.8508 25.8515 31.6689 25.854H29.625V28.6997C29.6233 28.8834 29.4739 29.0319 29.29 29.0327H26.1719V29.6938C26.1701 29.8771 26.0214 30.0229 25.8408 30.0229C25.6569 30.0229 25.5086 29.8752 25.5078 29.6919V29.0327H23.2695V31.0835C23.2693 31.266 23.12 31.4153 22.9375 31.4155C22.7563 31.4155 22.6066 31.2676 22.6064 31.0835V29.0327H19.7627C19.5782 29.0319 19.4286 28.8822 19.4277 28.6978V25.854H17.3838C17.2019 25.8515 17.0568 25.7044 17.0566 25.5239C17.0566 25.3644 17.1692 25.2311 17.3184 25.1987L17.3838 25.1909H19.4307L19.4297 24.7271L19.4277 23.1401L19.4268 22.6772H17.3838C17.2034 22.6747 17.0568 22.5272 17.0566 22.3452C17.0566 22.1646 17.2018 22.0167 17.3838 22.0142H19.4297V21.5513L19.4277 19.1704C19.4285 19.009 19.5431 18.8739 19.6953 18.8423L19.7627 18.8354H22.6064V17.8413C22.6066 17.6571 22.7563 17.5093 22.9375 17.5093C23.12 17.5095 23.2694 17.6588 23.2695 17.8413V18.8384L23.7334 18.8374L25.3203 18.8354H25.7832V16.7876C25.784 16.6044 25.9315 16.4568 26.1152 16.4565Z" stroke="#4054B2" stroke-width="0.925934"/>
<path d="M21.7136 21.2515L27.3669 21.2516V27.1003L21.7136 27.1001V21.2515Z" fill="#4054B2"/>
<path d="M22.8895 14.901C22.3781 14.9009 21.9635 15.3154 21.9635 15.8268C21.9634 16.3382 22.3779 16.7528 22.8893 16.7528C23.4007 16.7529 23.8153 16.3384 23.8153 15.827C23.8154 15.3156 23.4009 14.901 22.8895 14.901Z" fill="#4054B2"/>
<path d="M25.8529 30.8041C25.3415 30.804 24.9269 31.2185 24.9268 31.7299C24.9268 32.2413 25.3413 32.6559 25.8527 32.6559C26.364 32.656 26.7786 32.2415 26.7787 31.7301C26.7788 31.2187 26.3642 30.8041 25.8529 30.8041Z" fill="#4054B2"/>
</svg>
