<svg width="48" height="48" viewBox="0 0 48 48" fill="none" xmlns="http://www.w3.org/2000/svg">
<path d="M36.7408 18.8395L39.4074 20.3788C39.5911 20.484 39.7037 20.2879 39.7037 20.4998L40 22.2221C40 22.4339 39.8874 22.6295 39.7037 22.7347C39.6119 22.788 39.5096 22.8147 39.4074 22.8147C39.3052 22.8147 39.203 22.788 39.1111 22.7361L37.037 21.5391V35.8516H38.2222C38.5496 35.8516 38.8148 36.1168 38.8148 36.4442V37.4072C38.8148 37.7346 38.5496 37.9998 38.2222 37.9998H9.77779C9.45039 37.9998 9.1852 37.7346 9.1852 37.4072V36.4442C9.1852 36.1168 9.45039 35.8516 9.77779 35.8516H10.963V21.5376L8.88889 22.574C8.70517 22.6807 8.48 22.6792 8.2963 22.574C8.11259 22.4688 8 22.2732 8 22.0614L8.2963 20.4998C8.2963 20.2879 8.31629 20.6049 8.5 20.4998L23 12.9998C23.1837 12.8931 24.3163 12.3931 24.5 12.4998C24.5 12.4998 30.6073 16.7791 33.5 18.4477V10.9995C33.5 10.6721 33.7652 10.4069 34.0926 10.4069H36.4445C36.7719 10.4069 37.0371 10.6721 37.0371 10.9995L36.7408 18.8395Z" fill="#E8EAF6"/>
<path fill-rule="evenodd" clip-rule="evenodd" d="M37.0371 18.7125L39.7037 20.2518C39.8874 20.357 40 20.4998 40 20.4998V21.9998C40 22.4998 39.8874 22.6295 39.7037 22.7347C39.6118 22.788 39.5096 22.8147 39.4074 22.8147C39.3052 22.8147 39.203 22.788 39.1111 22.7361L37.037 21.5391V35.8516H38.2222C38.5496 35.8516 38.8148 36.1168 38.8148 36.4442V37.4998C38.8148 37.8272 38.5496 38.0924 38.2222 38.0924H9.77779C9.45039 38.0924 9.1852 37.8272 9.1852 37.4998V36.4442C9.1852 36.1168 9.45039 35.8516 9.77779 35.8516H10.963V21.5376L8.88889 22.6141C8.70517 22.7208 8.48 22.7193 8.2963 22.6141C8.11259 22.5089 8 22.3134 8 22.1015V20.8548C8 20.6429 8.11259 20.4474 8.2963 20.3422L23.7037 11.6178C23.8874 11.5111 24.1126 11.5111 24.2963 11.6178L33 16.9998L33.0549 10.4995C33.0549 9.99951 34.2275 9.99951 34.5549 9.99951H36.5C36.8274 9.99951 37.0926 10.2647 37.0926 10.5921L37.0371 18.7125ZM28.5925 35.8517H35C35 29.9949 35 26.7113 35 20.8546L24 14.0162L13 20.4995V35.8517H19.5557H28.5925Z" fill="#4054B2"/>
<path d="M28 25.7776H20.1483C19.8209 25.7776 19.5557 26.0428 19.5557 26.3702V35.8517H28.5925V26.3702C28.5925 26.0428 28.3274 25.7776 28 25.7776Z" fill="#E8EAF6"/>
<path d="M34.5547 10.4995H36.5C36.5384 10.4995 36.5709 10.5229 36.585 10.5562L36.5928 10.5923L36.5371 18.7095L36.5352 19.0005L36.7871 19.146L39.4541 20.6851L39.4551 20.686C39.4708 20.695 39.4857 20.7051 39.5 20.7153V21.9995C39.5 22.1849 39.4794 22.2639 39.4707 22.2905C39.4666 22.2931 39.4617 22.2965 39.4551 22.3003L39.4521 22.3022C39.4376 22.3106 39.4222 22.3149 39.4072 22.3149C39.3919 22.3149 39.3739 22.3101 39.3564 22.3003L37.2871 21.106L36.5371 20.6733V36.3521H38.2227C38.2736 36.3523 38.3143 36.3929 38.3145 36.4438V37.4995C38.3145 37.5506 38.2737 37.592 38.2227 37.5923H9.77734C9.72629 37.592 9.68555 37.5506 9.68555 37.4995V36.4438C9.68574 36.3929 9.72641 36.3523 9.77734 36.3521H11.4629V20.7144L10.7324 21.0942L8.6582 22.1704L8.64844 22.1763L8.6377 22.1821C8.61155 22.1972 8.57689 22.1984 8.54492 22.1802C8.51791 22.1647 8.5 22.135 8.5 22.1011V20.855C8.5 20.821 8.51798 20.7913 8.54492 20.7759L8.54395 20.7749L23.9502 12.0532L23.9551 12.0503C23.9828 12.0343 24.015 12.034 24.043 12.0493L32.7373 17.4253L33.4922 17.8921L33.5 17.0044L33.5537 10.6157C33.6015 10.5964 33.6736 10.5721 33.7744 10.5532C34.0564 10.5005 34.3869 10.4995 34.5547 10.4995ZM20.1484 26.2778H28C28.0512 26.2779 28.0928 26.3194 28.0928 26.3706V35.3521H20.0557V26.3706C20.0557 26.3193 20.0972 26.2778 20.1484 26.2778ZM35.5 20.5767L35.2637 20.4302L24.2637 13.5913L24.0068 13.4321L23.7461 13.5854L12.7461 20.0688L12.5 20.2134V36.3521H35.5V20.5767Z" stroke="#4054B2"/>
</svg>
