<svg width="48" height="48" viewBox="0 0 48 48" fill="none" xmlns="http://www.w3.org/2000/svg">
<path d="M26.3848 17.5093V20.6108H15.958V17.5093H26.3848ZM24.0752 13.0884V16.0425H15.958V13.0884H24.0752Z" fill="#E8EAF6" stroke="#4054B2" stroke-width="1.33333"/>
<path d="M29.0537 13.2817C29.0537 13.9879 29.3304 14.6528 30.002 15.2563C30.4165 15.6289 30.7113 15.8487 31.1611 16.0054C31.6422 16.1728 32.3715 16.2905 33.6709 16.2905H35.667V20.1187L35.6328 22.8433V34.6665C35.6328 36.6915 33.9917 38.3333 31.9668 38.3335H14.7148C13.452 38.3334 12.4869 37.798 11.8799 36.9087C11.3121 36.0768 11.1181 35.0272 11.1172 34.0366L11.0391 22.0493V13.3335C11.0391 11.3084 12.681 9.6665 14.7061 9.6665H28.9795L29 10.646L29.0537 13.2612V13.2817Z" fill="#E8EAF6" stroke="#4054B2" stroke-width="2"/>
<path d="M34.6759 13.3333C32.0185 13.3333 32.0185 13.3333 32.0185 10C32.0185 8.92449 31.9768 8 32.0186 8C32.0604 8 37.3333 13.3333 37.3333 13.3333L34.6759 13.3333Z" fill="#4054B2"/>
<rect x="24" y="24" width="16" height="16" rx="8" fill="#4054B2"/>
<path fill-rule="evenodd" clip-rule="evenodd" d="M30.777 27.9047V28.6086L30.377 28.8097C30.1569 28.9203 29.9039 29.075 29.8146 29.1535C29.6676 29.2828 29.5984 29.264 29.0785 28.9543C28.7629 28.7662 28.4726 28.6124 28.4333 28.6124C28.3615 28.6124 27.2005 30.5852 27.2005 30.707C27.2005 30.743 27.4653 30.9245 27.7887 31.1104L28.377 31.4486V32.0776V32.7066L27.8765 33C27.6013 33.1613 27.332 33.3374 27.2781 33.3914C27.1951 33.4743 27.764 34.6107 28.3186 35.4704C28.385 35.5733 28.5241 35.5305 29.016 35.2553L29.6305 34.9116L30.081 35.1974C30.3288 35.3545 30.5867 35.483 30.6542 35.483C30.7449 35.483 30.777 35.6796 30.777 36.236V36.9889H32.0005H33.224V36.236C33.224 35.6796 33.2561 35.483 33.3468 35.483C33.4143 35.483 33.6732 35.3539 33.9221 35.196L34.3747 34.909L34.9356 35.243C35.244 35.4268 35.5251 35.5764 35.5602 35.5756C35.6101 35.5743 36.6514 33.8007 36.7829 33.4929C36.7991 33.4551 36.5448 33.2701 36.2178 33.0821L35.6233 32.7402L35.629 32.0816L35.6349 31.4232L36.2176 31.0947C36.5382 30.9141 36.8005 30.7466 36.8005 30.7225C36.8005 30.6045 35.6131 28.6144 35.5422 28.6135C35.4973 28.6129 35.2145 28.7618 34.9141 28.9443L34.3677 29.2762L33.9186 28.9914C33.6717 28.8348 33.4143 28.7066 33.3468 28.7066C33.2561 28.7066 33.224 28.51 33.224 27.9536V27.2007H32.0005H30.777V27.9047ZM30.5027 31.3723C30.732 30.8986 31.0834 30.6209 31.5907 30.5127C32.8334 30.2475 33.9357 31.487 33.463 32.6181C33.1646 33.3324 32.6564 33.6948 31.9534 33.6948C31.4583 33.6948 31.1212 33.5444 30.7595 33.162C30.2682 32.6428 30.1812 32.0364 30.5027 31.3723Z" fill="white"/>
<rect x="14.6667" y="18.6665" width="12" height="1.33333" rx="0.666667" fill="#4054B2"/>
<rect x="14.6667" y="14.6665" width="8" height="1.33333" rx="0.666667" fill="#4054B2"/>
<rect x="24" y="14.6665" width="1.33333" height="1.33333" rx="0.666667" fill="#4054B2"/>
</svg>
