<svg width="48" height="48" viewBox="0 0 48 48" fill="none" xmlns="http://www.w3.org/2000/svg">
<path d="M26.3848 17.5093V20.6108H15.958V17.5093H26.3848ZM24.0752 13.0884V16.0425H15.958V13.0884H24.0752Z" fill="#E8EAF6" stroke="#4054B2" stroke-width="1.33333"/>
<path d="M29.0537 13.2817C29.0537 13.9879 29.3304 14.6528 30.002 15.2563C30.4165 15.6289 30.7113 15.8487 31.1611 16.0054C31.6422 16.1728 32.3715 16.2905 33.6709 16.2905H35.667V20.1187L35.6328 22.8433V34.6665C35.6328 36.6915 33.9917 38.3333 31.9668 38.3335H14.7148C13.452 38.3334 12.4869 37.798 11.8799 36.9087C11.3121 36.0768 11.1181 35.0272 11.1172 34.0366L11.0391 22.0493V13.3335C11.0391 11.3084 12.681 9.6665 14.7061 9.6665H28.9795L29 10.646L29.0537 13.2612V13.2817Z" fill="#E8EAF6" stroke="#4054B2" stroke-width="2"/>
<path d="M34.6759 13.3333C32.0185 13.3333 32.0185 13.3333 32.0185 10C32.0185 8.92449 31.9768 8 32.0186 8C32.0604 8 37.3333 13.3333 37.3333 13.3333L34.6759 13.3333Z" fill="#4054B2"/>
<path d="M17.3333 24.6667C17.3333 24.2985 17.6318 24 18 24C18.3682 24 18.6667 24.2985 18.6667 24.6667V31.3333C18.6667 31.7015 18.3682 32 18 32C17.6318 32 17.3333 31.7015 17.3333 31.3333V24.6667Z" fill="#4054B2"/>
<path d="M32.6667 32.6665C33.0349 32.6665 33.3333 32.965 33.3333 33.3332C33.3333 33.7014 33.0349 33.9998 32.6667 33.9998H15.3333C14.9652 33.9998 14.6667 33.7014 14.6667 33.3332C14.6667 32.965 14.9652 32.6665 15.3333 32.6665H32.6667Z" fill="#4054B2"/>
<rect x="22.6667" y="18.6665" width="1.33333" height="13.3333" rx="0.666667" fill="#4054B2"/>
<rect x="28" y="21.3335" width="1.33333" height="10.6667" rx="0.666667" fill="#4054B2"/>
</svg>
