<svg width="48" height="48" viewBox="0 0 48 48" fill="none" xmlns="http://www.w3.org/2000/svg">
<g clip-path="url(#clip0_782_22512)">
<path d="M15.9473 23.5454H24.7773C28.5815 23.5457 31.7246 26.747 31.7246 30.7671V34.4985C31.7246 35.1117 31.4184 35.6616 30.9463 35.9722L30.7666 36.0767C24.5949 39.6437 17.5107 40.27 10.04 36.1294L10.0371 36.1265L9.89941 36.0522L9.7998 35.9946C9.31493 35.6878 8.99865 35.1254 9 34.5005V30.7671C9 26.747 12.1428 23.5454 15.9473 23.5454Z" fill="#E8EAF6" stroke="#4054B2" stroke-width="2"/>
<path d="M13.8177 14.7264C13.8177 11.0139 16.8638 8 20.6166 8C24.369 8 27.4154 11.0139 27.4154 14.7264C27.4154 18.4389 24.369 21.4528 20.6166 21.4528C16.8641 21.4528 13.8177 18.4389 13.8177 14.7264Z" fill="#4054B2"/>
<rect x="24" y="24" width="16" height="16" rx="8" fill="#4054B2"/>
<path d="M33.1336 31.1019H36.8542V32.2624H33.1336V36H31.9731V32.2624H28.2526V31.1019H31.9731V27.3643H33.1336V31.1019Z" fill="white"/>
<rect x="20" y="26.6665" width="1.33333" height="1.33333" rx="0.666667" fill="#4054B2"/>
<path d="M20 30.401C20 30.0329 20.2985 29.7344 20.6667 29.7344C21.0349 29.7344 21.3333 30.0329 21.3333 30.401C21.3333 30.7692 21.0349 31.0677 20.6667 31.0677C20.2985 31.0677 20 30.7692 20 30.401Z" fill="#4054B2"/>
<rect x="20" y="33.0679" width="1.33333" height="1.33333" rx="0.666667" fill="#4054B2"/>
</g>
<defs>
<clipPath id="clip0_782_22512">
<rect width="32" height="32" fill="white" transform="translate(8 8)"/>
</clipPath>
</defs>
</svg>
