<svg width="32" height="32" viewBox="0 0 32 32" fill="none" xmlns="http://www.w3.org/2000/svg">
<rect width="32" height="32" rx="16" fill="white"/>
<path d="M8 12C8 10.8954 8.89543 10 10 10H27C27 11.1046 26.1046 12 25 12H8Z" fill="#1A237E"/>
<path d="M8 17C8 15.8954 8.89543 15 10 15H21C21 16.1046 20.1046 17 19 17H8Z" fill="#1A237E"/>
<path d="M8 22C8 20.8954 8.89543 20 10 20H13C13 21.1046 12.1046 22 11 22H8Z" fill="#1A237E"/>
<path d="M14 22C14 20.8954 14.8954 20 16 20H17C17 21.1046 16.1046 22 15 22H14Z" fill="#1A237E"/>
</svg>
