<svg width="52" height="52" viewBox="0 0 52 52" fill="none" xmlns="http://www.w3.org/2000/svg">
<rect x="-0.000976562" y="0.400391" width="51.2" height="51.2" rx="25.6" fill="white"/>
<path fill-rule="evenodd" clip-rule="evenodd" d="M29.643 27.7969H21.6354C17.6556 27.7969 14.4287 31.2469 14.4287 35.5014V38.9983C14.4267 39.9571 14.9272 40.8389 15.7219 41.2798L15.7239 41.2819C22.8368 45.4044 29.643 44.8039 35.529 41.2883H35.531C36.3398 40.8517 36.8503 39.9656 36.8503 38.9983C36.8563 38.0416 36.8503 37.1194 36.8503 35.5014C36.8503 31.2467 33.6232 27.7969 29.6436 27.7969L29.643 27.7969Z" fill="#1A237E"/>
<path d="M18.4648 18.7452C18.4648 14.7852 21.6795 11.5703 25.6397 11.5703C29.5998 11.5703 32.8146 14.7852 32.8146 18.7452C32.8146 22.7052 29.5998 25.9201 25.6397 25.9201C21.6797 25.9201 18.4648 22.7052 18.4648 18.7452Z" fill="#1A237E"/>
</svg>
